<svg xmlns="http://www.w3.org/2000/svg" xmlns:xlink="http://www.w3.org/1999/xlink" xmlns:inkscape="http://www.inkscape.org/namespaces/inkscape" version="1.1" width="780.535" height="464.66398" viewBox="0 0 780.535 464.66398">
<defs>
<clipPath id="clip_0">
<path transform="matrix(1,0,0,-1,-574.305,786.321)" d="M574.305 321.657H1354.84V786.321H574.305Z" clip-rule="evenodd"/>
</clipPath>
<clipPath id="clip_1">
<path transform="matrix(1,0,0,1,-574.305,-293.67903)" d="M0 0H1921V1081H0Z"/>
</clipPath>
</defs>
<g>
<g clip-path="url(#clip_0)">
<path transform="matrix(1,0,0,1,-574.305,-293.67903)" d="M1331 306.395 1330.57 306.391 1276.812 306.172 1169.301 305.738 1128.801 305.785V308.09L1169.301 308.137 1276.812 307.703 1330.57 307.484 1331 307.48ZM1331 306.395" fill="#025f84"/>
<path transform="matrix(1,0,0,1,-574.305,-293.67903)" d="M1114.367 305.801 954.277 305.98 589 306.691V307.184L954.277 307.895 1114.367 308.074ZM1114.367 305.801" fill="#025f84"/>
<g clip-path="url(#clip_1)">
<path transform="matrix(1,0,0,1,-574.305,-293.67903)" d="M1023.371 370.922C1023.133 370.918 1022.871 370.91 1022.68 370.902 1017.793 370.738 978.664 370.562 973.777 370.441 968.891 370.305 929.844 370.273 924.953 370.199 915.18 370.039 801.148 370.129 791.375 370.164 781.602 370.262 667.547 370.598 657.77 370.914 652.785 371.062 620.598 371.297 589 371.578V373.91C620.875 374.195 653.691 374.434 658.742 374.582 668.516 374.898 782.098 375.238 791.867 375.332 801.645 375.367 915.18 375.457 924.953 375.297 929.844 375.223 968.945 375.191 973.832 375.055 978.719 374.934 1017.84 374.758 1022.727 374.594 1022.902 374.586 1023.148 374.582 1023.371 374.574ZM1023.371 370.922" fill="#025f84"/>
<path transform="matrix(1,0,0,1,-574.305,-293.67903)" d="M1331 371.117C1324.129 370.996 1318.566 370.898 1315.906 370.832L1291.48 370.617 1267.059 370.477C1266.355 370.469 1260.746 370.441 1260.047 370.438 1255.859 370.414 1222.406 370.344 1218.223 370.441 1211.238 370.617 1155.332 370.797 1148.352 371.039 1145.559 371.137 1123.234 371.23 1120.445 371.266 1114.656 371.34 1084.867 371.328 1059.504 371.23V374.266C1084.875 374.164 1114.691 374.152 1120.484 374.234 1123.273 374.266 1145.559 374.359 1148.348 374.457 1155.332 374.699 1211.23 374.879 1218.219 375.055 1222.402 375.156 1255.863 375.082 1260.051 375.059 1260.754 375.055 1266.355 375.027 1267.055 375.02L1291.41 374.879 1315.906 374.664C1318.578 374.598 1324.141 374.5 1331 374.379ZM1331 371.117" fill="#025f84"/>
<path transform="matrix(1,0,0,1,-574.305,-293.67903)" d="M1331 327.945C1328.168 327.91 1326.23 327.887 1325.684 327.871L1301.867 327.734 1278.059 327.625C1277.824 327.621 1271.457 327.594 1271.223 327.594 1269.828 327.586 1231.848 327.453 1230.453 327.488 1228.125 327.547 1164.645 327.426 1162.316 327.508 1161.387 327.539 1136.039 327.59 1135.109 327.602 1134.383 327.613 1129.414 327.621 1122.105 327.625V330.121C1129.438 330.129 1134.43 330.137 1135.156 330.148 1136.086 330.156 1161.387 330.211 1162.316 330.242 1164.645 330.32 1228.117 330.203 1230.445 330.262 1231.84 330.293 1269.828 330.164 1271.227 330.156 1271.457 330.152 1277.82 330.129 1278.055 330.125L1301.777 330.012 1325.684 329.875C1326.23 329.863 1328.172 329.836 1331 329.805ZM1331 327.945" fill="#025f84"/>
<path transform="matrix(1,0,0,1,-574.305,-293.67903)" d="M1102.398 327.637C1075.578 327.645 1041.77 327.625 1039.781 327.551 1038.152 327.496 993.719 327.473 992.09 327.43 990.461 327.387 946.133 327.41 944.5 327.387 941.246 327.332 807.664 327.547 804.406 327.562 801.148 327.594 667.539 327.891 664.281 327.996 662.57 328.047 624.863 328.18 589 328.324V329.418C625.176 329.566 663.758 329.703 665.496 329.754 668.754 329.859 801.766 330.156 805.023 330.188 808.281 330.199 941.246 330.414 944.5 330.363 946.133 330.336 990.531 330.363 992.16 330.316 993.789 330.277 1038.211 330.254 1039.84 330.199 1041.828 330.121 1075.59 330.105 1102.398 330.113ZM1102.398 327.637" fill="#025f84"/>
<path transform="matrix(1,0,0,1,-574.305,-293.67903)" d="M1331 349.523C1326.023 349.445 1322.273 349.391 1320.797 349.352L1296.676 349.176 1272.559 349.051C1272.09 349.043 1266.102 349.02 1265.637 349.016 1262.844 349 1227.129 348.898 1224.336 348.965 1219.684 349.082 1159.988 349.113 1155.332 349.273 1153.473 349.336 1129.637 349.41 1127.777 349.434 1125.543 349.461 1114.254 349.477 1100.117 349.473V352.148C1114.27 352.145 1125.582 352.16 1127.82 352.191 1129.68 352.211 1153.473 352.285 1155.332 352.348 1159.988 352.512 1219.676 352.539 1224.332 352.656 1227.121 352.727 1262.848 352.621 1265.641 352.605 1266.105 352.605 1272.086 352.578 1272.555 352.574L1296.594 352.445 1320.797 352.27C1322.277 352.234 1326.031 352.176 1331 352.102ZM1331 349.523" fill="#025f84"/>
<path transform="matrix(1,0,0,1,-574.305,-293.67903)" d="M1076.055 349.449C1054.746 349.414 1034.324 349.344 1031.23 349.227 1027.973 349.117 986.191 349.016 982.934 348.938 979.676 348.844 937.988 348.844 934.73 348.793 928.211 348.684 804.406 348.84 797.891 348.863 791.375 348.926 667.539 349.246 661.027 349.457 657.652 349.555 622.738 349.742 589 349.957V351.66C623.035 351.879 658.699 352.066 662.117 352.168 668.633 352.379 791.93 352.695 798.445 352.762 804.961 352.785 928.211 352.938 934.73 352.828 937.988 352.781 979.738 352.777 982.996 352.688 986.254 352.605 1028.027 352.508 1031.285 352.395 1034.371 352.281 1054.766 352.207 1076.055 352.172ZM1076.055 349.449" fill="#025f84"/>
<path transform="matrix(1,0,0,1,-574.305,-293.67903)" d="M958.711 391.859C946.195 391.742 920.551 391.688 915.18 391.605 902.148 391.391 797.891 391.418 784.859 391.465 771.828 391.594 667.551 391.953 654.52 392.375 647.98 392.566 618.438 392.852 589 393.191V396.168C618.691 396.516 648.75 396.801 655.367 397 668.398 397.418 772.262 397.777 785.293 397.906 798.324 397.953 902.148 397.98 915.18 397.762 920.543 397.684 946.168 397.629 958.711 397.508ZM958.711 391.859" fill="#025f84"/>
<path transform="matrix(1,0,0,1,-574.305,-293.67903)" d="M1331 392.73C1322.41 392.551 1315.066 392.414 1311.02 392.312L1286.289 392.055 1261.559 391.902C1260.621 391.891 1255.395 391.867 1254.457 391.859 1248.879 391.828 1217.688 391.785 1212.105 391.918 1202.797 392.156 1150.68 392.484 1141.367 392.805 1137.645 392.934 1116.832 393.051 1113.113 393.094 1100.082 393.273 1027.16 393.07 1014.129 392.578 1011.465 392.488 1003.777 392.395 995.184 392.301V397.07C1003.797 396.977 1011.5 396.883 1014.172 396.793 1027.203 396.301 1100.113 396.098 1113.145 396.273 1116.863 396.316 1137.645 396.434 1141.363 396.562 1150.676 396.883 1202.789 397.215 1212.102 397.449 1217.684 397.582 1248.883 397.543 1254.465 397.508 1255.398 397.504 1260.621 397.48 1261.555 397.469L1286.227 397.312 1311.02 397.055C1315.082 396.957 1322.422 396.816 1331 396.645ZM1331 392.73" fill="#025f84"/>
<path transform="matrix(1,0,0,1,-574.305,-293.67903)" d="M900.828 412.961C876.172 412.738 793.488 412.711 778.344 412.77 762.055 412.926 667.555 413.309 651.266 413.832 643.25 414.07 616.266 414.398 589 414.797V418.438C616.488 418.84 643.887 419.172 651.992 419.414 668.281 419.938 762.426 420.316 778.715 420.477 793.855 420.531 876.211 420.504 900.828 420.285ZM900.828 412.961" fill="#025f84"/>
<path transform="matrix(1,0,0,1,-574.305,-293.67903)" d="M1331 414.355C1320.832 414.117 1311.742 413.934 1306.137 413.793L1281.094 413.496 1256.059 413.328C1254.887 413.312 1250.039 413.289 1248.867 413.281 1241.895 413.242 1212.965 413.23 1205.992 413.398 1194.352 413.691 1146.02 414.172 1134.383 414.574 1129.73 414.734 1110.43 414.875 1105.781 414.926 1089.492 415.148 1021.867 414.867 1005.578 414.254 998.379 414.012 971.117 413.727 959.262 413.523V419.719C971.094 419.52 998.406 419.23 1005.613 418.988 1021.902 418.375 1089.52 418.098 1105.809 418.316 1110.457 418.371 1129.73 418.512 1134.379 418.672 1146.02 419.07 1194.348 419.555 1205.988 419.848 1212.965 420.012 1241.898 420 1248.875 419.961 1250.043 419.953 1254.887 419.93 1256.055 419.918L1281.043 419.746 1306.137 419.449C1311.762 419.309 1320.848 419.125 1331 418.891ZM1331 414.355" fill="#025f84"/>
<path transform="matrix(1,0,0,1,-574.305,-293.67903)" d="M1331 436C1319.363 435.691 1308.586 435.457 1301.246 435.273L1275.902 434.938 1250.559 434.754C1249.152 434.738 1244.684 434.711 1243.277 434.703 1234.906 434.656 1208.246 434.676 1199.879 434.875 1185.91 435.227 1141.367 435.855 1127.398 436.34 1121.816 436.531 1104.027 436.695 1098.449 436.758 1078.902 437.023 1016.574 436.668 997.027 435.93 987.543 435.609 957.965 435.219 947.285 434.977V442.141C957.938 441.898 987.562 441.508 997.059 441.188 1016.605 440.449 1078.926 440.094 1098.473 440.359 1104.051 440.422 1121.812 440.586 1127.395 440.777 1141.363 441.258 1185.902 441.891 1199.871 442.242 1208.246 442.441 1234.914 442.461 1243.289 442.41 1244.688 442.406 1249.152 442.383 1250.555 442.363L1275.855 442.18 1301.246 441.844C1308.605 441.66 1319.379 441.426 1331 441.121ZM1331 436" fill="#025f84"/>
<path transform="matrix(1,0,0,1,-574.305,-293.67903)" d="M860.52 434.176C828.012 434.051 785.043 434.02 771.828 434.07 752.281 434.262 667.559 434.66 648.008 435.293 638.605 435.57 614.078 435.938 589 436.387V440.715C614.27 441.172 639.117 441.547 648.617 441.828 668.164 442.457 752.59 442.855 772.137 443.047 785.34 443.098 828.113 443.066 860.52 442.941ZM860.52 434.176" fill="#025f84"/>
<path transform="matrix(1,0,0,1,-574.305,-293.67903)" d="M910.812 456.082C901.074 455.988 891.43 455.91 885.859 455.824 880.77 455.742 873.078 455.668 863.953 455.605V465.387C873.07 465.324 880.766 465.25 885.859 465.164 891.426 465.082 901.074 465.004 910.812 464.91ZM910.812 456.082" fill="#025f84"/>
<path transform="matrix(1,0,0,1,-574.305,-293.67903)" d="M821.98 455.414C798.781 455.348 776.156 455.332 765.312 455.371 742.508 455.594 667.562 456.016 644.754 456.75 634.062 457.066 611.883 457.473 589 457.969V463.008C612.039 463.512 634.453 463.922 645.242 464.242 668.047 464.977 742.754 465.395 765.559 465.617 776.383 465.66 798.883 465.645 821.98 465.574ZM821.98 455.414" fill="#025f84"/>
<path transform="matrix(1,0,0,1,-574.305,-293.67903)" d="M1331 457.656C1317.984 457.273 1305.574 456.984 1296.359 456.754L1270.707 456.379 1245.059 456.18C1243.418 456.16 1239.328 456.137 1237.688 456.125 1227.926 456.07 1203.523 456.121 1193.762 456.352 1177.465 456.762 1136.711 457.543 1120.414 458.105 1113.902 458.332 1097.629 458.516 1091.117 458.59 1068.312 458.898 1011.285 458.465 988.48 457.605 982.555 457.406 972.02 457.18 961.656 456.969V464.02C972.023 463.809 982.574 463.586 988.504 463.387 1011.309 462.527 1068.328 462.094 1091.137 462.402 1097.645 462.477 1113.898 462.66 1120.41 462.887 1136.707 463.445 1177.461 464.227 1193.758 464.637 1203.527 464.871 1227.934 464.918 1237.703 464.863 1239.336 464.855 1243.422 464.832 1245.055 464.812L1270.672 464.613 1296.359 464.238C1305.594 464.008 1318 463.715 1331 463.34ZM1331 457.656" fill="#025f84"/>
<path transform="matrix(1,0,0,1,-574.305,-293.67903)" d="M1331 479.328C1316.668 478.859 1302.707 478.516 1291.473 478.234L1265.516 477.816 1239.559 477.602C1237.684 477.582 1233.973 477.559 1232.102 477.551 1220.941 477.484 1198.805 477.562 1187.645 477.832 1169.023 478.301 1132.055 479.23 1113.43 479.871 1105.988 480.129 1091.227 480.336 1083.785 480.418 1068.852 480.621 1045.5 480.543 1023.371 480.25V484.613C1045.504 484.324 1068.863 484.242 1083.801 484.445 1091.238 484.527 1105.984 484.734 1113.426 484.992 1132.051 485.633 1169.02 486.566 1187.645 487.035 1198.809 487.301 1220.949 487.379 1232.113 487.316 1233.98 487.305 1237.688 487.281 1239.555 487.262L1265.488 487.047 1291.473 486.629C1302.727 486.348 1316.68 486.004 1331 485.539ZM1331 479.328" fill="#025f84"/>
<path transform="matrix(1,0,0,1,-574.305,-293.67903)" d="M787.691 476.664C776.18 476.645 765.996 476.648 758.797 476.676 732.734 476.93 667.566 477.367 641.5 478.207 629.648 478.562 609.684 479 589 479.535V485.32C609.805 485.859 629.926 486.301 641.867 486.656 667.93 487.496 732.922 487.938 758.984 488.191 766.148 488.219 776.262 488.219 787.691 488.199ZM787.691 476.664" fill="#025f84"/>
<path transform="matrix(1,0,0,1,-574.305,-293.67903)" d="M903.629 477.555C893.391 477.434 882.957 477.336 876.086 477.234 868.094 477.102 856.414 476.988 843.324 476.898V487.969C856.406 487.875 868.082 487.766 876.086 487.633 882.953 487.527 893.387 487.43 903.629 487.309ZM903.629 477.555" fill="#025f84"/>
<path transform="matrix(1,0,0,1,-574.305,-293.67903)" d="M765.797 497.953C760.891 497.953 756.332 497.961 752.281 497.977 722.961 498.262 667.57 498.723 638.246 499.668 625.387 500.047 607.5 500.516 589 501.082V507.648C607.578 508.219 625.559 508.688 638.488 509.07 667.812 510.016 723.086 510.477 752.406 510.762 756.422 510.777 760.941 510.785 765.797 510.785ZM765.797 497.953" fill="#025f84"/>
<path transform="matrix(1,0,0,1,-574.305,-293.67903)" d="M922.789 499.566C921.422 499.531 920.086 499.496 918.836 499.469 904.176 499.062 880.973 498.859 866.312 498.641 861.887 498.566 856.855 498.496 851.418 498.434V510.305C856.852 510.242 861.883 510.172 866.312 510.102 880.973 509.879 904.188 509.68 918.848 509.27 920.098 509.238 921.426 509.207 922.789 509.172ZM922.789 499.566" fill="#025f84"/>
<path transform="matrix(1,0,0,1,-574.305,-293.67903)" d="M1331 501.016C1315.398 500.457 1299.973 500.051 1286.586 499.715L1260.32 499.258 1234.059 499.027C1231.949 499.008 1228.617 498.984 1226.512 498.973 1213.957 498.902 1194.086 499.008 1181.531 499.309 1160.578 499.836 1127.398 500.918 1106.445 501.641 1098.074 501.93 1084.824 502.156 1076.453 502.25 1076.324 502.254 1076.188 502.254 1076.059 502.254V506.484C1076.191 506.484 1076.332 506.484 1076.461 506.488 1084.828 506.582 1098.07 506.812 1106.438 507.098 1127.395 507.82 1160.574 508.902 1181.531 509.43 1194.09 509.73 1213.969 509.84 1226.527 509.766 1228.629 509.754 1231.953 509.73 1234.059 509.711L1260.305 509.48 1286.586 509.023C1299.988 508.688 1315.406 508.281 1331 507.727ZM1331 501.016" fill="#025f84"/>
<path transform="matrix(1,0,0,1,-574.305,-293.67903)" d="M958.711 522.492C943.164 521.969 924.637 521.344 909.676 520.973 893.387 520.52 872.828 520.293 856.539 520.047 848.172 519.906 838.938 519.781 829.293 519.672V532.938C838.934 532.832 848.168 532.703 856.539 532.566 872.828 532.32 893.395 532.094 909.684 531.641 924.641 531.27 943.164 530.645 958.711 530.117ZM958.711 522.492" fill="#025f84"/>
<path transform="matrix(1,0,0,1,-574.305,-293.67903)" d="M732.945 519.406C701.953 519.727 663.488 520.207 634.992 521.125 621.32 521.531 605.34 522.02 589 522.605V530.004C605.379 530.59 621.398 531.078 635.117 531.484 663.59 532.406 701.973 532.887 732.945 533.207ZM732.945 519.406" fill="#025f84"/>
<path transform="matrix(1,0,0,1,-574.305,-293.67903)" d="M1331 522.719C1314.16 522.059 1297.363 521.586 1281.699 521.195L1255.129 520.699 1228.559 520.457C1226.215 520.43 1223.262 520.406 1220.922 520.395 1206.973 520.316 1189.363 520.453 1175.414 520.785 1166.809 521 1157.367 521.309 1147.707 521.645V530.965C1157.367 531.305 1166.809 531.609 1175.414 531.828 1189.371 532.16 1206.984 532.297 1220.938 532.219 1223.273 532.207 1226.223 532.184 1228.559 532.156L1255.117 531.914 1281.699 531.418C1297.371 531.023 1314.168 530.555 1331 529.895ZM1331 522.719" fill="#025f84"/>
<path transform="matrix(1,0,0,1,-574.305,-293.67903)" d="M987.898 545.348C976.691 545.066 965.484 544.73 954.277 544.309 936.359 543.703 918.438 542.918 900.52 542.477 882.602 541.98 864.684 541.723 846.762 541.453 833.105 541.227 819.449 541.039 805.793 540.887V555.598C819.449 555.445 833.105 555.258 846.762 555.035 864.684 554.762 882.602 554.504 900.52 554.008 918.438 553.566 936.359 552.781 954.277 552.176 965.484 551.754 976.691 551.422 987.898 551.137ZM987.898 545.348" fill="#025f84"/>
<path transform="matrix(1,0,0,1,-574.305,-293.67903)" d="M676.645 541.465C661.676 541.754 646.707 542.102 631.738 542.586 617.492 543.008 603.246 543.531 589 544.125V552.359C603.246 552.953 617.492 553.477 631.738 553.902 646.707 554.383 661.676 554.734 676.645 555.023ZM676.645 541.465" fill="#025f84"/>
<path transform="matrix(1,0,0,1,-574.305,-293.67903)" d="M1331 544.426C1312.938 543.66 1294.875 543.125 1276.812 542.676L1249.938 542.141 1243.672 542.078V554.406L1249.938 554.348 1276.812 553.812C1294.875 553.359 1312.938 552.824 1331 552.059ZM1331 544.426" fill="#025f84"/>
<path transform="matrix(1,0,0,1,-574.305,-293.67903)" d="M637.535 661.766C637.535 661.766 641.887 665.176 644.512 667.641 644.332 668.336 643.676 668.652 642.781 668.652H589.477L589 666.82H611.777V614L620.062 614.949C619.945 615.832 619.469 616.465 617.918 616.719V637.504H629.367L633.18 632.512C633.18 632.512 637.355 635.859 639.922 638.324 639.742 639.02 639.145 639.336 638.309 639.336H617.918V666.82H633.777ZM637.535 661.766" fill="#2d2d2d"/>
<path transform="matrix(1,0,0,1,-574.305,-293.67903)" d="M705.434 633.715C717.238 636.934 713.66 645.273 709.488 642.18 708.891 639.59 706.625 636.176 704.836 634.156ZM704.48 647.613C716.641 651.215 712.586 659.996 708.414 656.586 707.938 653.742 705.73 650.141 703.941 648.055ZM701.793 631.691C701.379 635.23 700.781 639.777 700.125 644.516H718.371C718.551 640.727 718.668 636.555 718.789 631.691ZM717.121 659.176C717.594 656.141 718.012 651.848 718.25 646.348H699.887C699.23 650.961 698.516 655.574 697.859 659.176ZM723.5 646.348C723.258 651.656 722.902 655.891 722.484 659.176H722.844L725.406 655.066C725.406 655.066 728.328 657.977 729.996 659.996 729.82 660.691 729.281 661.008 728.449 661.008H722.246C721.531 665.305 720.637 667.828 719.383 669.223 717.594 671.242 715.09 671.875 712.348 671.938 712.348 670.293 712.168 669.094 711.453 668.336 710.621 667.449 708.891 666.82 706.863 666.375V665.367C708.891 665.555 711.992 665.809 713.184 665.809 714.199 665.809 714.672 665.617 715.27 664.988 715.867 664.418 716.344 663.094 716.82 661.008H698.16L695.895 663.66 690.527 659.996C691.062 659.555 691.898 658.984 692.672 658.605 693.328 655.445 693.984 650.961 694.641 646.348H688.203L687.723 644.516H694.879C695.594 639.523 696.129 634.473 696.547 630.301 694.52 632.953 692.254 635.355 689.809 637.25L689.094 636.684C693.328 631.059 697.027 621.266 698.574 613.242L706.566 615.77C706.328 616.465 705.848 616.781 704.359 616.527 703.703 618.234 702.867 619.875 701.973 621.645H721.113L724.332 617.098C724.332 617.098 728.031 620.191 730.176 622.469 730.059 623.16 729.402 623.477 728.566 623.477H701.02C700.246 624.805 699.41 626.195 698.574 627.395L703.285 629.859H718.191L721.172 626.574 726.539 631.438C726.062 632.008 725.285 632.387 723.977 632.574 723.855 637.062 723.738 640.98 723.617 644.516H724.035L726.719 640.094C726.719 640.094 729.699 643.191 731.371 645.34 731.25 646.031 730.652 646.348 729.82 646.348ZM679.137 613.746C693.926 615.516 689.75 626.637 684.266 622.91 683.492 619.75 680.926 616.34 678.66 614.254ZM691.719 624.234C689.512 632.07 685.516 646.73 684.801 650.016 684.383 652.098 683.965 654.246 684.027 655.891 684.086 658.984 686.172 661.641 685.934 667.008 685.875 669.98 684.324 671.875 681.82 671.875 680.57 671.875 679.496 670.863 679.199 668.715 680.211 662.207 679.914 656.648 678.539 655.699 677.707 655.066 676.812 654.816 675.562 654.688V653.426H678.184C678.957 653.426 679.199 653.363 679.793 652.098 680.926 649.762 680.926 649.762 690.703 623.918ZM675.082 628.344C689.035 629.605 684.922 640.285 679.734 636.809 679.02 633.902 676.633 630.68 674.605 628.848ZM675.082 628.344" fill="#2d2d2d"/>
<path transform="matrix(1,0,0,1,-574.305,-293.67903)" d="M791.336 615.328C791.219 616.211 790.742 616.844 789.191 617.098 790.504 640.918 795.988 656.332 816.5 665.238L816.379 665.934C813.457 666.504 811.488 668.398 810.715 671.684 795.211 662.84 790.383 648.055 788.773 628.344 787.699 644.137 783.406 660.375 761.465 671.875L760.75 670.926C783.406 654.562 782.988 634.156 783.051 614.441ZM791.336 615.328" fill="#2d2d2d"/>
<path transform="matrix(1,0,0,1,-574.305,-293.67903)" d="M895.188 659.867C895.188 659.867 899.543 663.281 902.105 665.746 901.926 666.441 901.332 666.758 900.434 666.758H847.129L846.594 664.926H871.043V624.805H851.066L850.59 622.973H887.676L891.434 617.855C891.434 617.855 895.668 621.332 898.348 623.793 898.168 624.488 897.512 624.805 896.621 624.805H877.18V664.926H891.375ZM895.188 659.867" fill="#2d2d2d"/>
<path transform="matrix(1,0,0,1,-574.305,-293.67903)" d="M977.27 621.836H967.074V636.746H977.27ZM985.199 621.582C984.781 622.09 983.887 622.594 982.754 622.848V641.168C982.695 641.609 979.949 642.746 978.16 642.746H977.27V638.578H967.07V641.988C967.07 642.496 964.805 643.887 962.539 643.887H961.707V617.477L967.371 620.004H976.672L979.414 616.906ZM969.816 658.102H946.977V666.062H969.816ZM946.98 656.27H969.816V648.75H946.98ZM972.02 643.758 977.805 648.434C977.445 648.938 976.613 649.508 975.48 649.695V670.039C975.418 670.484 972.617 671.621 970.77 671.621H969.816V667.895H946.98V669.98C946.98 670.547 944.594 671.875 942.207 671.875H941.371V644.266L947.395 646.918H969.277ZM948.23 631.312C947.992 632.387 947.695 633.395 947.395 634.406 961.586 636.238 959.5 646.477 954.312 644.074 953 641.297 949.723 638.012 946.801 635.797 944.535 640.727 940.18 644.645 931.355 647.613L930.699 646.664C938.988 642.496 941.91 637.504 942.984 631.312H931.297L930.82 629.48H943.223C943.461 627.207 943.52 624.805 943.578 622.215H940.359C938.512 624.992 936.305 627.207 933.859 628.848L933.086 628.215C935.352 624.551 937.262 618.992 938.215 613.242L945.488 615.516C945.25 616.273 944.535 616.844 943.223 616.844 942.688 618.105 942.09 619.246 941.492 620.383H951.031L954.133 616.211C954.133 616.211 957.648 619.055 959.68 621.203 959.559 621.898 958.902 622.215 958.129 622.215H949.184C949.062 624.805 948.945 627.207 948.59 629.48H952.047L955.207 625.309C955.207 625.309 958.605 628.152 960.754 630.301 960.574 630.996 960.035 631.312 959.199 631.312ZM948.23 631.312" fill="#2d2d2d"/>
<path transform="matrix(1,0,0,1,-574.305,-293.67903)" d="M1071.262 664.672C1072.867 665.305 1073.348 665.996 1073.348 667.137 1073.348 669.602 1070.961 670.676 1061.777 670.676H1055.938C1050.57 670.676 1049.438 669.41 1049.438 665.238V642.812L1056.891 643.57C1056.828 644.328 1056.234 644.957 1055.039 645.148V654.75C1059.332 652.035 1063.984 648.117 1066.312 645.402L1072.75 650.141C1072.211 650.773 1071.199 650.961 1069.469 650.52 1066.07 652.414 1060.465 654.816 1055.039 656.332V663.914C1055.039 664.926 1055.34 665.238 1057.188 665.238H1062.254C1064.344 665.238 1066.129 665.238 1066.785 665.176 1067.445 665.113 1067.801 664.926 1068.16 664.418 1068.695 663.473 1069.531 660.566 1070.363 657.344H1071.078ZM1055.578 640.852C1050.332 640.852 1049.258 639.715 1049.258 635.609V614L1056.652 614.758C1056.59 615.516 1055.996 616.148 1054.805 616.34V625.75C1058.977 623.289 1063.746 619.562 1066.07 617.098L1072.156 621.898C1071.617 622.531 1070.543 622.594 1068.934 622.152 1065.535 623.793 1059.988 625.879 1054.805 627.207V634.281C1054.805 635.23 1055.039 635.48 1056.949 635.48H1061.777C1063.805 635.48 1065.477 635.48 1066.191 635.418 1066.785 635.418 1067.203 635.23 1067.504 634.723 1068.039 633.902 1068.816 631.25 1069.648 628.281H1070.363L1070.543 634.977C1072.156 635.609 1072.57 636.238 1072.57 637.379 1072.57 639.844 1070.246 640.852 1061.301 640.852ZM1037.75 647.043H1027.492V653.867H1037.75ZM1027.492 645.211H1037.75V638.832H1027.492ZM1039.777 633.84 1045.738 638.578C1045.383 639.082 1044.488 639.652 1043.234 639.844V664.355C1043.234 668.59 1042.461 671.055 1036.379 671.684 1036.258 669.789 1036.02 668.398 1035.426 667.449 1034.707 666.566 1033.695 665.809 1031.609 665.492V664.543C1031.609 664.543 1035.543 664.859 1036.676 664.859 1037.57 664.859 1037.75 664.543 1037.75 663.723V655.699H1027.492V669.852C1027.492 670.484 1025.348 671.812 1023.082 671.812H1022.246V634.535L1027.793 637H1037.152ZM1036.738 620.066C1051.762 625.059 1047.051 636.809 1041.984 632.512 1041.863 631.25 1041.504 629.922 1040.969 628.598 1036.559 629.797 1029.699 631.5 1021.949 633.082 1021.531 633.586 1021.113 633.965 1020.695 634.156L1018.133 627.523C1018.133 627.523 1019.266 627.27 1019.805 626.953 1023.379 624.234 1028.152 616.719 1029.641 612.738L1037.152 615.832C1036.914 616.465 1036.199 616.969 1035.008 616.906 1032.086 620.32 1027.137 624.68 1022.781 627.711 1027.254 627.648 1033.695 627.457 1040.434 627.207 1039.301 624.68 1037.629 622.34 1036.078 620.57ZM1036.738 620.066" fill="#2d2d2d"/>
<path transform="matrix(1,0,0,1,-574.305,-293.67903)" d="M1127.23 613.18C1142.199 614.57 1136.773 626.824 1130.988 622.277 1130.75 619.117 1128.898 615.645 1126.695 613.621ZM1117.273 628.281C1132.418 629.922 1128.664 640.727 1123.297 637.504 1122.223 634.535 1119.184 630.809 1116.797 628.785ZM1112.684 637.945C1128.898 639.715 1125.086 651.531 1119.242 647.992 1118.168 644.707 1114.891 640.727 1112.207 638.391ZM1113.281 625.438C1113.516 629.797 1111.969 632.828 1109.941 634.09 1108.09 635.355 1105.23 634.914 1104.457 632.574 1103.859 630.426 1105.051 628.785 1106.898 627.836 1109.047 626.637 1111.492 623.539 1111.312 620.004H1112.145C1112.562 621.266 1112.863 622.465 1113.043 623.605H1150.605L1153.824 620.066 1159.605 625.941C1159.129 626.449 1158.473 626.574 1157.344 626.637 1155.496 628.848 1152.215 631.879 1149.711 633.648L1149.113 633.207C1149.711 631.059 1150.484 627.965 1150.961 625.438ZM1152.156 645.336C1152.156 645.336 1156.27 648.875 1158.715 651.277 1158.594 651.973 1157.938 652.289 1157.043 652.289H1135.164C1134.746 653.363 1134.387 654.371 1133.848 655.383 1161.219 660.375 1157.402 674.465 1151.141 671.051 1148.637 667.199 1142.02 661.008 1133.195 656.523 1129.02 663.281 1120.852 668.336 1104.516 672L1104.039 670.988C1119.422 666.125 1126.16 660.188 1129.082 652.289H1106.305L1105.828 650.457H1129.676C1131.586 644.074 1131.406 636.43 1131.406 627.27L1139.695 628.09C1139.574 628.977 1139.039 629.605 1137.605 629.797 1137.426 637.758 1137.426 644.645 1135.699 650.457H1148.578ZM1152.156 645.336" fill="#2d2d2d"/>
<path transform="matrix(1,0,0,1,-574.305,-293.67903)" d="M1222.496 641.926C1233.766 653.109 1229.176 664.293 1224.82 659.43 1224.941 653.93 1223.215 647.043 1221.602 642.18ZM1231.918 633.965C1231.918 633.965 1234.84 636.492 1236.629 638.391 1236.508 639.082 1235.91 639.398 1235.078 639.398H1215.582L1215.102 637.566H1229.293ZM1239.789 663.027C1239.789 663.027 1243.367 665.996 1245.57 668.148 1245.395 668.844 1244.797 669.156 1243.961 669.156H1210.035L1209.559 667.324H1229.414C1231.383 660.438 1233.707 650.016 1235.137 641.422L1242.891 644.074C1242.59 644.832 1241.934 645.336 1240.625 645.273 1237.941 652.984 1234.543 661.195 1230.902 667.324H1236.566ZM1208.961 638.012C1215.344 631.5 1220.828 620.762 1222.914 613.117L1230.727 615.328C1230.488 616.023 1229.832 616.465 1228.223 616.59L1227.922 617.16C1231.145 624.805 1238.598 630.871 1245.453 634.027L1245.336 634.723C1243.129 635.609 1241.637 637.125 1241.277 639.211 1234.961 634.785 1230.012 627.207 1227.148 618.805 1223.273 625.879 1217.191 633.777 1209.617 638.641ZM1214.148 644.012C1225.477 655.258 1220.887 666.566 1216.535 661.641 1216.715 656.141 1214.926 649.129 1213.316 644.266 1212.898 644.707 1212.184 645.023 1211.051 645.211 1210.512 660.691 1209.199 667.391 1206.695 669.789 1205.145 671.305 1203.059 672 1200.852 672 1200.852 670.484 1200.676 669.156 1200.02 668.527 1199.305 667.77 1197.871 667.262 1196.203 666.883V665.871C1197.871 665.996 1200.496 666.188 1201.566 666.188 1202.465 666.188 1202.941 666.062 1203.418 665.617 1204.906 664.164 1205.922 657.656 1206.457 644.516H1198.051L1196.023 646.98 1191.195 643.441C1191.789 643 1192.566 642.496 1193.398 642.113 1194.055 637.188 1194.77 628.977 1194.891 624.93L1201.391 626.449C1201.152 627.207 1200.613 627.902 1199.184 627.902 1198.887 631.754 1198.348 638.262 1197.754 642.684H1203.238C1204.133 635.418 1204.789 626.258 1205.086 620.129H1192.027L1191.492 618.297H1204.551L1206.758 615.391 1212.242 619.875C1211.824 620.445 1210.871 620.887 1209.617 621.016 1209.438 625.5 1208.902 633.398 1208.367 639.906L1208.484 639.777 1213.375 644.199 1213.316 644.266ZM1204.73 652.477C1202.465 654.309 1199.004 657.027 1194.113 660.438 1193.879 661.262 1193.398 661.828 1192.805 662.082L1189.82 655.195C1192.445 654.75 1198.527 653.297 1204.551 651.719ZM1204.73 652.477" fill="#2d2d2d"/>
<path transform="matrix(1,0,0,1,-574.305,-293.67903)" d="M1283.301 643.57C1283.301 643.57 1284.551 643.379 1285.148 643.062 1289.621 641.168 1295.465 635.797 1298.445 632.199H1284.789L1284.312 630.363H1313.531L1316.75 626.32C1316.75 626.32 1320.387 629.102 1322.652 631.184 1322.531 631.883 1321.879 632.199 1321.102 632.199H1301.844L1306.492 634.789C1306.195 635.355 1305.422 635.797 1304.168 635.547 1300.652 638.199 1294.688 641.547 1289.203 643.82 1295.82 643.758 1305.957 643.508 1316.629 643.062 1314.781 640.727 1312.695 638.578 1310.906 637L1311.5 636.492C1329.328 640.727 1326.469 652.855 1320.625 649.57 1319.969 647.93 1318.895 646.16 1317.645 644.391 1310.43 645.656 1299.938 647.297 1287.594 648.812 1287.117 649.699 1286.52 650.266 1285.922 650.52ZM1284.969 623.477C1285.207 627.711 1283.719 630.617 1281.809 631.941 1280.141 633.145 1277.637 632.891 1276.918 630.934 1276.266 629.102 1277.336 627.52 1278.828 626.699 1281.035 625.5 1283.18 622.09 1283 618.422L1283.898 618.359C1284.312 619.496 1284.551 620.633 1284.73 621.645H1304.051C1303.512 621.582 1302.977 621.332 1302.441 620.953 1302.023 618.234 1300.055 615.203 1298.027 613.559L1298.504 613.117C1309.832 613.242 1308.938 620.953 1305.184 621.645H1322.414L1325.516 618.297 1331 623.922C1330.523 624.426 1329.926 624.617 1328.734 624.676 1327.242 626.637 1324.797 629.352 1322.773 630.871L1322.117 630.492C1322.414 628.594 1322.773 625.754 1322.949 623.477ZM1324.32 662.715C1324.32 662.715 1328.316 665.934 1330.82 668.211 1330.645 668.906 1330.047 669.219 1329.152 669.219H1276.918L1276.383 667.387H1300.473V657.973H1283.062L1282.582 656.141H1300.473V647.172L1308.461 647.867C1308.402 648.812 1307.926 649.383 1306.434 649.633V656.141H1315.32L1318.719 651.719C1318.719 651.719 1322.531 654.754 1324.98 656.965 1324.797 657.66 1324.203 657.973 1323.367 657.973H1306.434V667.387H1320.742ZM1324.32 662.715" fill="#2d2d2d"/>
<path transform="matrix(1,0,0,1,-574.305,-293.67903)" d="M691.461 723.555C692.324 725.852 693.336 727.68 694.5 729.043 696.523 731.418 699.039 732.605 702.043 732.605 703.672 732.605 705.078 732.09 706.266 731.062 707.449 730.031 708.043 728.594 708.043 726.746 708.043 725.086 707.445 723.641 706.25 722.41 705.473 721.625 703.828 720.453 701.324 718.895L696.969 716.176C695.656 715.344 694.613 714.504 693.832 713.656 692.387 712.043 691.66 710.266 691.66 708.32 691.66 705.742 692.52 703.602 694.23 701.887 695.941 700.176 698.211 699.32 701.039 699.32 702.199 699.32 703.602 699.605 705.238 700.18 706.875 700.754 707.812 701.039 708.043 701.039 708.676 701.039 709.113 700.891 709.352 700.59 709.594 700.293 709.781 699.867 709.914 699.32H710.961L712.082 710.191H710.863C710.031 706.914 708.695 704.629 706.859 703.332 705.023 702.035 703.207 701.391 701.41 701.391 700.016 701.391 698.797 701.801 697.758 702.621 696.719 703.445 696.199 704.59 696.199 706.051 696.199 707.363 696.598 708.488 697.395 709.418 698.191 710.367 699.43 711.355 701.105 712.383L705.59 715.152C708.398 716.883 710.375 718.469 711.527 719.914 712.664 721.379 713.23 723.109 713.23 725.102 713.23 727.777 712.223 730.016 710.199 731.809 708.18 733.605 705.602 734.5 702.457 734.5 700.879 734.5 699.23 734.203 697.508 733.605 695.789 733.004 694.805 732.707 694.555 732.707 693.957 732.707 693.555 732.891 693.344 733.254 693.137 733.621 693 734.012 692.934 734.426H691.812L690.289 723.555ZM691.461 723.555" fill="#2d2d2d"/>
<path transform="matrix(1,0,0,1,-574.305,-293.67903)" d="M718.145 733.133C719.508 732.949 720.402 732.609 720.824 732.121 721.25 731.633 721.461 730.473 721.461 728.645V704.703C721.461 703.773 721.34 703.09 721.098 702.648 720.859 702.207 720.273 701.988 719.34 701.988 719.16 701.988 718.98 702 718.805 702.023 718.629 702.051 718.434 702.078 718.219 702.109V701.215C718.949 700.996 719.852 700.734 720.922 700.43 721.996 700.121 722.742 699.902 723.156 699.77L725.551 699.02 725.602 699.195V714.504C726.645 713.309 727.578 712.426 728.391 711.859 729.855 710.863 731.434 710.363 733.129 710.363 735.824 710.363 737.66 711.496 738.641 713.758 739.172 714.953 739.438 716.523 739.438 718.469V728.645C739.438 730.406 739.641 731.551 740.047 732.082 740.457 732.613 741.293 732.965 742.555 733.133V733.828H731.758V733.133C733.207 732.934 734.137 732.59 734.551 732.109 734.965 731.625 735.176 730.473 735.176 728.645V718.543C735.176 716.934 734.906 715.625 734.363 714.629 733.824 713.633 732.805 713.133 731.309 713.133 730.012 713.133 728.758 713.598 727.543 714.527 726.332 715.461 725.723 716.066 725.723 716.352V728.645C725.723 730.504 725.941 731.668 726.375 732.133 726.805 732.598 727.727 732.934 729.141 733.133V733.828H718.145ZM718.145 733.133" fill="#2d2d2d"/>
<path transform="matrix(1,0,0,1,-574.305,-293.67903)" d="M758.988 720.016C757.078 720.648 755.5 721.344 754.254 722.109 751.855 723.59 750.66 725.27 750.66 727.148 750.66 728.66 751.16 729.773 752.156 730.488 752.805 730.953 753.527 731.188 754.328 731.188 755.426 731.188 756.473 730.879 757.48 730.262 758.484 729.648 758.988 728.867 758.988 727.918ZM749.84 722.832C751.367 721.836 754.418 720.48 758.988 718.77V716.648C758.988 714.953 758.824 713.773 758.492 713.109 757.926 711.996 756.754 711.438 754.973 711.438 754.125 711.438 753.32 711.656 752.555 712.086 751.793 712.535 751.41 713.148 751.41 713.93 751.41 714.129 751.449 714.469 751.535 714.941 751.617 715.414 751.66 715.719 751.66 715.852 751.66 716.781 751.352 717.43 750.734 717.797 750.387 718.012 749.973 718.121 749.488 718.121 748.742 718.121 748.168 717.875 747.77 717.383 747.371 716.895 747.172 716.348 747.172 715.75 747.172 714.586 747.887 713.371 749.328 712.098 750.766 710.828 752.871 710.191 755.648 710.191 758.871 710.191 761.059 711.238 762.207 713.332 762.82 714.48 763.129 716.152 763.129 718.344V728.344C763.129 729.309 763.195 729.973 763.328 730.336 763.543 730.988 763.992 731.312 764.676 731.312 765.055 731.312 765.371 731.25 765.621 731.137 765.871 731.02 766.305 730.738 766.918 730.289V731.586C766.387 732.234 765.812 732.766 765.199 733.18 764.266 733.812 763.32 734.129 762.355 734.129 761.227 734.129 760.406 733.762 759.898 733.031 759.391 732.301 759.113 731.426 759.062 730.414 757.801 731.508 756.719 732.324 755.824 732.855 754.309 733.754 752.871 734.203 751.508 734.203 750.078 734.203 748.84 733.703 747.793 732.695 746.746 731.691 746.223 730.414 746.223 728.867 746.223 726.457 747.426 724.445 749.84 722.832" fill="#2d2d2d"/>
<path transform="matrix(1,0,0,1,-574.305,-293.67903)" d="M769.062 733.133C770.246 732.98 771.07 732.688 771.543 732.246 772.02 731.805 772.254 730.82 772.254 729.289V716.625C772.254 715.57 772.156 714.824 771.957 714.398 771.641 713.77 770.992 713.457 770.012 713.457 769.863 713.457 769.707 713.465 769.551 713.48 769.391 713.5 769.199 713.523 768.965 713.559V712.684C769.645 712.484 771.258 711.969 773.801 711.137L776.145 710.363C776.262 710.363 776.332 710.406 776.359 710.488 776.383 710.574 776.395 710.691 776.395 710.84V714.504C777.922 713.074 779.117 712.094 779.98 711.562 781.273 710.746 782.617 710.34 784.012 710.34 785.141 710.34 786.168 710.664 787.098 711.312 788.887 712.574 789.785 714.828 789.785 718.07V729.715C789.785 730.91 790.023 731.777 790.5 732.309 790.98 732.84 791.781 733.113 792.902 733.133V733.828H782.254V733.133C783.469 732.965 784.316 732.629 784.797 732.121 785.281 731.613 785.52 730.512 785.52 728.816V718.168C785.52 716.738 785.258 715.559 784.727 714.617 784.199 713.68 783.223 713.207 781.801 713.207 780.828 713.207 779.836 713.539 778.828 714.203 778.266 714.59 777.539 715.219 776.645 716.102V730.062C776.645 731.262 776.91 732.062 777.441 732.469 777.973 732.879 778.812 733.098 779.961 733.133V733.828H769.062ZM769.062 733.133" fill="#2d2d2d"/>
<path transform="matrix(1,0,0,1,-574.305,-293.67903)" d="M810.082 724.203C811.082 723.406 811.578 722.02 811.578 720.039 811.578 718.461 811.176 716.684 810.371 714.703 809.562 712.727 808.223 711.734 806.344 711.734 804.715 711.734 803.594 712.508 802.977 714.055 802.66 714.871 802.504 715.875 802.504 717.07 802.504 719.102 802.992 720.922 803.977 722.535 804.953 724.145 806.227 724.953 807.789 724.953 808.703 724.953 809.469 724.703 810.082 724.203M802.164 741.336C803.738 741.867 805.535 742.133 807.566 742.133 810.324 742.133 812.566 741.656 814.297 740.699 816.027 739.742 816.891 738.566 816.891 737.172 816.891 736.059 816.191 735.316 814.789 734.949 813.926 734.734 812.285 734.609 809.871 734.578 809.254 734.559 808.605 734.539 807.922 734.516 807.238 734.488 806.613 734.461 806.047 734.43 805.68 734.41 805.09 734.344 804.273 734.227 803.457 734.109 802.848 734.012 802.449 733.93 802.25 733.93 801.766 734.453 800.992 735.5 800.203 736.562 799.812 737.543 799.812 738.441 799.812 739.84 800.598 740.805 802.164 741.336M799.523 722.781C798.684 721.504 798.266 720.062 798.266 718.469 798.266 716.523 799.035 714.68 800.582 712.934 802.129 711.188 804.312 710.316 807.141 710.316 808.355 710.316 809.691 710.602 811.156 711.176 812.617 711.75 814.023 712.035 815.367 712.035 815.719 712.035 816.246 712.023 816.953 712 817.66 711.973 818.172 711.961 818.484 711.961H818.785V713.98H814.473C814.77 714.68 815.004 715.285 815.172 715.801 815.453 716.766 815.594 717.68 815.594 718.543 815.594 720.438 814.809 722.18 813.238 723.766 811.668 725.355 809.551 726.148 806.891 726.148 806.477 726.148 805.727 726.074 804.648 725.926 804.164 725.926 803.523 726.332 802.727 727.145 801.93 727.961 801.531 728.625 801.531 729.141 801.531 729.672 802.113 730.062 803.277 730.312 804.047 730.48 804.895 730.562 805.824 730.562 810.105 730.562 813.012 730.805 814.543 731.285 817.055 732.066 818.312 733.746 818.312 736.324 818.312 738.949 816.844 741.043 813.91 742.605 810.977 744.168 808.016 744.949 805.023 744.949 802.297 744.949 800.133 744.398 798.539 743.293 796.941 742.188 796.145 741.027 796.145 739.812 796.145 739.215 796.355 738.629 796.777 738.055 797.199 737.48 798.031 736.629 799.273 735.5L800.914 734.027 801.211 733.73C800.453 733.43 799.883 733.141 799.504 732.855 798.844 732.344 798.516 731.754 798.516 731.086 798.516 730.473 798.801 729.793 799.371 729.055 799.945 728.312 801.172 727.113 803.051 725.449 801.539 724.953 800.363 724.062 799.523 722.781" fill="#2d2d2d"/>
<path transform="matrix(1,0,0,1,-574.305,-293.67903)" d="M821.906 733.133C823.27 732.949 824.164 732.609 824.586 732.121 825.008 731.633 825.223 730.473 825.223 728.645V704.703C825.223 703.773 825.098 703.09 824.859 702.648 824.617 702.207 824.031 701.988 823.102 701.988 822.918 701.988 822.742 702 822.566 702.023 822.391 702.051 822.195 702.078 821.98 702.109V701.215C822.711 700.996 823.613 700.734 824.684 700.43 825.758 700.121 826.5 699.902 826.918 699.77L829.309 699.02 829.359 699.195V714.504C830.406 713.309 831.34 712.426 832.152 711.859 833.617 710.863 835.195 710.363 836.891 710.363 839.586 710.363 841.422 711.496 842.402 713.758 842.934 714.953 843.199 716.523 843.199 718.469V728.645C843.199 730.406 843.402 731.551 843.809 732.082 844.219 732.613 845.051 732.965 846.316 733.133V733.828H835.52V733.133C836.965 732.934 837.895 732.59 838.312 732.109 838.727 731.625 838.934 730.473 838.934 728.645V718.543C838.934 716.934 838.664 715.625 838.125 714.629 837.586 713.633 836.566 713.133 835.07 713.133 833.773 713.133 832.52 713.598 831.305 714.527 830.094 715.461 829.484 716.066 829.484 716.352V728.645C829.484 730.504 829.703 731.668 830.133 732.133 830.566 732.598 831.488 732.934 832.902 733.133V733.828H821.906ZM821.906 733.133" fill="#2d2d2d"/>
<path transform="matrix(1,0,0,1,-574.305,-293.67903)" d="M862.75 720.016C860.84 720.648 859.258 721.344 858.012 722.109 855.617 723.59 854.422 725.27 854.422 727.148 854.422 728.66 854.922 729.773 855.918 730.488 856.566 730.953 857.289 731.188 858.086 731.188 859.184 731.188 860.234 730.879 861.242 730.262 862.246 729.648 862.75 728.867 862.75 727.918ZM853.598 722.832C855.129 721.836 858.18 720.48 862.75 718.77V716.648C862.75 714.953 862.582 713.773 862.25 713.109 861.688 711.996 860.516 711.438 858.734 711.438 857.887 711.438 857.082 711.656 856.316 712.086 855.551 712.535 855.168 713.148 855.168 713.93 855.168 714.129 855.211 714.469 855.293 714.941 855.379 715.414 855.418 715.719 855.418 715.852 855.418 716.781 855.109 717.43 854.496 717.797 854.148 718.012 853.73 718.121 853.25 718.121 852.504 718.121 851.93 717.875 851.527 717.383 851.129 716.895 850.93 716.348 850.93 715.75 850.93 714.586 851.648 713.371 853.09 712.098 854.523 710.828 856.633 710.191 859.406 710.191 862.633 710.191 864.82 711.238 865.965 713.332 866.582 714.48 866.891 716.152 866.891 718.344V728.344C866.891 729.309 866.953 729.973 867.09 730.336 867.305 730.988 867.754 731.312 868.434 731.312 868.816 731.312 869.133 731.25 869.383 731.137 869.633 731.02 870.062 730.738 870.68 730.289V731.586C870.145 732.234 869.574 732.766 868.957 733.18 868.027 733.812 867.078 734.129 866.117 734.129 864.984 734.129 864.168 733.762 863.66 733.031 863.152 732.301 862.875 731.426 862.824 730.414 861.562 731.508 860.48 732.324 859.582 732.855 858.07 733.754 856.633 734.203 855.27 734.203 853.84 734.203 852.602 733.703 851.555 732.695 850.508 731.691 849.984 730.414 849.984 728.867 849.984 726.457 851.188 724.445 853.598 722.832" fill="#2d2d2d"/>
<path transform="matrix(1,0,0,1,-574.305,-293.67903)" d="M876.863 699.789C877.363 699.277 877.977 699.02 878.711 699.02 879.426 699.02 880.035 699.273 880.543 699.777 881.051 700.281 881.301 700.898 881.301 701.625 881.301 702.336 881.051 702.945 880.543 703.449 880.035 703.953 879.426 704.207 878.711 704.207 877.977 704.207 877.363 703.953 876.863 703.449 876.367 702.945 876.117 702.336 876.117 701.625 876.117 700.914 876.367 700.305 876.863 699.789M872.898 733.133C874.676 732.965 875.801 732.66 876.266 732.223 876.73 731.781 876.965 730.59 876.965 728.645V716.75C876.965 715.668 876.887 714.922 876.738 714.504 876.492 713.824 875.965 713.48 875.168 713.48 874.984 713.48 874.805 713.5 874.633 713.531 874.457 713.566 873.957 713.699 873.125 713.93V713.156L874.195 712.809C877.105 711.859 879.133 711.145 880.281 710.664 880.746 710.465 881.047 710.363 881.176 710.363 881.211 710.48 881.227 710.605 881.227 710.738V728.645C881.227 730.535 881.457 731.727 881.914 732.207 882.371 732.691 883.406 733 885.016 733.133V733.828H872.898ZM872.898 733.133" fill="#2d2d2d"/>
<path transform="matrix(1,0,0,1,-574.305,-293.67903)" d="M934.945 720.715 929.094 706.648 923.215 720.715ZM912.953 733.828V732.883C914.266 732.734 915.25 732.238 915.91 731.398 916.566 730.559 917.691 728.262 919.285 724.504L929.922 699.445H930.941L943.664 728.395C944.512 730.312 945.188 731.496 945.695 731.953 946.203 732.406 947.055 732.715 948.254 732.883V733.828H935.266V732.883C936.758 732.75 937.719 732.59 938.152 732.398 938.582 732.207 938.801 731.738 938.801 730.996 938.801 730.746 938.719 730.309 938.551 729.68 938.383 729.051 938.152 728.391 937.852 727.695L935.809 722.781H922.348C921.023 726.125 920.23 728.164 919.973 728.898 919.715 729.637 919.59 730.219 919.59 730.648 919.59 731.508 919.934 732.105 920.633 732.438 921.066 732.633 921.879 732.781 923.074 732.883V733.828ZM912.953 733.828" fill="#2d2d2d"/>
<path transform="matrix(1,0,0,1,-574.305,-293.67903)" d="M951.023 732.883C953.102 732.734 954.449 732.422 955.066 731.953 955.68 731.48 955.988 730.262 955.988 728.293V705.578C955.988 703.699 955.68 702.488 955.066 701.949 954.449 701.41 953.102 701.09 951.023 700.988V700.043H966.137V700.988C964.059 701.09 962.711 701.41 962.098 701.949 961.48 702.488 961.176 703.699 961.176 705.578V728.293C961.176 730.262 961.48 731.48 962.098 731.953 962.711 732.422 964.059 732.734 966.137 732.883V733.828H951.023ZM951.023 732.883" fill="#2d2d2d"/>
<path transform="matrix(1,0,0,1,-574.305,-293.67903)" d="M996.688 732.883C998.566 732.684 999.785 732.348 1000.34 731.875 1000.895 731.406 1001.176 730.211 1001.176 728.293V705.578C1001.176 703.766 1000.902 702.582 1000.352 702.023 999.805 701.469 998.582 701.121 996.688 700.988V700.043H1011.098V700.988C1009.219 701.09 1007.961 701.398 1007.32 701.91 1006.68 702.426 1006.363 703.531 1006.363 705.23V729.766C1006.363 730.328 1006.457 730.773 1006.648 731.098 1006.84 731.422 1007.262 731.625 1007.91 731.707 1008.293 731.762 1008.695 731.793 1009.121 731.809 1009.543 731.824 1010.34 731.832 1011.504 731.832 1016.047 731.832 1019.121 731.461 1020.715 730.711 1022.316 729.965 1023.863 728.055 1025.359 724.977H1026.66L1024.164 733.828H996.688ZM996.688 732.883" fill="#2d2d2d"/>
<path transform="matrix(1,0,0,1,-574.305,-293.67903)" d="M1043.066 720.016C1041.156 720.648 1039.578 721.344 1038.332 722.109 1035.934 723.59 1034.738 725.27 1034.738 727.148 1034.738 728.66 1035.238 729.773 1036.234 730.488 1036.883 730.953 1037.605 731.188 1038.406 731.188 1039.504 731.188 1040.551 730.879 1041.559 730.262 1042.562 729.648 1043.066 728.867 1043.066 727.918ZM1033.918 722.832C1035.445 721.836 1038.496 720.48 1043.066 718.77V716.648C1043.066 714.953 1042.902 713.773 1042.57 713.109 1042.004 711.996 1040.832 711.438 1039.051 711.438 1038.203 711.438 1037.398 711.656 1036.633 712.086 1035.871 712.535 1035.488 713.148 1035.488 713.93 1035.488 714.129 1035.527 714.469 1035.613 714.941 1035.695 715.414 1035.738 715.719 1035.738 715.852 1035.738 716.781 1035.43 717.43 1034.812 717.797 1034.465 718.012 1034.051 718.121 1033.566 718.121 1032.82 718.121 1032.246 717.875 1031.848 717.383 1031.449 716.895 1031.25 716.348 1031.25 715.75 1031.25 714.586 1031.965 713.371 1033.406 712.098 1034.844 710.828 1036.949 710.191 1039.727 710.191 1042.949 710.191 1045.137 711.238 1046.285 713.332 1046.898 714.48 1047.207 716.152 1047.207 718.344V728.344C1047.207 729.309 1047.273 729.973 1047.406 730.336 1047.621 730.988 1048.07 731.312 1048.754 731.312 1049.133 731.312 1049.449 731.25 1049.699 731.137 1049.949 731.02 1050.383 730.738 1050.996 730.289V731.586C1050.465 732.234 1049.891 732.766 1049.273 733.18 1048.344 733.812 1047.398 734.129 1046.434 734.129 1045.305 734.129 1044.484 733.762 1043.977 733.031 1043.469 732.301 1043.191 731.426 1043.141 730.414 1041.879 731.508 1040.797 732.324 1039.898 732.855 1038.387 733.754 1036.949 734.203 1035.586 734.203 1034.156 734.203 1032.918 733.703 1031.871 732.695 1030.824 731.691 1030.301 730.414 1030.301 728.867 1030.301 726.457 1031.504 724.445 1033.918 722.832" fill="#2d2d2d"/>
<path transform="matrix(1,0,0,1,-574.305,-293.67903)" d="M1061.887 732.023C1063.027 732.395 1064.031 732.582 1064.891 732.582 1067.207 732.582 1068.926 731.711 1070.043 729.969 1071.16 728.223 1071.719 726.117 1071.719 723.641 1071.719 721.168 1071.195 718.883 1070.156 716.781 1069.113 714.684 1067.422 713.633 1065.09 713.633 1063.914 713.633 1062.762 713.992 1061.637 714.715 1060.512 715.438 1059.949 716.355 1059.949 717.465V730.168C1060.098 731.031 1060.742 731.648 1061.887 732.023M1052.395 702.113V701.266C1054.293 700.832 1056.004 700.348 1057.523 699.82 1059.039 699.285 1059.859 699.02 1059.977 699.02 1060.008 699.121 1060.023 699.219 1060.023 699.32V714.504C1060.457 713.707 1061.102 712.949 1061.965 712.234 1063.492 710.988 1065.25 710.367 1067.242 710.367 1069.684 710.367 1071.766 711.398 1073.492 713.457 1075.219 715.52 1076.082 718.195 1076.082 721.488 1076.082 725.012 1074.961 728.027 1072.715 730.539 1070.473 733.047 1067.52 734.301 1063.863 734.301 1062.02 734.301 1060.207 733.938 1058.43 733.207 1056.648 732.473 1055.758 731.742 1055.758 731.012V704.656C1055.758 703.691 1055.625 703.004 1055.363 702.598 1055.094 702.191 1054.48 701.988 1053.516 701.988ZM1052.395 702.113" fill="#2d2d2d"/>
<path transform="matrix(1,0,0,1,-574.305,-293.67903)" d="M1087.309 713.234C1085.645 714.746 1084.812 717.355 1084.812 721.062 1084.812 724.02 1085.48 726.781 1086.82 729.34 1088.164 731.902 1090.023 733.18 1092.406 733.18 1094.27 733.18 1095.707 732.324 1096.715 730.613 1097.723 728.902 1098.227 726.656 1098.227 723.879 1098.227 721.004 1097.586 718.297 1096.301 715.75 1095.02 713.207 1093.164 711.934 1090.73 711.934 1089.414 711.934 1088.273 712.371 1087.309 713.234M1083.328 713.867C1085.43 711.582 1088.137 710.441 1091.445 710.441 1094.734 710.441 1097.461 711.52 1099.621 713.68 1101.785 715.844 1102.863 718.719 1102.863 722.309 1102.863 725.617 1101.816 728.492 1099.723 730.938 1097.625 733.379 1094.918 734.602 1091.594 734.602 1088.402 734.602 1085.699 733.43 1083.488 731.086 1081.277 728.742 1080.172 725.801 1080.172 722.258 1080.172 718.953 1081.223 716.156 1083.328 713.867" fill="#2d2d2d"/>
<path transform="matrix(1,0,0,1,-574.305,-293.67903)" d="M1105.758 733.008C1107.285 732.871 1108.301 732.602 1108.801 732.195 1109.297 731.789 1109.547 730.918 1109.547 729.59V718.344C1109.547 716.699 1109.395 715.523 1109.086 714.816 1108.777 714.109 1108.219 713.758 1107.402 713.758 1107.234 713.758 1107.016 713.777 1106.742 713.82 1106.469 713.859 1106.184 713.914 1105.883 713.98V713.156C1106.824 712.824 1107.797 712.484 1108.789 712.137 1109.785 711.785 1110.473 711.535 1110.855 711.387 1111.684 711.07 1112.535 710.715 1113.414 710.316 1113.527 710.316 1113.602 710.355 1113.625 710.441 1113.652 710.523 1113.66 710.699 1113.66 710.965V715.055C1114.73 713.574 1115.758 712.418 1116.75 711.586 1117.742 710.758 1118.77 710.34 1119.836 710.34 1120.688 710.34 1121.379 710.594 1121.914 711.102 1122.445 711.609 1122.715 712.242 1122.715 713.008 1122.715 713.691 1122.512 714.266 1122.102 714.73 1121.695 715.195 1121.184 715.426 1120.57 715.426 1119.938 715.426 1119.301 715.137 1118.66 714.555 1118.023 713.973 1117.52 713.68 1117.152 713.68 1116.57 713.68 1115.855 714.152 1115.008 715.09 1114.16 716.031 1113.734 716.996 1113.734 717.996V729.242C1113.734 730.672 1114.07 731.664 1114.734 732.223 1115.398 732.777 1116.504 733.039 1118.051 733.008V733.828H1105.758ZM1105.758 733.008" fill="#2d2d2d"/>
<path transform="matrix(1,0,0,1,-574.305,-293.67903)" d="M1138.297 720.016C1136.387 720.648 1134.809 721.344 1133.562 722.109 1131.168 723.59 1129.973 725.27 1129.973 727.148 1129.973 728.66 1130.473 729.773 1131.469 730.488 1132.117 730.953 1132.84 731.188 1133.637 731.188 1134.734 731.188 1135.785 730.879 1136.789 730.262 1137.797 729.648 1138.297 728.867 1138.297 727.918ZM1129.148 722.832C1130.68 721.836 1133.727 720.48 1138.297 718.77V716.648C1138.297 714.953 1138.133 713.773 1137.801 713.109 1137.234 711.996 1136.062 711.438 1134.285 711.438 1133.438 711.438 1132.629 711.656 1131.867 712.086 1131.102 712.535 1130.719 713.148 1130.719 713.93 1130.719 714.129 1130.762 714.469 1130.844 714.941 1130.926 715.414 1130.969 715.719 1130.969 715.852 1130.969 716.781 1130.66 717.43 1130.047 717.797 1129.695 718.012 1129.281 718.121 1128.801 718.121 1128.051 718.121 1127.477 717.875 1127.078 717.383 1126.68 716.895 1126.48 716.348 1126.48 715.75 1126.48 714.586 1127.199 713.371 1128.637 712.098 1130.074 710.828 1132.184 710.191 1134.957 710.191 1138.184 710.191 1140.367 711.238 1141.516 713.332 1142.129 714.48 1142.438 716.152 1142.438 718.344V728.344C1142.438 729.309 1142.504 729.973 1142.641 730.336 1142.855 730.988 1143.305 731.312 1143.984 731.312 1144.367 731.312 1144.684 731.25 1144.934 731.137 1145.184 731.02 1145.613 730.738 1146.23 730.289V731.586C1145.695 732.234 1145.121 732.766 1144.508 733.18 1143.578 733.812 1142.629 734.129 1141.664 734.129 1140.535 734.129 1139.715 733.762 1139.211 733.031 1138.703 732.301 1138.426 731.426 1138.375 730.414 1137.109 731.508 1136.031 732.324 1135.133 732.855 1133.621 733.754 1132.184 734.203 1130.82 734.203 1129.391 734.203 1128.152 733.703 1127.105 732.695 1126.059 731.691 1125.531 730.414 1125.531 728.867 1125.531 726.457 1126.738 724.445 1129.148 722.832" fill="#2d2d2d"/>
<path transform="matrix(1,0,0,1,-574.305,-293.67903)" d="M1160.441 710.84V712.637H1155.355L1155.305 726.996C1155.305 728.262 1155.414 729.215 1155.629 729.863 1156.031 731.012 1156.809 731.586 1157.973 731.586 1158.574 731.586 1159.094 731.441 1159.535 731.16 1159.973 730.879 1160.477 730.43 1161.043 729.816L1161.688 730.363 1161.141 731.109C1160.277 732.277 1159.363 733.098 1158.398 733.578 1157.434 734.062 1156.504 734.305 1155.605 734.305 1153.645 734.305 1152.312 733.43 1151.617 731.684 1151.234 730.738 1151.043 729.426 1151.043 727.746V712.637H1148.324C1148.242 712.582 1148.18 712.535 1148.137 712.484 1148.094 712.438 1148.074 712.367 1148.074 712.285 1148.074 712.117 1148.113 711.988 1148.188 711.898 1148.262 711.809 1148.5 711.598 1148.898 711.266 1150.047 710.316 1150.871 709.547 1151.379 708.957 1151.887 708.367 1153.078 706.809 1154.957 704.281 1155.172 704.281 1155.301 704.297 1155.344 704.332 1155.383 704.363 1155.406 704.488 1155.406 704.703V710.84ZM1160.441 710.84" fill="#2d2d2d"/>
<path transform="matrix(1,0,0,1,-574.305,-293.67903)" d="M1171.195 713.234C1169.531 714.746 1168.699 717.355 1168.699 721.062 1168.699 724.02 1169.367 726.781 1170.707 729.34 1172.051 731.902 1173.91 733.18 1176.293 733.18 1178.156 733.18 1179.594 732.324 1180.602 730.613 1181.609 728.902 1182.113 726.656 1182.113 723.879 1182.113 721.004 1181.473 718.297 1180.188 715.75 1178.906 713.207 1177.051 711.934 1174.617 711.934 1173.301 711.934 1172.16 712.371 1171.195 713.234M1167.215 713.867C1169.316 711.582 1172.023 710.441 1175.332 710.441 1178.621 710.441 1181.348 711.52 1183.508 713.68 1185.672 715.844 1186.75 718.719 1186.75 722.309 1186.75 725.617 1185.703 728.492 1183.609 730.938 1181.516 733.379 1178.805 734.602 1175.48 734.602 1172.289 734.602 1169.586 733.43 1167.375 731.086 1165.164 728.742 1164.059 725.801 1164.059 722.258 1164.059 718.953 1165.109 716.156 1167.215 713.867" fill="#2d2d2d"/>
<path transform="matrix(1,0,0,1,-574.305,-293.67903)" d="M1189.645 733.008C1191.172 732.871 1192.188 732.602 1192.688 732.195 1193.188 731.789 1193.434 730.918 1193.434 729.59V718.344C1193.434 716.699 1193.281 715.523 1192.973 714.816 1192.664 714.109 1192.105 713.758 1191.289 713.758 1191.125 713.758 1190.902 713.777 1190.629 713.82 1190.355 713.859 1190.07 713.914 1189.77 713.98V713.156C1190.711 712.824 1191.684 712.484 1192.676 712.137 1193.672 711.785 1194.359 711.535 1194.742 711.387 1195.57 711.07 1196.422 710.715 1197.301 710.316 1197.414 710.316 1197.488 710.355 1197.512 710.441 1197.539 710.523 1197.547 710.699 1197.547 710.965V715.055C1198.617 713.574 1199.645 712.418 1200.637 711.586 1201.629 710.758 1202.656 710.34 1203.723 710.34 1204.574 710.34 1205.266 710.594 1205.801 711.102 1206.332 711.609 1206.602 712.242 1206.602 713.008 1206.602 713.691 1206.398 714.266 1205.988 714.73 1205.582 715.195 1205.07 715.426 1204.457 715.426 1203.824 715.426 1203.188 715.137 1202.547 714.555 1201.91 713.973 1201.406 713.68 1201.039 713.68 1200.457 713.68 1199.742 714.152 1198.895 715.09 1198.047 716.031 1197.621 716.996 1197.621 717.996V729.242C1197.621 730.672 1197.957 731.664 1198.621 732.223 1199.285 732.777 1200.391 733.039 1201.938 733.008V733.828H1189.645ZM1189.645 733.008" fill="#2d2d2d"/>
<path transform="matrix(1,0,0,1,-574.305,-293.67903)" d="M1208.246 710.914H1218.77V711.613C1217.938 711.629 1217.324 711.707 1216.926 711.84 1216.16 712.062 1215.777 712.496 1215.777 713.141 1215.777 713.379 1215.82 713.625 1215.902 713.867 1215.984 714.113 1216.137 714.484 1216.352 714.977L1222.121 727.457 1226.875 714.879C1226.926 714.742 1227.004 714.438 1227.109 713.961 1227.219 713.484 1227.273 713.16 1227.273 712.988 1227.273 712.547 1227.121 712.223 1226.824 712.02 1226.523 711.816 1226.145 711.695 1225.676 711.664L1224.902 711.613V710.914H1231.762V711.613C1231.078 711.695 1230.566 711.938 1230.227 712.332 1229.887 712.727 1229.594 713.277 1229.344 713.98L1221.488 734.777C1220.125 738.367 1218.82 740.969 1217.574 742.582 1216.324 744.191 1214.746 745 1212.836 745 1211.906 745 1211.031 744.77 1210.219 744.301 1209.402 743.836 1208.996 743.098 1208.996 742.082 1208.996 741.418 1209.238 740.875 1209.723 740.449 1210.207 740.023 1210.816 739.812 1211.559 739.812 1211.984 739.812 1212.621 739.973 1213.465 740.285 1214.309 740.602 1214.914 740.762 1215.277 740.762 1216.195 740.762 1217.164 739.633 1218.184 737.375 1219.199 735.117 1219.707 733.629 1219.707 732.902 1219.707 732.758 1219.688 732.574 1219.637 732.363 1219.59 732.148 1219.535 731.961 1219.473 731.797L1211.613 714.805C1211.051 713.574 1210.555 712.766 1210.129 712.371 1209.707 711.98 1209.078 711.727 1208.246 711.613ZM1208.246 710.914" fill="#2d2d2d"/>
</g>
</g>
</g>
</svg>
