<?xml version="1.0" encoding="UTF-8" standalone="no"?>
<svg
   xmlns:dc="http://purl.org/dc/elements/1.1/"
   xmlns:cc="http://creativecommons.org/ns#"
   xmlns:rdf="http://www.w3.org/1999/02/22-rdf-syntax-ns#"
   xmlns:svg="http://www.w3.org/2000/svg"
   xmlns="http://www.w3.org/2000/svg"
   viewBox="0 0 2560 1440"
   height="1440"
   width="2560"
   xml:space="preserve"
   id="svg2"
   version="1.1"><metadata
     id="metadata8"><rdf:RDF><cc:Work
         rdf:about=""><dc:format>image/svg+xml</dc:format><dc:type
           rdf:resource="http://purl.org/dc/dcmitype/StillImage" /></cc:Work></rdf:RDF></metadata><defs
     id="defs6"><clipPath
       id="clipPath26"
       clipPathUnits="userSpaceOnUse"><path
         id="path24"
         d="M 0,1080 H 1920 V 0 H 0 Z" /></clipPath></defs><g
     transform="matrix(1.3333333,0,0,-1.3333333,0,1440)"
     id="g10"><g
       transform="translate(1331,773.605)"
       id="g12"><path
         id="path14"
         style="fill:#025f84;fill-opacity:1;fill-rule:nonzero;stroke:none"
         d="M 0,0 -0.431,0.003 -54.187,0.224 -161.699,0.655 -202.2,0.61 v -2.305 l 40.501,-0.045 107.512,0.431 53.756,0.221 L 0,-1.084 Z" /></g><g
       transform="translate(1114.3682,774.1982)"
       id="g16"><path
         id="path18"
         style="fill:#025f84;fill-opacity:1;fill-rule:nonzero;stroke:none"
         d="M 0,0 -160.092,-0.178 -525.368,-0.89 V -1.382 L -160.092,-2.094 0,-2.272 Z" /></g><g
       id="g20"><g
         clip-path="url(#clipPath26)"
         id="g22"><g
           transform="translate(1023.3701,709.0767)"
           id="g28"><path
             id="path30"
             style="fill:#025f84;fill-opacity:1;fill-rule:nonzero;stroke:none"
             d="m 0,0 c -0.239,0.007 -0.5,0.014 -0.689,0.021 -4.888,0.165 -44.017,0.341 -48.905,0.462 -4.886,0.136 -43.934,0.167 -48.821,0.242 -9.774,0.161 -123.807,0.07 -133.58,0.034 -9.775,-0.096 -123.83,-0.435 -133.604,-0.75 -4.985,-0.148 -37.174,-0.383 -68.771,-0.662 v -2.335 c 31.874,-0.283 64.69,-0.522 69.744,-0.672 9.773,-0.315 123.352,-0.654 133.125,-0.749 9.774,-0.036 123.312,-0.126 133.086,0.035 4.887,0.074 43.989,0.106 48.876,0.242 4.887,0.121 44.01,0.297 48.896,0.462 0.177,0.006 0.423,0.013 0.643,0.019 z" /></g><g
           transform="translate(1331,708.8823)"
           id="g32"><path
             id="path34"
             style="fill:#025f84;fill-opacity:1;fill-rule:nonzero;stroke:none"
             d="M 0,0 C -6.87,0.123 -12.433,0.219 -15.092,0.286 L -39.52,0.501 -63.943,0.642 c -0.703,0.008 -6.309,0.034 -7.011,0.038 -4.185,0.024 -37.64,0.095 -41.824,-0.005 -6.984,-0.175 -62.889,-0.356 -69.872,-0.597 -2.79,-0.097 -25.116,-0.192 -27.905,-0.224 -5.788,-0.078 -35.577,-0.066 -60.941,0.033 v -3.035 c 25.371,0.1 55.187,0.112 60.979,0.033 2.789,-0.031 25.075,-0.128 27.865,-0.224 6.984,-0.241 62.884,-0.421 69.869,-0.597 4.186,-0.101 37.647,-0.028 41.834,-0.004 0.701,0.003 6.303,0.029 7.004,0.037 l 24.355,0.141 24.498,0.216 c 2.67,0.067 8.232,0.163 15.092,0.283 z" /></g><g
           transform="translate(1331,752.0542)"
           id="g36"><path
             id="path38"
             style="fill:#025f84;fill-opacity:1;fill-rule:nonzero;stroke:none"
             d="m 0,0 c -2.831,0.035 -4.771,0.06 -5.317,0.074 l -23.816,0.136 -23.81,0.112 c -0.234,0.002 -6.599,0.03 -6.833,0.031 -1.395,0.007 -39.376,0.139 -40.772,0.105 -2.328,-0.058 -65.806,0.061 -68.135,-0.019 -0.93,-0.032 -26.278,-0.084 -27.209,-0.095 -0.724,-0.01 -5.694,-0.018 -13.001,-0.025 v -2.495 c 7.331,-0.007 12.324,-0.016 13.049,-0.026 0.93,-0.01 26.231,-0.063 27.16,-0.094 2.329,-0.08 65.801,0.039 68.129,-0.02 1.396,-0.033 39.385,0.098 40.781,0.107 0.233,10e-4 6.594,0.027 6.828,0.03 l 23.725,0.112 23.904,0.136 c 0.548,0.014 2.489,0.039 5.317,0.074 z" /></g><g
           transform="translate(1102.3975,752.3623)"
           id="g40"><path
             id="path42"
             style="fill:#025f84;fill-opacity:1;fill-rule:nonzero;stroke:none"
             d="m 0,0 c -26.818,-0.006 -60.629,0.012 -62.616,0.087 -1.629,0.055 -46.062,0.079 -47.691,0.12 -1.629,0.044 -45.959,0.021 -47.589,0.045 -3.257,0.054 -136.838,-0.163 -140.096,-0.175 -3.258,-0.032 -136.868,-0.331 -140.126,-0.436 -1.71,-0.051 -39.418,-0.184 -75.279,-0.329 v -1.093 c 36.174,-0.148 74.758,-0.283 76.495,-0.335 3.257,-0.105 136.27,-0.404 139.528,-0.435 3.258,-0.012 136.221,-0.227 139.478,-0.174 1.63,0.025 46.028,0 47.657,0.045 1.629,0.041 46.052,0.065 47.682,0.12 1.986,0.075 35.75,0.093 62.557,0.086 z" /></g><g
           transform="translate(1331,730.4771)"
           id="g44"><path
             id="path46"
             style="fill:#025f84;fill-opacity:1;fill-rule:nonzero;stroke:none"
             d="m 0,0 c -4.975,0.076 -8.727,0.134 -10.204,0.171 l -24.122,0.176 -24.117,0.126 c -0.468,0.006 -6.454,0.032 -6.922,0.035 -2.79,0.015 -38.508,0.117 -41.298,0.05 -4.655,-0.117 -64.348,-0.147 -69.004,-0.308 -1.859,-0.064 -25.696,-0.139 -27.557,-0.159 -2.234,-0.03 -13.524,-0.045 -27.658,-0.041 v -2.677 c 14.153,0.004 25.465,-0.01 27.702,-0.04 1.86,-0.021 25.653,-0.095 27.512,-0.159 4.656,-0.161 64.343,-0.192 68.999,-0.309 2.791,-0.067 38.517,0.035 41.308,0.051 0.466,0.003 6.448,0.029 6.915,0.034 l 24.041,0.126 24.201,0.177 C -8.721,-2.71 -4.967,-2.652 0,-2.578 Z" /></g><g
           transform="translate(1076.0557,730.5508)"
           id="g48"><path
             id="path50"
             style="fill:#025f84;fill-opacity:1;fill-rule:nonzero;stroke:none"
             d="m 0,0 c -21.309,0.034 -41.733,0.106 -44.825,0.223 -3.258,0.11 -45.039,0.21 -48.297,0.29 -3.258,0.091 -44.947,0.094 -48.205,0.144 -6.516,0.108 -130.322,-0.047 -136.839,-0.071 -6.516,-0.063 -130.349,-0.382 -136.864,-0.592 -3.374,-0.1 -38.288,-0.286 -72.026,-0.5 v -1.706 c 34.036,-0.217 69.698,-0.406 73.119,-0.507 6.516,-0.21 129.812,-0.529 136.328,-0.593 6.516,-0.023 129.766,-0.176 136.282,-0.068 3.258,0.049 45.008,0.053 48.266,0.143 3.258,0.081 45.032,0.18 48.29,0.29 3.088,0.116 23.482,0.189 44.771,0.223 z" /></g><g
           transform="translate(958.71,688.1396)"
           id="g52"><path
             id="path54"
             style="fill:#025f84;fill-opacity:1;fill-rule:nonzero;stroke:none"
             d="m 0,0 c -12.514,0.118 -38.16,0.174 -43.529,0.254 -13.032,0.216 -117.29,0.188 -130.322,0.14 -13.032,-0.127 -117.31,-0.487 -130.341,-0.907 -6.536,-0.194 -36.079,-0.477 -65.518,-0.817 v -2.979 c 29.692,-0.345 59.75,-0.632 66.368,-0.829 13.032,-0.42 116.893,-0.778 129.924,-0.906 13.032,-0.048 116.857,-0.075 129.889,0.141 5.362,0.08 30.988,0.136 43.529,0.254 z" /></g><g
           transform="translate(1331,687.2705)"
           id="g56"><path
             id="path58"
             style="fill:#025f84;fill-opacity:1;fill-rule:nonzero;stroke:none"
             d="m 0,0 c -8.59,0.177 -15.934,0.315 -19.979,0.417 l -24.733,0.256 -24.731,0.155 c -0.937,0.011 -6.164,0.036 -7.101,0.041 -5.579,0.032 -36.769,0.074 -42.349,-0.059 -9.312,-0.235 -61.429,-0.566 -70.741,-0.887 -3.72,-0.128 -24.533,-0.246 -28.253,-0.288 -13.032,-0.177 -85.952,0.026 -98.983,0.516 -2.666,0.09 -10.352,0.185 -18.946,0.278 V -4.34 c 8.611,0.093 16.316,0.188 18.987,0.278 13.032,0.491 85.943,0.694 98.975,0.517 3.719,-0.043 24.498,-0.161 28.216,-0.289 9.314,-0.321 61.427,-0.652 70.741,-0.886 5.582,-0.134 36.779,-0.092 42.361,-0.06 0.933,0.005 6.157,0.03 7.091,0.041 l 24.671,0.155 24.795,0.257 c 4.06,0.101 11.402,0.24 19.979,0.413 z" /></g><g
           transform="translate(900.8262,667.041)"
           id="g60"><path
             id="path62"
             style="fill:#025f84;fill-opacity:1;fill-rule:nonzero;stroke:none"
             d="m 0,0 c -24.653,0.22 -107.339,0.247 -122.482,0.19 -16.29,-0.158 -110.79,-0.538 -127.08,-1.063 -8.013,-0.238 -35,-0.565 -62.264,-0.963 v -3.642 c 27.49,-0.403 54.887,-0.735 62.993,-0.976 16.289,-0.525 110.432,-0.903 126.722,-1.063 15.142,-0.056 97.497,-0.028 122.111,0.191 z" /></g><g
           transform="translate(1331,665.6431)"
           id="g64"><path
             id="path66"
             style="fill:#025f84;fill-opacity:1;fill-rule:nonzero;stroke:none"
             d="m 0,0 c -10.169,0.238 -19.256,0.423 -24.865,0.564 l -25.04,0.296 -25.038,0.17 c -1.17,0.013 -6.019,0.038 -7.19,0.045 -6.974,0.039 -35.901,0.051 -42.875,-0.116 -11.639,-0.292 -59.971,-0.773 -71.61,-1.175 -4.651,-0.16 -23.951,-0.301 -28.601,-0.353 -16.29,-0.222 -83.912,0.059 -100.202,0.672 -7.2,0.243 -34.461,0.527 -46.316,0.73 v -6.196 c 11.832,0.202 39.143,0.488 46.352,0.731 16.289,0.613 83.905,0.893 100.195,0.672 4.648,-0.053 23.919,-0.194 28.568,-0.354 11.641,-0.401 59.969,-0.882 71.61,-1.175 6.977,-0.167 35.911,-0.155 42.888,-0.115 1.168,0.006 6.012,0.031 7.179,0.044 l 24.987,0.17 25.093,0.297 c 5.626,0.141 14.712,0.326 24.865,0.559 z" /></g><g
           transform="translate(1331,644.001)"
           id="g68"><path
             id="path70"
             style="fill:#025f84;fill-opacity:1;fill-rule:nonzero;stroke:none"
             d="m 0,0 c -11.637,0.307 -22.415,0.542 -29.752,0.726 l -25.347,0.335 -25.344,0.186 c -1.405,0.015 -5.874,0.04 -7.279,0.047 -8.37,0.047 -35.032,0.03 -43.401,-0.17 -13.968,-0.352 -58.511,-0.982 -72.479,-1.464 -5.58,-0.193 -23.37,-0.355 -28.95,-0.418 -19.547,-0.266 -81.872,0.091 -101.419,0.827 -9.485,0.32 -39.064,0.71 -49.742,0.953 v -7.165 c 10.649,0.245 40.276,0.635 49.772,0.955 19.547,0.736 81.866,1.093 101.414,0.827 5.578,-0.063 23.341,-0.226 28.921,-0.417 13.968,-0.482 58.51,-1.114 72.479,-1.465 8.373,-0.2 35.043,-0.217 43.416,-0.17 1.4,0.007 5.865,0.031 7.267,0.048 l 25.301,0.184 25.391,0.336 c 7.356,0.185 18.131,0.42 29.752,0.721 z" /></g><g
           transform="translate(860.5215,645.8257)"
           id="g72"><path
             id="path74"
             style="fill:#025f84;fill-opacity:1;fill-rule:nonzero;stroke:none"
             d="m 0,0 c -32.509,0.124 -75.479,0.153 -88.693,0.104 -19.548,-0.191 -104.271,-0.59 -123.819,-1.221 -9.403,-0.279 -33.932,-0.648 -59.009,-1.097 v -4.328 c 25.27,-0.456 50.115,-0.829 59.617,-1.111 19.548,-0.63 103.972,-1.03 123.52,-1.22 13.203,-0.049 55.976,-0.02 88.384,0.104 z" /></g><g
           transform="translate(910.8135,623.9185)"
           id="g76"><path
             id="path78"
             style="fill:#025f84;fill-opacity:1;fill-rule:nonzero;stroke:none"
             d="m 0,0 c -9.739,0.094 -19.385,0.172 -24.954,0.256 -5.089,0.084 -12.783,0.157 -21.905,0.22 v -9.78 c 9.116,0.063 16.81,0.136 21.905,0.221 C -19.387,-9 -9.741,-8.922 0,-8.828 Z" /></g><g
           transform="translate(821.9824,624.585)"
           id="g80"><path
             id="path82"
             style="fill:#025f84;fill-opacity:1;fill-rule:nonzero;stroke:none"
             d="m 0,0 c -23.203,0.068 -45.827,0.083 -56.669,0.042 -22.806,-0.222 -97.752,-0.642 -120.558,-1.377 -10.691,-0.317 -32.874,-0.723 -55.755,-1.218 v -5.041 c 23.039,-0.502 45.453,-0.912 56.241,-1.233 22.805,-0.735 97.513,-1.154 120.319,-1.377 10.821,-0.04 33.324,-0.025 56.422,0.043 z" /></g><g
           transform="translate(1331,622.3428)"
           id="g84"><path
             id="path86"
             style="fill:#025f84;fill-opacity:1;fill-rule:nonzero;stroke:none"
             d="m 0,0 c -13.015,0.383 -25.427,0.673 -34.639,0.904 l -25.653,0.375 -25.651,0.2 c -1.639,0.019 -5.73,0.042 -7.369,0.052 -9.763,0.054 -34.163,0.007 -43.926,-0.227 -16.296,-0.409 -57.052,-1.191 -73.348,-1.753 -6.51,-0.224 -22.787,-0.409 -29.298,-0.482 -22.804,-0.31 -79.832,0.124 -102.637,0.982 -5.923,0.2 -16.461,0.426 -26.823,0.636 v -7.051 c 10.369,0.211 20.919,0.436 26.846,0.636 22.806,0.859 79.828,1.293 102.634,0.982 6.509,-0.072 22.764,-0.257 29.273,-0.482 16.297,-0.562 57.053,-1.343 73.35,-1.753 9.768,-0.233 34.175,-0.281 43.943,-0.226 1.634,0.009 5.719,0.033 7.354,0.052 l 25.617,0.199 25.688,0.376 C -25.408,-6.349 -13,-6.059 0,-5.681 Z" /></g><g
           transform="translate(1331,600.6719)"
           id="g88"><path
             id="path90"
             style="fill:#025f84;fill-opacity:1;fill-rule:nonzero;stroke:none"
             d="M 0,0 C -14.333,0.467 -28.293,0.813 -39.526,1.095 L -65.485,1.51 -91.443,1.725 c -1.872,0.021 -5.584,0.044 -7.457,0.054 -11.16,0.063 -33.294,-0.014 -44.454,-0.281 -18.624,-0.469 -55.592,-1.399 -74.215,-2.042 -7.441,-0.257 -22.206,-0.464 -29.647,-0.547 -14.931,-0.203 -38.284,-0.122 -60.412,0.169 v -4.365 c 22.132,0.292 45.491,0.373 60.427,0.17 7.438,-0.084 22.187,-0.291 29.625,-0.547 18.626,-0.642 55.595,-1.574 74.221,-2.042 11.164,-0.267 33.305,-0.344 44.469,-0.282 1.868,0.011 5.574,0.034 7.442,0.055 l 25.932,0.215 25.986,0.416 c 11.252,0.281 25.206,0.628 39.526,1.09 z" /></g><g
           transform="translate(787.6914,603.3354)"
           id="g92"><path
             id="path94"
             style="fill:#025f84;fill-opacity:1;fill-rule:nonzero;stroke:none"
             d="m 0,0 c -11.513,0.019 -21.697,0.018 -28.894,-0.01 -26.063,-0.254 -91.232,-0.694 -117.296,-1.534 -11.853,-0.352 -31.818,-0.791 -52.501,-1.325 v -5.786 c 20.803,-0.539 40.924,-0.983 52.866,-1.337 26.063,-0.841 91.054,-1.279 117.117,-1.534 7.165,-0.027 17.278,-0.029 28.708,-0.009 z" /></g><g
           transform="translate(903.6299,602.4453)"
           id="g96"><path
             id="path98"
             style="fill:#025f84;fill-opacity:1;fill-rule:nonzero;stroke:none"
             d="m 0,0 c -10.24,0.122 -20.672,0.219 -27.544,0.322 -7.993,0.133 -19.671,0.245 -32.763,0.335 v -11.07 c 13.085,0.091 24.761,0.204 32.763,0.335 6.869,0.104 17.302,0.202 27.544,0.323 z" /></g><g
           transform="translate(765.7979,582.0464)"
           id="g100"><path
             id="path102"
             style="fill:#025f84;fill-opacity:1;fill-rule:nonzero;stroke:none"
             d="m 0,0 c -4.906,0 -9.466,-0.007 -13.516,-0.022 -29.321,-0.287 -84.713,-0.747 -114.035,-1.692 -12.859,-0.381 -30.748,-0.848 -49.247,-1.413 v -6.569 c 18.577,-0.569 36.56,-1.038 49.49,-1.422 29.322,-0.945 84.595,-1.404 113.916,-1.691 4.017,-0.014 8.535,-0.022 13.392,-0.023 z" /></g><g
           transform="translate(922.7891,580.4331)"
           id="g104"><path
             id="path106"
             style="fill:#025f84;fill-opacity:1;fill-rule:nonzero;stroke:none"
             d="m 0,0 c -1.367,0.035 -2.702,0.069 -3.955,0.1 -14.66,0.406 -37.861,0.607 -52.523,0.828 -4.426,0.073 -9.456,0.142 -14.892,0.205 v -11.871 c 5.434,0.064 10.463,0.132 14.892,0.205 14.662,0.222 37.876,0.422 52.537,0.829 1.249,0.031 2.579,0.064 3.941,0.099 z" /></g><g
           transform="translate(1331,578.9858)"
           id="g108"><path
             id="path110"
             style="fill:#025f84;fill-opacity:1;fill-rule:nonzero;stroke:none"
             d="m 0,0 c -15.601,0.558 -31.026,0.964 -44.413,1.3 l -26.266,0.455 -26.264,0.23 c -2.107,0.023 -5.44,0.046 -7.546,0.058 -12.555,0.07 -32.426,-0.037 -44.98,-0.336 -20.951,-0.528 -54.133,-1.609 -75.085,-2.332 -8.37,-0.289 -21.623,-0.517 -29.994,-0.612 -0.126,-0.002 -0.265,-0.002 -0.392,-0.004 v -4.228 c 0.13,-0.002 0.273,-0.003 0.402,-0.005 8.368,-0.093 21.61,-0.323 29.977,-0.611 20.955,-0.723 54.137,-1.804 75.091,-2.331 12.559,-0.301 32.438,-0.408 44.996,-0.337 2.102,0.012 5.429,0.035 7.531,0.058 l 26.247,0.23 26.283,0.455 c 13.4,0.336 28.821,0.743 44.413,1.298 z" /></g><g
           transform="translate(958.7119,557.5059)"
           id="g112"><path
             id="path114"
             style="fill:#025f84;fill-opacity:1;fill-rule:nonzero;stroke:none"
             d="m 0,0 c -15.549,0.525 -34.076,1.152 -49.035,1.522 -16.289,0.452 -36.849,0.68 -53.139,0.927 -8.367,0.138 -17.601,0.264 -27.246,0.372 v -13.266 c 9.643,0.109 18.876,0.235 27.246,0.372 16.29,0.247 36.857,0.475 53.146,0.927 14.957,0.37 33.481,0.997 49.028,1.522 z" /></g><g
           transform="translate(732.9463,560.5937)"
           id="g116"><path
             id="path118"
             style="fill:#025f84;fill-opacity:1;fill-rule:nonzero;stroke:none"
             d="m 0,0 c -30.994,-0.319 -69.459,-0.801 -97.953,-1.719 -13.672,-0.406 -29.652,-0.894 -45.993,-1.48 v -7.397 c 16.38,-0.587 32.4,-1.077 46.115,-1.484 28.475,-0.918 66.859,-1.399 97.831,-1.719 z" /></g><g
           transform="translate(1331,557.2827)"
           id="g120"><path
             id="path122"
             style="fill:#025f84;fill-opacity:1;fill-rule:nonzero;stroke:none"
             d="m 0,0 c -16.838,0.659 -33.635,1.13 -49.3,1.522 l -26.572,0.496 -26.571,0.244 c -2.341,0.027 -5.295,0.049 -7.636,0.062 -13.948,0.078 -31.556,-0.059 -45.505,-0.392 -8.606,-0.216 -18.05,-0.522 -27.71,-0.861 v -9.32 c 9.66,-0.339 19.104,-0.644 27.709,-0.86 13.955,-0.334 31.569,-0.47 45.524,-0.392 2.335,0.013 5.283,0.035 7.618,0.062 l 26.562,0.243 26.581,0.495 c 15.673,0.393 32.467,0.865 49.3,1.522 z" /></g><g
           transform="translate(987.8975,534.6514)"
           id="g124"><path
             id="path126"
             style="fill:#025f84;fill-opacity:1;fill-rule:nonzero;stroke:none"
             d="m 0,0 c -11.207,0.284 -22.414,0.617 -33.621,1.039 -17.919,0.605 -35.838,1.39 -53.756,1.833 -17.919,0.497 -35.838,0.754 -53.757,1.024 -13.657,0.227 -27.315,0.412 -40.972,0.565 v -14.71 c 13.657,0.153 27.315,0.338 40.972,0.564 17.919,0.271 35.838,0.528 53.757,1.024 17.918,0.444 35.837,1.228 53.756,1.833 11.207,0.422 22.414,0.756 33.621,1.04 z" /></g><g
           transform="translate(676.6426,538.5371)"
           id="g128"><path
             id="path130"
             style="fill:#025f84;fill-opacity:1;fill-rule:nonzero;stroke:none"
             d="m 0,0 c -14.968,-0.29 -29.936,-0.64 -44.903,-1.122 -14.246,-0.423 -28.493,-0.948 -42.74,-1.541 v -8.233 c 14.247,-0.594 28.494,-1.119 42.74,-1.542 14.967,-0.482 29.935,-0.832 44.903,-1.123 z" /></g><g
           transform="translate(1331,535.5723)"
           id="g132"><path
             id="path134"
             style="fill:#025f84;fill-opacity:1;fill-rule:nonzero;stroke:none"
             d="m 0,0 c -18.062,0.768 -36.125,1.301 -54.187,1.753 l -26.877,0.535 -6.265,0.061 V -9.979 l 6.265,0.061 26.877,0.534 c 18.062,0.453 36.125,0.987 54.187,1.753 z" /></g><g
           transform="translate(637.5342,418.2344)"
           id="g136"><path
             id="path138"
             style="fill:#2d2d2d;fill-opacity:1;fill-rule:nonzero;stroke:none"
             d="M 0,0 C 0,0 4.353,-3.411 6.977,-5.875 6.798,-6.57 6.142,-6.886 5.247,-6.886 h -53.305 l -0.476,1.832 h 22.776 v 52.819 l 8.288,-0.948 c -0.119,-0.884 -0.596,-1.516 -2.146,-1.769 V 24.262 h 11.448 l 3.815,4.991 c 0,0 4.175,-3.348 6.739,-5.813 C 2.207,22.746 1.61,22.43 0.776,22.43 H -19.616 V -5.054 h 15.86 z" /></g><g
           transform="translate(705.4326,446.2871)"
           id="g140"><path
             id="path142"
             style="fill:#2d2d2d;fill-opacity:1;fill-rule:nonzero;stroke:none"
             d="m 0,0 c 11.806,-3.222 8.228,-11.562 4.054,-8.466 -0.597,2.59 -2.862,6.002 -4.651,8.024 z m -0.954,-13.899 c 12.163,-3.602 8.108,-12.384 3.934,-8.973 -0.476,2.844 -2.682,6.445 -4.471,8.53 z m -2.684,15.92 c -0.417,-3.538 -1.013,-8.086 -1.669,-12.825 h 18.245 c 0.179,3.791 0.298,7.961 0.417,12.825 z m 15.325,-27.483 c 0.476,3.033 0.894,7.329 1.132,12.826 H -5.545 c -0.656,-4.613 -1.372,-9.224 -2.028,-12.826 z m 6.379,12.826 c -0.239,-5.307 -0.596,-9.541 -1.013,-12.826 h 0.357 l 2.565,4.108 c 0,0 2.921,-2.908 4.59,-4.929 -0.179,-0.696 -0.715,-1.011 -1.55,-1.011 h -6.202 c -0.714,-4.297 -1.609,-6.823 -2.862,-8.214 -1.788,-2.021 -4.293,-2.653 -7.035,-2.717 0,1.644 -0.179,2.844 -0.895,3.602 -0.834,0.885 -2.564,1.517 -4.59,1.959 v 1.011 c 2.026,-0.19 5.128,-0.443 6.319,-0.443 1.015,0 1.491,0.19 2.088,0.822 0.597,0.569 1.073,1.895 1.55,3.98 H -7.274 l -2.266,-2.653 -5.366,3.664 c 0.536,0.442 1.371,1.011 2.145,1.389 0.657,3.16 1.313,7.645 1.969,12.258 h -6.439 l -0.478,1.832 h 7.155 c 0.715,4.992 1.252,10.046 1.669,14.216 -2.027,-2.654 -4.293,-5.055 -6.738,-6.95 l -0.714,0.568 c 4.233,5.623 7.93,15.416 9.48,23.44 l 7.99,-2.527 C 0.895,17.248 0.417,16.932 -1.073,17.185 -1.729,15.479 -2.564,13.836 -3.458,12.067 h 19.139 l 3.219,4.549 c 0,0 3.698,-3.095 5.844,-5.37 -0.119,-0.695 -0.775,-1.011 -1.61,-1.011 H -4.412 C -5.188,8.908 -6.022,7.518 -6.857,6.318 L -2.146,3.854 H 12.76 l 2.98,3.285 5.366,-4.865 C 20.63,1.706 19.854,1.327 18.543,1.137 18.424,-3.349 18.305,-7.266 18.185,-10.804 h 0.418 l 2.682,4.423 c 0,0 2.983,-3.096 4.652,-5.244 -0.12,-0.695 -0.716,-1.011 -1.551,-1.011 z m -44.361,32.601 c 14.787,-1.769 10.613,-12.889 5.127,-9.161 -0.774,3.159 -3.339,6.571 -5.603,8.656 z m 12.58,-10.488 c -2.206,-7.834 -6.201,-22.493 -6.915,-25.778 -0.418,-2.085 -0.836,-4.232 -0.776,-5.876 0.059,-3.095 2.146,-5.749 1.908,-11.119 -0.06,-2.97 -1.609,-4.865 -4.114,-4.865 -1.252,0 -2.325,1.011 -2.623,3.159 1.013,6.508 0.715,12.067 -0.657,13.016 -0.834,0.632 -1.728,0.883 -2.98,1.01 v 1.263 h 2.623 c 0.775,0 1.014,0.064 1.609,1.327 1.133,2.338 1.133,2.338 10.912,28.179 z M -30.35,5.37 c 13.953,-1.264 9.838,-11.941 4.651,-8.466 -0.715,2.907 -3.101,6.128 -5.127,7.961 z" /></g><g
           transform="translate(791.3369,464.6729)"
           id="g144"><path
             id="path146"
             style="fill:#2d2d2d;fill-opacity:1;fill-rule:nonzero;stroke:none"
             d="m 0,0 c -0.119,-0.885 -0.596,-1.517 -2.146,-1.77 1.312,-23.819 6.797,-39.234 27.308,-48.143 l -0.119,-0.694 c -2.922,-0.569 -4.89,-2.465 -5.664,-5.75 -15.503,8.844 -20.333,23.629 -21.942,43.341 -1.074,-15.795 -5.367,-32.032 -27.309,-43.531 l -0.715,0.947 c 22.657,16.365 22.239,36.772 22.3,56.484 z" /></g><g
           transform="translate(895.1885,420.1309)"
           id="g148"><path
             id="path150"
             style="fill:#2d2d2d;fill-opacity:1;fill-rule:nonzero;stroke:none"
             d="M 0,0 C 0,0 4.353,-3.412 6.917,-5.876 6.738,-6.571 6.142,-6.888 5.247,-6.888 h -53.305 l -0.537,1.832 h 24.448 v 40.12 h -19.975 l -0.478,1.832 h 37.087 l 3.757,5.119 c 0,0 4.234,-3.476 6.916,-5.94 C 2.981,35.38 2.325,35.064 1.432,35.064 h -19.439 v -40.12 h 14.192 z" /></g><path
           id="path152"
           style="fill:#2d2d2d;fill-opacity:1;fill-rule:nonzero;stroke:none"
           d="m 977.268,458.165 h -10.195 v -14.911 h 10.195 z m 7.93,0.253 c -0.418,-0.506 -1.312,-1.011 -2.444,-1.264 v -18.322 c -0.06,-0.442 -2.803,-1.58 -4.592,-1.58 h -0.894 v 4.17 h -10.196 v -3.411 c 0,-0.506 -2.266,-1.896 -4.532,-1.896 h -0.834 v 26.409 l 5.664,-2.527 h 9.301 l 2.743,3.096 z m -15.383,-36.519 h -22.837 v -7.961 h 22.837 z m -22.836,1.832 h 22.837 v 7.519 h -22.837 z m 25.042,12.51 5.784,-4.675 c -0.358,-0.505 -1.193,-1.074 -2.326,-1.263 v -20.344 c -0.06,-0.443 -2.862,-1.58 -4.71,-1.58 h -0.954 v 3.727 h -22.836 v -2.085 c 0,-0.568 -2.385,-1.895 -4.771,-1.895 h -0.835 v 27.61 l 6.023,-2.654 h 21.882 z m -23.791,12.447 c -0.238,-1.074 -0.536,-2.084 -0.834,-3.096 14.19,-1.832 12.103,-12.068 6.916,-9.666 -1.312,2.779 -4.591,6.064 -7.512,8.276 -2.266,-4.928 -6.619,-8.846 -15.444,-11.814 l -0.655,0.947 c 8.287,4.17 11.209,9.161 12.282,15.353 h -11.686 l -0.477,1.833 h 12.402 c 0.238,2.273 0.298,4.674 0.358,7.265 h -3.22 c -1.848,-2.78 -4.054,-4.992 -6.499,-6.634 l -0.775,0.632 c 2.266,3.664 4.174,9.224 5.127,14.973 l 7.275,-2.274 c -0.239,-0.758 -0.954,-1.327 -2.266,-1.327 -0.536,-1.263 -1.133,-2.401 -1.729,-3.538 h 9.54 l 3.101,4.17 c 0,0 3.516,-2.843 5.545,-4.991 -0.12,-0.694 -0.776,-1.011 -1.551,-1.011 h -8.943 c -0.121,-2.591 -0.239,-4.992 -0.597,-7.265 h 3.458 l 3.16,4.169 c 0,0 3.398,-2.842 5.546,-4.991 -0.179,-0.695 -0.716,-1.011 -1.551,-1.011 z" /><g
           transform="translate(1071.2598,415.3281)"
           id="g154"><path
             id="path156"
             style="fill:#2d2d2d;fill-opacity:1;fill-rule:nonzero;stroke:none"
             d="m 0,0 c 1.608,-0.632 2.086,-1.326 2.086,-2.464 0,-2.464 -2.385,-3.538 -11.567,-3.538 h -5.843 c -5.366,0 -6.499,1.264 -6.499,5.434 v 22.429 l 7.453,-0.758 c -0.06,-0.758 -0.656,-1.39 -1.849,-1.58 V 9.92 c 4.293,2.717 8.944,6.634 11.27,9.351 L 1.49,14.532 C 0.953,13.9 -0.06,13.71 -1.79,14.153 -5.188,12.258 -10.793,9.856 -16.219,8.341 V 0.759 c 0,-1.012 0.298,-1.327 2.147,-1.327 h 5.068 c 2.087,0 3.875,0 4.531,0.063 0.657,0.064 1.014,0.252 1.372,0.759 0.537,0.947 1.371,3.853 2.205,7.075 h 0.716 z m -15.682,23.819 c -5.247,0 -6.32,1.138 -6.32,5.244 v 21.608 l 7.393,-0.758 c -0.06,-0.758 -0.656,-1.391 -1.848,-1.579 V 38.92 c 4.174,2.464 8.943,6.191 11.269,8.655 L 0.895,42.774 C 0.356,42.142 -0.716,42.079 -2.326,42.521 -5.725,40.878 -11.271,38.793 -16.457,37.466 V 30.39 c 0,-0.948 0.238,-1.2 2.146,-1.2 h 4.83 c 2.027,0 3.697,0 4.412,0.063 0.596,0 1.014,0.189 1.312,0.695 0.536,0.822 1.312,3.475 2.147,6.444 h 0.714 l 0.18,-6.697 c 1.611,-0.632 2.027,-1.263 2.027,-2.401 0,-2.464 -2.325,-3.475 -11.269,-3.475 z M -33.51,17.628 h -10.256 v -6.823 h 10.256 z m -10.256,1.832 h 10.256 v 6.381 h -10.256 z m 12.284,11.372 5.962,-4.738 c -0.358,-0.506 -1.251,-1.073 -2.504,-1.264 V 0.316 c 0,-4.232 -0.776,-6.697 -6.857,-7.329 -0.12,1.896 -0.358,3.285 -0.954,4.234 -0.716,0.884 -1.729,1.642 -3.816,1.959 v 0.947 c 0,0 3.935,-0.315 5.068,-0.315 0.894,0 1.073,0.315 1.073,1.136 V 8.973 H -43.766 V -5.181 c 0,-0.631 -2.146,-1.958 -4.412,-1.958 h -0.835 v 37.277 l 5.546,-2.465 h 9.361 z m -3.041,13.774 c 15.025,-4.991 10.314,-16.743 5.247,-12.447 -0.12,1.264 -0.478,2.591 -1.014,3.917 -4.412,-1.2 -11.269,-2.906 -19.021,-4.485 -0.418,-0.506 -0.834,-0.885 -1.252,-1.074 l -2.564,6.633 c 0,0 1.134,0.253 1.67,0.569 3.577,2.717 8.348,10.235 9.838,14.216 l 7.513,-3.096 c -0.239,-0.632 -0.954,-1.137 -2.147,-1.074 -2.921,-3.412 -7.87,-7.771 -12.224,-10.804 4.473,0.063 10.913,0.253 17.65,0.505 -1.133,2.528 -2.802,4.865 -4.353,6.635 z" /></g><g
           transform="translate(1127.2324,466.8213)"
           id="g158"><path
             id="path160"
             style="fill:#2d2d2d;fill-opacity:1;fill-rule:nonzero;stroke:none"
             d="m 0,0 c 14.965,-1.391 9.54,-13.647 3.756,-9.099 -0.239,3.16 -2.088,6.634 -4.293,8.656 z m -9.958,-15.102 c 15.145,-1.641 11.389,-12.445 6.021,-9.223 -1.073,2.97 -4.113,6.697 -6.498,8.719 z m -4.592,-9.665 c 16.218,-1.769 12.403,-13.584 6.56,-10.046 -1.073,3.285 -4.353,7.266 -7.036,9.603 z m 0.597,12.509 c 0.238,-4.359 -1.312,-7.392 -3.339,-8.655 -1.849,-1.264 -4.711,-0.822 -5.485,1.516 -0.596,2.148 0.595,3.791 2.444,4.739 2.146,1.2 4.592,4.296 4.412,7.834 h 0.835 c 0.417,-1.264 0.716,-2.464 0.895,-3.601 h 37.564 l 3.219,3.538 5.783,-5.876 c -0.477,-0.506 -1.133,-0.633 -2.265,-0.695 -1.848,-2.211 -5.128,-5.244 -7.631,-7.013 l -0.597,0.442 c 0.597,2.148 1.371,5.244 1.848,7.771 z m 38.876,-19.901 c 0,0 4.113,-3.539 6.558,-5.94 -0.119,-0.694 -0.775,-1.01 -1.669,-1.01 H 7.93 c -0.418,-1.075 -0.776,-2.085 -1.313,-3.096 27.368,-4.991 23.553,-19.08 17.292,-15.669 -2.505,3.854 -9.123,10.046 -17.948,14.531 -4.173,-6.76 -12.342,-11.814 -28.679,-15.478 l -0.477,1.01 c 15.383,4.866 22.121,10.804 25.043,18.702 h -22.777 l -0.477,1.832 h 23.85 c 1.908,6.381 1.729,14.026 1.729,23.187 l 8.288,-0.821 c -0.119,-0.885 -0.656,-1.517 -2.087,-1.706 -0.179,-7.961 -0.179,-14.848 -1.908,-20.66 h 12.879 z" /></g><g
           transform="translate(1222.4971,438.0732)"
           id="g162"><path
             id="path164"
             style="fill:#2d2d2d;fill-opacity:1;fill-rule:nonzero;stroke:none"
             d="m 0,0 c 11.269,-11.183 6.678,-22.365 2.325,-17.501 0.119,5.497 -1.609,12.384 -3.22,17.249 z m 9.421,7.961 c 0,0 2.922,-2.527 4.71,-4.423 C 14.012,2.843 13.415,2.527 12.581,2.527 H -6.916 L -7.394,4.36 H 6.797 Z m 7.87,-29.063 c 0,0 3.578,-2.969 5.784,-5.118 -0.179,-0.695 -0.775,-1.01 -1.61,-1.01 h -33.927 l -0.476,1.832 H 6.917 c 1.967,6.886 4.293,17.311 5.724,25.904 l 7.752,-2.653 c -0.299,-0.759 -0.955,-1.264 -2.267,-1.201 -2.683,-7.708 -6.082,-15.922 -9.719,-22.05 h 5.664 z M -13.535,3.917 c 6.38,6.508 11.865,17.249 13.953,24.894 L 8.228,26.6 C 7.99,25.904 7.334,25.462 5.724,25.336 L 5.426,24.767 C 8.646,17.122 16.1,11.057 22.955,7.898 L 22.837,7.203 C 20.63,6.318 19.14,4.802 18.782,2.717 12.462,7.14 7.513,14.721 4.651,23.124 0.775,16.048 -5.307,8.15 -12.879,3.286 Z m 5.187,-6.002 c 11.328,-11.246 6.738,-22.555 2.385,-17.627 0.18,5.497 -1.609,12.51 -3.219,17.375 -0.418,-0.443 -1.133,-0.759 -2.266,-0.948 -0.536,-15.48 -1.849,-22.177 -4.353,-24.577 -1.55,-1.517 -3.637,-2.211 -5.844,-2.211 0,1.515 -0.178,2.843 -0.834,3.474 -0.715,0.758 -2.146,1.264 -3.816,1.643 v 1.012 c 1.67,-0.127 4.294,-0.317 5.366,-0.317 0.895,0 1.372,0.126 1.849,0.569 1.49,1.453 2.504,7.961 3.041,21.102 h -8.407 l -2.028,-2.464 -4.829,3.538 c 0.596,0.442 1.371,0.948 2.206,1.328 0.656,4.927 1.371,13.14 1.491,17.184 l 6.5,-1.517 c -0.24,-0.758 -0.777,-1.453 -2.207,-1.453 -0.298,-3.854 -0.835,-10.361 -1.431,-14.784 h 5.485 c 0.895,7.266 1.551,16.427 1.849,22.556 h -13.059 l -0.536,1.832 h 13.058 l 2.206,2.906 5.485,-4.486 c -0.417,-0.569 -1.371,-1.011 -2.623,-1.137 -0.179,-4.486 -0.716,-12.383 -1.252,-18.891 l 0.119,0.126 4.89,-4.421 -0.06,-0.064 z m -9.42,-8.466 c -2.266,-1.832 -5.724,-4.549 -10.614,-7.961 -0.238,-0.821 -0.715,-1.389 -1.311,-1.642 l -2.982,6.886 c 2.624,0.443 8.706,1.896 14.728,3.475 z" /></g><g
           transform="translate(1283.2998,436.4307)"
           id="g166"><path
             id="path168"
             style="fill:#2d2d2d;fill-opacity:1;fill-rule:nonzero;stroke:none"
             d="M 0,0 C 0,0 1.252,0.189 1.849,0.506 6.32,2.401 12.164,7.771 15.145,11.372 H 1.49 L 1.014,13.205 H 30.23 l 3.219,4.043 c 0,0 3.638,-2.779 5.904,-4.864 -0.12,-0.696 -0.775,-1.012 -1.55,-1.012 H 18.544 l 4.65,-2.59 C 22.896,8.214 22.121,7.771 20.868,8.024 17.352,5.371 11.389,2.021 5.903,-0.252 12.521,-0.189 22.657,0.063 33.331,0.506 31.482,2.844 29.396,4.991 27.606,6.57 l 0.596,0.506 C 46.03,2.844 43.169,-9.287 37.326,-6.002 36.67,-4.359 35.596,-2.59 34.344,-0.821 27.13,-2.085 16.636,-3.728 4.293,-5.244 3.816,-6.128 3.22,-6.697 2.624,-6.949 Z m 1.67,20.092 c 0.238,-4.234 -1.252,-7.14 -3.16,-8.466 -1.67,-1.201 -4.174,-0.948 -4.89,1.011 -0.655,1.832 0.418,3.411 1.908,4.232 2.206,1.2 4.353,4.612 4.174,8.277 l 0.895,0.063 C 1.014,24.072 1.252,22.935 1.431,21.924 H 20.75 c -0.537,0.063 -1.073,0.315 -1.61,0.694 -0.417,2.717 -2.385,5.75 -4.412,7.393 l 0.477,0.442 c 11.328,-0.127 10.434,-7.835 6.678,-8.529 h 17.231 l 3.101,3.348 5.485,-5.623 c -0.476,-0.505 -1.073,-0.695 -2.265,-0.757 -1.492,-1.959 -3.936,-4.676 -5.963,-6.193 l -0.656,0.379 c 0.298,1.896 0.656,4.739 0.834,7.014 z m 39.352,-39.236 c 0,0 3.996,-3.221 6.499,-5.496 -0.178,-0.695 -0.775,-1.011 -1.669,-1.011 H -6.38 l -0.536,1.832 h 24.088 v 9.414 h -17.41 l -0.478,1.833 h 17.888 v 8.97 l 7.989,-0.694 c -0.058,-0.948 -0.536,-1.516 -2.026,-1.769 v -6.507 h 8.884 l 3.399,4.422 c 0,0 3.815,-3.033 6.261,-5.245 -0.18,-0.694 -0.777,-1.01 -1.611,-1.01 H 23.135 v -9.414 h 14.309 z" /></g><g
           transform="translate(691.4629,356.4443)"
           id="g170"><path
             id="path172"
             style="fill:#2d2d2d;fill-opacity:1;fill-rule:nonzero;stroke:none"
             d="m 0,0 c 0.862,-2.294 1.875,-4.123 3.037,-5.486 2.025,-2.377 4.539,-3.565 7.544,-3.565 1.627,0 3.033,0.515 4.22,1.546 1.187,1.029 1.78,2.468 1.78,4.314 0,1.661 -0.597,3.107 -1.792,4.338 C 14.01,1.929 12.367,3.101 9.862,4.663 L 5.507,7.381 c -1.312,0.83 -2.358,1.67 -3.139,2.518 -1.446,1.612 -2.169,3.391 -2.169,5.336 0,2.577 0.856,4.721 2.568,6.433 1.712,1.713 3.982,2.569 6.808,2.569 1.163,0 2.564,-0.287 4.201,-0.86 1.637,-0.574 2.572,-0.86 2.805,-0.86 0.632,0 1.068,0.148 1.309,0.448 0.242,0.299 0.428,0.723 0.561,1.272 h 1.048 L 20.62,13.365 h -1.221 c -0.832,3.275 -2.165,5.561 -4.002,6.857 -1.836,1.298 -3.653,1.945 -5.449,1.945 -1.396,0 -2.613,-0.411 -3.652,-1.234 -1.039,-0.823 -1.559,-1.966 -1.559,-3.429 0,-1.313 0.399,-2.436 1.195,-3.365 0.796,-0.949 2.033,-1.937 3.71,-2.968 l 4.486,-2.769 c 2.806,-1.728 4.786,-3.316 5.937,-4.762 1.135,-1.463 1.703,-3.192 1.703,-5.186 0,-2.677 -1.01,-4.913 -3.03,-6.708 -2.02,-1.796 -4.6,-2.692 -7.743,-2.692 -1.579,0 -3.228,0.299 -4.949,0.896 -1.72,0.6 -2.705,0.899 -2.954,0.899 -0.599,0 -1.002,-0.183 -1.21,-0.549 -0.208,-0.365 -0.345,-0.756 -0.411,-1.172 H 0.349 L -1.172,0 Z" /></g><g
           transform="translate(718.1445,346.8691)"
           id="g174"><path
             id="path176"
             style="fill:#2d2d2d;fill-opacity:1;fill-rule:nonzero;stroke:none"
             d="M 0,0 C 1.363,0.183 2.257,0.52 2.68,1.01 3.104,1.5 3.316,2.66 3.316,4.488 v 23.938 c 0,0.931 -0.121,1.617 -0.362,2.056 -0.24,0.442 -0.826,0.662 -1.758,0.662 -0.182,0 -0.361,-0.012 -0.535,-0.038 C 0.486,31.081 0.291,31.052 0.075,31.02 v 0.897 c 0.731,0.216 1.632,0.478 2.704,0.785 1.073,0.308 1.817,0.528 2.233,0.661 l 2.393,0.748 0.051,-0.174 V 18.626 c 1.046,1.197 1.978,2.079 2.792,2.644 1.462,0.998 3.042,1.496 4.737,1.496 2.694,0 4.531,-1.131 5.511,-3.391 0.531,-1.198 0.798,-2.769 0.798,-4.714 V 4.488 c 0,-1.762 0.203,-2.909 0.61,-3.441 C 22.312,0.516 23.147,0.166 24.411,0 V -0.698 H 13.614 V 0 c 1.447,0.199 2.378,0.54 2.793,1.022 0.415,0.483 0.623,1.638 0.623,3.466 v 10.1 c 0,1.611 -0.27,2.917 -0.81,3.914 -0.54,0.997 -1.558,1.496 -3.055,1.496 -1.296,0 -2.552,-0.466 -3.765,-1.396 C 8.187,17.67 7.58,17.063 7.58,16.781 V 4.488 C 7.58,2.626 7.796,1.462 8.229,0.998 8.66,0.532 9.583,0.199 10.996,0 V -0.698 H 0 Z" /></g><g
           transform="translate(758.9893,359.9844)"
           id="g178"><path
             id="path180"
             style="fill:#2d2d2d;fill-opacity:1;fill-rule:nonzero;stroke:none"
             d="m 0,0 c -1.912,-0.631 -3.49,-1.329 -4.737,-2.094 -2.395,-1.479 -3.591,-3.159 -3.591,-5.037 0,-1.513 0.499,-2.627 1.496,-3.342 0.648,-0.465 1.371,-0.698 2.169,-0.698 1.098,0 2.148,0.308 3.154,0.924 C -0.504,-9.633 0,-8.852 0,-7.903 Z m -9.151,-2.817 c 1.529,0.998 4.579,2.352 9.151,4.064 v 2.12 c 0,1.695 -0.166,2.876 -0.499,3.54 -0.564,1.114 -1.737,1.671 -3.516,1.671 -0.848,0 -1.654,-0.217 -2.419,-0.648 -0.764,-0.45 -1.147,-1.064 -1.147,-1.845 0,-0.199 0.042,-0.537 0.126,-1.01 0.083,-0.473 0.124,-0.777 0.124,-0.911 0,-0.93 -0.308,-1.579 -0.922,-1.944 -0.35,-0.216 -0.765,-0.324 -1.247,-0.324 -0.748,0 -1.322,0.245 -1.721,0.735 -0.399,0.49 -0.598,1.035 -0.598,1.634 0,1.163 0.718,2.381 2.157,3.653 1.437,1.271 3.545,1.907 6.32,1.907 3.225,0 5.411,-1.047 6.559,-3.142 C 3.831,5.536 4.139,3.865 4.139,1.672 v -9.999 c 0,-0.965 0.066,-1.63 0.2,-1.995 0.215,-0.649 0.664,-0.973 1.346,-0.973 0.382,0 0.698,0.059 0.948,0.175 0.249,0.116 0.681,0.398 1.296,0.848 v -1.297 c -0.532,-0.648 -1.106,-1.181 -1.721,-1.596 -0.931,-0.632 -1.878,-0.947 -2.842,-0.947 -1.13,0 -1.949,0.365 -2.456,1.096 -0.507,0.732 -0.785,1.605 -0.836,2.619 -1.263,-1.097 -2.344,-1.912 -3.241,-2.444 -1.513,-0.897 -2.95,-1.347 -4.314,-1.347 -1.429,0 -2.667,0.502 -3.715,1.509 -1.047,1.005 -1.571,2.282 -1.571,3.827 0,2.411 1.204,4.422 3.616,6.035" /></g><g
           transform="translate(769.0635,346.8691)"
           id="g182"><path
             id="path184"
             style="fill:#2d2d2d;fill-opacity:1;fill-rule:nonzero;stroke:none"
             d="m 0,0 c 1.181,0.149 2.008,0.444 2.481,0.885 0.475,0.44 0.711,1.426 0.711,2.955 v 12.667 c 0,1.055 -0.099,1.798 -0.299,2.226 -0.316,0.627 -0.964,0.941 -1.945,0.941 -0.149,0 -0.303,-0.009 -0.462,-0.025 C 0.329,19.632 0.134,19.606 -0.1,19.574 v 0.873 c 0.682,0.199 2.295,0.714 4.838,1.546 l 2.344,0.773 c 0.115,0 0.187,-0.042 0.212,-0.125 0.025,-0.083 0.038,-0.2 0.038,-0.349 v -3.666 c 1.526,1.43 2.721,2.411 3.584,2.942 1.294,0.815 2.638,1.223 4.031,1.223 1.129,0 2.157,-0.324 3.086,-0.973 1.792,-1.263 2.689,-3.515 2.689,-6.757 V 3.416 c 0,-1.197 0.238,-2.062 0.716,-2.593 C 21.917,0.29 22.717,0.016 23.839,0 V -0.698 H 13.191 V 0 c 1.213,0.166 2.061,0.502 2.543,1.01 0.482,0.507 0.724,1.608 0.724,3.304 v 10.647 c 0,1.43 -0.265,2.613 -0.794,3.554 -0.529,0.938 -1.505,1.408 -2.926,1.408 -0.975,0 -1.967,-0.333 -2.975,-0.997 C 9.201,18.543 8.474,17.912 7.58,17.031 V 3.067 c 0,-1.197 0.267,-2 0.799,-2.406 C 8.91,0.253 9.75,0.033 10.897,0 V -0.698 H 0 Z" /></g><g
           transform="translate(810.084,355.7959)"
           id="g186"><path
             id="path188"
             style="fill:#2d2d2d;fill-opacity:1;fill-rule:nonzero;stroke:none"
             d="m 0,0 c 0.997,0.798 1.495,2.186 1.495,4.164 0,1.579 -0.403,3.358 -1.209,5.336 -0.807,1.978 -2.148,2.968 -4.027,2.968 -1.63,0 -2.751,-0.773 -3.365,-2.32 -0.318,-0.814 -0.475,-1.82 -0.475,-3.016 0,-2.028 0.49,-3.849 1.472,-5.462 0.98,-1.611 2.252,-2.419 3.814,-2.419 0.915,0 1.679,0.25 2.295,0.749 m -7.918,-17.13 c 1.571,-0.532 3.371,-0.798 5.399,-0.798 2.759,0 5.003,0.477 6.732,1.433 1.729,0.956 2.594,2.132 2.594,3.529 0,1.113 -0.7,1.854 -2.1,2.22 -0.866,0.216 -2.507,0.34 -4.921,0.373 -0.617,0.018 -1.265,0.038 -1.949,0.062 -0.684,0.025 -1.308,0.055 -1.874,0.087 -0.367,0.017 -0.958,0.084 -1.774,0.201 -0.816,0.116 -1.424,0.215 -1.824,0.298 -0.2,0 -0.685,-0.523 -1.457,-1.571 -0.788,-1.063 -1.181,-2.044 -1.181,-2.941 0,-1.398 0.785,-2.362 2.355,-2.893 m -2.643,18.552 c -0.839,1.279 -1.259,2.718 -1.259,4.312 0,1.946 0.773,3.79 2.319,5.537 1.546,1.745 3.731,2.618 6.558,2.618 1.214,0 2.551,-0.287 4.014,-0.861 1.463,-0.574 2.867,-0.859 4.214,-0.859 0.35,0 0.877,0.012 1.584,0.037 0.706,0.024 1.217,0.037 1.533,0.037 h 0.299 v -2.02 H 4.388 C 4.687,9.524 4.919,8.918 5.086,8.403 5.368,7.438 5.511,6.524 5.511,5.661 5.511,3.766 4.724,2.023 3.153,0.437 c -1.57,-1.588 -3.686,-2.382 -6.345,-2.382 -0.415,0 -1.164,0.075 -2.245,0.224 -0.482,0 -1.122,-0.407 -1.919,-1.221 -0.798,-0.816 -1.197,-1.48 -1.197,-1.995 0,-0.532 0.582,-0.922 1.748,-1.172 0.766,-0.166 1.614,-0.249 2.547,-0.249 4.279,0 7.184,-0.242 8.716,-0.724 2.514,-0.781 3.771,-2.46 3.771,-5.037 0,-2.626 -1.469,-4.72 -4.402,-6.282 -2.934,-1.563 -5.897,-2.344 -8.889,-2.344 -2.726,0 -4.888,0.552 -6.484,1.658 -1.596,1.105 -2.393,2.265 -2.393,3.478 0,0.598 0.21,1.184 0.633,1.758 0.422,0.573 1.254,1.425 2.495,2.555 l 1.64,1.472 0.298,0.299 c -0.759,0.298 -1.328,0.589 -1.707,0.873 -0.66,0.514 -0.99,1.104 -0.99,1.769 0,0.616 0.287,1.293 0.859,2.032 0.574,0.741 1.8,1.942 3.679,3.604 -1.513,0.498 -2.689,1.389 -3.529,2.669" /></g><g
           transform="translate(821.9053,346.8691)"
           id="g190"><path
             id="path192"
             style="fill:#2d2d2d;fill-opacity:1;fill-rule:nonzero;stroke:none"
             d="M 0,0 C 1.363,0.183 2.257,0.52 2.68,1.01 3.104,1.5 3.316,2.66 3.316,4.488 v 23.938 c 0,0.931 -0.122,1.617 -0.362,2.056 -0.241,0.442 -0.827,0.662 -1.758,0.662 -0.182,0 -0.361,-0.012 -0.536,-0.038 C 0.486,31.081 0.291,31.052 0.074,31.02 v 0.897 c 0.732,0.216 1.633,0.478 2.705,0.785 1.073,0.308 1.817,0.528 2.233,0.661 l 2.393,0.748 0.05,-0.174 V 18.626 c 1.047,1.197 1.979,2.079 2.793,2.644 1.462,0.998 3.041,1.496 4.737,1.496 2.694,0 4.531,-1.131 5.511,-3.391 0.531,-1.198 0.798,-2.769 0.798,-4.714 V 4.488 c 0,-1.762 0.203,-2.909 0.61,-3.441 C 22.312,0.516 23.147,0.166 24.411,0 V -0.698 H 13.614 V 0 c 1.447,0.199 2.377,0.54 2.793,1.022 0.415,0.483 0.623,1.638 0.623,3.466 v 10.1 c 0,1.611 -0.27,2.917 -0.81,3.914 -0.54,0.997 -1.558,1.496 -3.055,1.496 -1.296,0 -2.552,-0.466 -3.766,-1.396 C 8.187,17.67 7.58,17.063 7.58,16.781 V 4.488 C 7.58,2.626 7.796,1.462 8.228,0.998 8.66,0.532 9.582,0.199 10.996,0 V -0.698 H 0 Z" /></g><g
           transform="translate(862.749,359.9844)"
           id="g194"><path
             id="path196"
             style="fill:#2d2d2d;fill-opacity:1;fill-rule:nonzero;stroke:none"
             d="m 0,0 c -1.911,-0.631 -3.49,-1.329 -4.737,-2.094 -2.394,-1.479 -3.591,-3.159 -3.591,-5.037 0,-1.513 0.5,-2.627 1.497,-3.342 0.648,-0.465 1.371,-0.698 2.169,-0.698 1.098,0 2.147,0.308 3.154,0.924 C -0.503,-9.633 0,-8.852 0,-7.903 Z m -9.15,-2.817 c 1.529,0.998 4.579,2.352 9.15,4.064 v 2.12 C 0,5.062 -0.165,6.243 -0.498,6.907 -1.063,8.021 -2.235,8.578 -4.014,8.578 -4.862,8.578 -5.668,8.361 -6.433,7.93 -7.197,7.48 -7.58,6.866 -7.58,6.085 -7.58,5.886 -7.538,5.548 -7.455,5.075 -7.372,4.602 -7.33,4.298 -7.33,4.164 -7.33,3.234 -7.638,2.585 -8.253,2.22 -8.602,2.004 -9.018,1.896 -9.5,1.896 c -0.747,0 -1.321,0.245 -1.72,0.735 -0.399,0.49 -0.598,1.035 -0.598,1.634 0,1.163 0.718,2.381 2.157,3.653 1.437,1.271 3.544,1.907 6.32,1.907 3.225,0 5.411,-1.047 6.558,-3.142 C 3.832,5.536 4.14,3.865 4.14,1.672 v -9.999 c 0,-0.965 0.066,-1.63 0.2,-1.995 0.215,-0.649 0.664,-0.973 1.346,-0.973 0.382,0 0.698,0.059 0.948,0.175 0.249,0.116 0.681,0.398 1.296,0.848 v -1.297 c -0.533,-0.648 -1.106,-1.181 -1.721,-1.596 -0.931,-0.632 -1.878,-0.947 -2.842,-0.947 -1.131,0 -1.949,0.365 -2.456,1.096 -0.508,0.732 -0.785,1.605 -0.836,2.619 -1.263,-1.097 -2.344,-1.912 -3.241,-2.444 -1.513,-0.897 -2.951,-1.347 -4.314,-1.347 -1.43,0 -2.667,0.502 -3.715,1.509 -1.047,1.005 -1.571,2.282 -1.571,3.827 0,2.411 1.204,4.422 3.616,6.035" /></g><g
           transform="translate(876.8643,380.2109)"
           id="g198"><path
             id="path200"
             style="fill:#2d2d2d;fill-opacity:1;fill-rule:nonzero;stroke:none"
             d="M 0,0 C 0.499,0.513 1.113,0.77 1.846,0.77 2.56,0.77 3.17,0.517 3.678,0.013 4.185,-0.492 4.437,-1.108 4.437,-1.836 4.437,-2.548 4.185,-3.156 3.678,-3.66 3.17,-4.165 2.56,-4.417 1.846,-4.417 1.113,-4.417 0.499,-4.165 0,-3.66 c -0.499,0.504 -0.748,1.112 -0.748,1.824 0,0.711 0.249,1.322 0.748,1.836 m -3.965,-33.342 c 1.778,0.166 2.901,0.47 3.365,0.91 0.466,0.441 0.7,1.633 0.7,3.578 v 11.894 c 0,1.081 -0.076,1.829 -0.225,2.244 -0.249,0.682 -0.773,1.024 -1.571,1.024 -0.183,0 -0.362,-0.018 -0.535,-0.051 -0.175,-0.033 -0.678,-0.166 -1.509,-0.399 v 0.773 l 1.071,0.349 c 2.909,0.948 4.938,1.663 6.085,2.145 0.466,0.199 0.765,0.299 0.897,0.299 0.033,-0.116 0.05,-0.241 0.05,-0.374 v -17.904 c 0,-1.894 0.229,-3.083 0.687,-3.565 0.456,-0.482 1.491,-0.79 3.103,-0.923 V -34.04 H -3.965 Z" /></g><g
           transform="translate(934.9463,359.2861)"
           id="g202"><path
             id="path204"
             style="fill:#2d2d2d;fill-opacity:1;fill-rule:nonzero;stroke:none"
             d="M 0,0 -5.852,14.064 -11.731,0 Z m -21.993,-13.115 v 0.948 c 1.313,0.147 2.298,0.641 2.955,1.481 0.657,0.84 1.782,3.138 3.377,6.895 L -5.023,21.27 h 1.017 L 8.718,-7.68 c 0.846,-1.918 1.524,-3.104 2.032,-3.558 0.507,-0.454 1.359,-0.764 2.556,-0.929 v -0.948 H 0.319 v 0.948 c 1.493,0.132 2.454,0.293 2.887,0.483 0.431,0.191 0.648,0.659 0.648,1.402 0,0.249 -0.083,0.686 -0.25,1.315 -0.166,0.629 -0.399,1.29 -0.698,1.986 l -2.044,4.913 h -13.459 c -1.326,-3.343 -2.118,-5.381 -2.375,-6.117 -0.258,-0.737 -0.386,-1.32 -0.386,-1.75 0,-0.86 0.347,-1.456 1.045,-1.787 0.432,-0.198 1.245,-0.346 2.44,-0.445 v -0.948 z" /></g><g
           transform="translate(951.0254,347.1191)"
           id="g206"><path
             id="path208"
             style="fill:#2d2d2d;fill-opacity:1;fill-rule:nonzero;stroke:none"
             d="M 0,0 C 2.078,0.147 3.425,0.458 4.04,0.929 4.654,1.4 4.963,2.62 4.963,4.587 v 22.716 c 0,1.878 -0.309,3.088 -0.923,3.628 -0.615,0.541 -1.962,0.86 -4.04,0.96 v 0.948 h 15.111 v -0.948 c -2.078,-0.1 -3.424,-0.419 -4.039,-0.96 -0.616,-0.54 -0.923,-1.75 -0.923,-3.628 V 4.587 C 10.149,2.62 10.456,1.4 11.072,0.929 11.687,0.458 13.033,0.147 15.111,0 V -0.948 H 0 Z" /></g><g
           transform="translate(996.6865,347.1191)"
           id="g210"><path
             id="path212"
             style="fill:#2d2d2d;fill-opacity:1;fill-rule:nonzero;stroke:none"
             d="M 0,0 C 1.878,0.198 3.097,0.532 3.652,1.004 4.21,1.475 4.488,2.669 4.488,4.587 v 22.716 c 0,1.812 -0.274,2.997 -0.822,3.553 C 3.117,31.413 1.895,31.758 0,31.891 v 0.948 h 14.412 v -0.948 c -1.878,-0.1 -3.138,-0.408 -3.777,-0.922 -0.64,-0.515 -0.96,-1.621 -0.96,-3.317 V 3.116 c 0,-0.565 0.095,-1.01 0.287,-1.334 0.191,-0.324 0.612,-0.527 1.261,-0.61 0.382,-0.051 0.786,-0.084 1.211,-0.101 0.423,-0.016 1.218,-0.024 2.383,-0.024 4.544,0 7.616,0.373 9.213,1.122 1.598,0.748 3.146,2.659 4.644,5.734 h 1.299 L 27.476,-0.948 H 0 Z" /></g><g
           transform="translate(1043.0674,359.9844)"
           id="g214"><path
             id="path216"
             style="fill:#2d2d2d;fill-opacity:1;fill-rule:nonzero;stroke:none"
             d="m 0,0 c -1.912,-0.631 -3.49,-1.329 -4.737,-2.094 -2.395,-1.479 -3.591,-3.159 -3.591,-5.037 0,-1.513 0.499,-2.627 1.496,-3.342 0.648,-0.465 1.371,-0.698 2.169,-0.698 1.098,0 2.148,0.308 3.154,0.924 C -0.504,-9.633 0,-8.852 0,-7.903 Z m -9.151,-2.817 c 1.529,0.998 4.579,2.352 9.151,4.064 v 2.12 c 0,1.695 -0.166,2.876 -0.499,3.54 -0.564,1.114 -1.737,1.671 -3.516,1.671 -0.848,0 -1.654,-0.217 -2.419,-0.648 -0.764,-0.45 -1.147,-1.064 -1.147,-1.845 0,-0.199 0.042,-0.537 0.126,-1.01 0.083,-0.473 0.124,-0.777 0.124,-0.911 0,-0.93 -0.308,-1.579 -0.922,-1.944 -0.35,-0.216 -0.765,-0.324 -1.247,-0.324 -0.748,0 -1.322,0.245 -1.721,0.735 -0.399,0.49 -0.598,1.035 -0.598,1.634 0,1.163 0.718,2.381 2.157,3.653 1.437,1.271 3.545,1.907 6.32,1.907 3.225,0 5.411,-1.047 6.559,-3.142 C 3.831,5.536 4.139,3.865 4.139,1.672 v -9.999 c 0,-0.965 0.066,-1.63 0.2,-1.995 0.215,-0.649 0.664,-0.973 1.346,-0.973 0.382,0 0.698,0.059 0.948,0.175 0.249,0.116 0.681,0.398 1.296,0.848 v -1.297 c -0.532,-0.648 -1.106,-1.181 -1.721,-1.596 -0.931,-0.632 -1.878,-0.947 -2.842,-0.947 -1.13,0 -1.949,0.365 -2.456,1.096 -0.507,0.732 -0.785,1.605 -0.836,2.619 -1.263,-1.097 -2.344,-1.912 -3.241,-2.444 -1.513,-0.897 -2.95,-1.347 -4.314,-1.347 -1.429,0 -2.667,0.502 -3.715,1.509 -1.047,1.005 -1.571,2.282 -1.571,3.827 0,2.411 1.204,4.422 3.616,6.035" /></g><g
           transform="translate(1061.8857,347.9785)"
           id="g218"><path
             id="path220"
             style="fill:#2d2d2d;fill-opacity:1;fill-rule:nonzero;stroke:none"
             d="m 0,0 c 1.143,-0.374 2.144,-0.561 3.004,-0.561 2.318,0 4.036,0.872 5.152,2.615 1.118,1.743 1.677,3.85 1.677,6.325 0,2.473 -0.522,4.761 -1.563,6.861 -1.044,2.099 -2.733,3.15 -5.067,3.15 -1.176,0 -2.326,-0.362 -3.451,-1.083 -1.126,-0.724 -1.689,-1.64 -1.689,-2.751 V 1.855 C -1.787,0.991 -1.142,0.373 0,0 m -9.491,29.91 v 0.847 c 1.9,0.432 3.61,0.915 5.128,1.446 1.517,0.532 2.335,0.799 2.452,0.799 0.033,-0.1 0.05,-0.199 0.05,-0.299 V 17.519 c 0.431,0.796 1.078,1.553 1.941,2.267 1.527,1.246 3.286,1.87 5.278,1.87 2.441,0 4.523,-1.031 6.249,-3.092 1.727,-2.061 2.59,-4.738 2.59,-8.029 0,-3.524 -1.123,-6.541 -3.367,-9.051 -2.244,-2.51 -5.195,-3.765 -8.851,-3.765 -1.845,0 -3.658,0.366 -5.436,1.096 -1.779,0.732 -2.669,1.464 -2.669,2.195 v 26.357 c 0,0.963 -0.133,1.65 -0.398,2.057 -0.267,0.407 -0.882,0.61 -1.846,0.61 z" /></g><g
           transform="translate(1087.3086,366.7666)"
           id="g222"><path
             id="path224"
             style="fill:#2d2d2d;fill-opacity:1;fill-rule:nonzero;stroke:none"
             d="m 0,0 c -1.665,-1.512 -2.498,-4.122 -2.498,-7.828 0,-2.96 0.67,-5.719 2.011,-8.279 1.341,-2.56 3.202,-3.84 5.584,-3.84 1.865,0 3.301,0.856 4.309,2.568 1.007,1.712 1.512,3.956 1.512,6.733 0,2.875 -0.642,5.584 -1.924,8.128 C 7.712,0.025 5.854,1.298 3.422,1.298 2.107,1.298 0.966,0.864 0,0 m -3.981,-0.635 c 2.102,2.285 4.808,3.428 8.116,3.428 3.292,0 6.017,-1.08 8.178,-3.24 2.162,-2.162 3.242,-5.037 3.242,-8.628 0,-3.309 -1.047,-6.185 -3.142,-8.628 -2.095,-2.443 -4.804,-3.666 -8.129,-3.666 -3.191,0 -5.892,1.172 -8.103,3.515 -2.211,2.344 -3.317,5.288 -3.317,8.828 0,3.307 1.052,6.105 3.155,8.391" /></g><g
           transform="translate(1105.7568,346.9941)"
           id="g226"><path
             id="path228"
             style="fill:#2d2d2d;fill-opacity:1;fill-rule:nonzero;stroke:none"
             d="m 0,0 c 1.53,0.133 2.544,0.403 3.043,0.811 0.499,0.406 0.748,1.275 0.748,2.605 v 11.246 c 0,1.646 -0.153,2.821 -0.461,3.527 C 3.021,18.896 2.461,19.25 1.646,19.25 1.479,19.25 1.26,19.229 0.985,19.187 0.712,19.146 0.425,19.091 0.126,19.024 v 0.824 c 0.943,0.332 1.913,0.673 2.907,1.023 0.995,0.349 1.683,0.598 2.064,0.747 0.828,0.316 1.681,0.673 2.559,1.072 0.116,0 0.187,-0.041 0.211,-0.125 0.027,-0.083 0.038,-0.257 0.038,-0.522 v -4.091 c 1.068,1.481 2.096,2.636 3.087,3.467 0.993,0.831 2.022,1.247 3.089,1.247 0.851,0 1.542,-0.255 2.075,-0.761 0.533,-0.508 0.801,-1.143 0.801,-1.907 0,-0.683 -0.204,-1.256 -0.611,-1.721 -0.408,-0.465 -0.919,-0.698 -1.533,-0.698 -0.633,0 -1.268,0.291 -1.909,0.873 -0.639,0.581 -1.143,0.873 -1.508,0.873 -0.582,0 -1.296,-0.471 -2.144,-1.41 C 8.404,16.976 7.979,16.008 7.979,15.011 V 3.765 c 0,-1.43 0.334,-2.423 0.999,-2.98 C 9.643,0.229 10.748,-0.034 12.294,0 V -0.823 H 0 Z" /></g><g
           transform="translate(1138.2988,359.9844)"
           id="g230"><path
             id="path232"
             style="fill:#2d2d2d;fill-opacity:1;fill-rule:nonzero;stroke:none"
             d="m 0,0 c -1.911,-0.631 -3.49,-1.329 -4.736,-2.094 -2.395,-1.479 -3.591,-3.159 -3.591,-5.037 0,-1.513 0.499,-2.627 1.496,-3.342 0.648,-0.465 1.371,-0.698 2.169,-0.698 1.098,0 2.148,0.308 3.154,0.924 C -0.503,-9.633 0,-8.852 0,-7.903 Z m -9.15,-2.817 c 1.529,0.998 4.579,2.352 9.15,4.064 v 2.12 C 0,5.062 -0.165,6.243 -0.498,6.907 -1.063,8.021 -2.235,8.578 -4.014,8.578 -4.862,8.578 -5.668,8.361 -6.433,7.93 -7.197,7.48 -7.58,6.866 -7.58,6.085 c 0,-0.199 0.042,-0.537 0.126,-1.01 0.082,-0.473 0.124,-0.777 0.124,-0.911 0,-0.93 -0.308,-1.579 -0.923,-1.944 -0.349,-0.216 -0.764,-0.324 -1.246,-0.324 -0.748,0 -1.322,0.245 -1.721,0.735 -0.399,0.49 -0.598,1.035 -0.598,1.634 0,1.163 0.718,2.381 2.157,3.653 1.437,1.271 3.544,1.907 6.32,1.907 3.225,0 5.411,-1.047 6.559,-3.142 C 3.832,5.536 4.14,3.865 4.14,1.672 v -9.999 c 0,-0.965 0.066,-1.63 0.2,-1.995 0.215,-0.649 0.664,-0.973 1.346,-0.973 0.382,0 0.698,0.059 0.948,0.175 0.249,0.116 0.681,0.398 1.296,0.848 v -1.297 c -0.532,-0.648 -1.106,-1.181 -1.721,-1.596 -0.931,-0.632 -1.878,-0.947 -2.842,-0.947 -1.131,0 -1.949,0.365 -2.456,1.096 -0.507,0.732 -0.785,1.605 -0.836,2.619 -1.263,-1.097 -2.344,-1.912 -3.241,-2.444 -1.513,-0.897 -2.951,-1.347 -4.314,-1.347 -1.429,0 -2.667,0.502 -3.715,1.509 -1.047,1.005 -1.571,2.282 -1.571,3.827 0,2.411 1.204,4.422 3.616,6.035" /></g><g
           transform="translate(1160.4424,369.1611)"
           id="g234"><path
             id="path236"
             style="fill:#2d2d2d;fill-opacity:1;fill-rule:nonzero;stroke:none"
             d="m 0,0 v -1.796 h -5.086 l -0.05,-14.362 c 0,-1.264 0.109,-2.219 0.324,-2.867 0.399,-1.148 1.18,-1.721 2.344,-1.721 0.598,0 1.118,0.142 1.559,0.425 0.44,0.281 0.943,0.73 1.509,1.345 l 0.647,-0.548 -0.548,-0.748 c -0.865,-1.165 -1.779,-1.987 -2.744,-2.468 -0.963,-0.483 -1.894,-0.724 -2.792,-0.724 -1.962,0 -3.291,0.872 -3.989,2.618 -0.383,0.948 -0.573,2.26 -0.573,3.94 v 15.11 h -2.718 c -0.084,0.051 -0.147,0.1 -0.188,0.15 -0.042,0.049 -0.062,0.116 -0.062,0.2 0,0.166 0.037,0.295 0.112,0.386 0.074,0.091 0.312,0.303 0.711,0.635 1.147,0.948 1.974,1.717 2.481,2.307 0.506,0.59 1.7,2.148 3.578,4.676 0.215,0 0.345,-0.017 0.386,-0.05 0.041,-0.033 0.063,-0.158 0.063,-0.374 l 0,-6.134 z" /></g><g
           transform="translate(1171.1953,366.7666)"
           id="g238"><path
             id="path240"
             style="fill:#2d2d2d;fill-opacity:1;fill-rule:nonzero;stroke:none"
             d="m 0,0 c -1.665,-1.512 -2.497,-4.122 -2.497,-7.828 0,-2.96 0.669,-5.719 2.01,-8.279 1.341,-2.56 3.202,-3.84 5.584,-3.84 1.865,0 3.301,0.856 4.309,2.568 1.008,1.712 1.512,3.956 1.512,6.733 0,2.875 -0.642,5.584 -1.924,8.128 C 7.712,0.025 5.854,1.298 3.422,1.298 2.107,1.298 0.966,0.864 0,0 m -3.981,-0.635 c 2.102,2.285 4.808,3.428 8.116,3.428 3.292,0 6.017,-1.08 8.178,-3.24 2.162,-2.162 3.242,-5.037 3.242,-8.628 0,-3.309 -1.047,-6.185 -3.142,-8.628 -2.094,-2.443 -4.804,-3.666 -8.129,-3.666 -3.19,0 -5.892,1.172 -8.103,3.515 -2.211,2.344 -3.317,5.288 -3.317,8.828 0,3.307 1.052,6.105 3.155,8.391" /></g><g
           transform="translate(1189.6436,346.9941)"
           id="g242"><path
             id="path244"
             style="fill:#2d2d2d;fill-opacity:1;fill-rule:nonzero;stroke:none"
             d="m 0,0 c 1.53,0.133 2.544,0.403 3.043,0.811 0.499,0.406 0.748,1.275 0.748,2.605 v 11.246 c 0,1.646 -0.153,2.821 -0.461,3.527 C 3.021,18.896 2.461,19.25 1.646,19.25 1.48,19.25 1.26,19.229 0.985,19.187 0.712,19.146 0.425,19.091 0.126,19.024 v 0.824 c 0.943,0.332 1.913,0.673 2.908,1.023 0.994,0.349 1.682,0.598 2.063,0.747 0.828,0.316 1.681,0.673 2.559,1.072 0.116,0 0.187,-0.041 0.211,-0.125 0.027,-0.083 0.038,-0.257 0.038,-0.522 v -4.091 c 1.068,1.481 2.096,2.636 3.087,3.467 0.993,0.831 2.022,1.247 3.089,1.247 0.851,0 1.542,-0.255 2.075,-0.761 0.533,-0.508 0.801,-1.143 0.801,-1.907 0,-0.683 -0.204,-1.256 -0.611,-1.721 -0.408,-0.465 -0.919,-0.698 -1.533,-0.698 -0.633,0 -1.268,0.291 -1.909,0.873 -0.639,0.581 -1.143,0.873 -1.508,0.873 -0.582,0 -1.296,-0.471 -2.144,-1.41 C 8.404,16.976 7.979,16.008 7.979,15.011 V 3.765 c 0,-1.43 0.334,-2.423 0.999,-2.98 C 9.643,0.229 10.748,-0.034 12.294,0 V -0.823 H 0 Z" /></g><g
           transform="translate(1208.248,369.0859)"
           id="g246"><path
             id="path248"
             style="fill:#2d2d2d;fill-opacity:1;fill-rule:nonzero;stroke:none"
             d="M 0,0 H 10.521 V -0.698 C 9.691,-0.715 9.075,-0.791 8.677,-0.927 7.912,-1.148 7.529,-1.582 7.529,-2.228 c 0,-0.238 0.042,-0.481 0.126,-0.726 0.083,-0.247 0.232,-0.617 0.449,-1.11 l 5.771,-12.479 4.751,12.578 c 0.05,0.137 0.129,0.443 0.237,0.92 0.108,0.476 0.162,0.799 0.162,0.97 0,0.441 -0.15,0.765 -0.449,0.97 -0.299,0.204 -0.681,0.322 -1.147,0.356 l -0.773,0.051 V 0 h 6.858 V -0.698 C 22.831,-0.783 22.32,-1.023 21.979,-1.419 21.64,-1.814 21.345,-2.363 21.095,-3.067 L 13.24,-23.863 c -1.363,-3.59 -2.668,-6.191 -3.915,-7.804 -1.247,-1.612 -2.826,-2.419 -4.737,-2.419 -0.931,0 -1.804,0.232 -2.618,0.698 -0.815,0.466 -1.222,1.206 -1.222,2.219 0,0.666 0.241,1.21 0.727,1.634 0.484,0.424 1.095,0.636 1.834,0.636 0.426,0 1.063,-0.158 1.909,-0.474 0.844,-0.316 1.449,-0.474 1.81,-0.474 0.919,0 1.888,1.128 2.906,3.386 1.018,2.258 1.527,3.747 1.527,4.471 0,0.147 -0.023,0.328 -0.071,0.542 -0.047,0.213 -0.104,0.402 -0.167,0.567 L 3.366,-3.89 C 2.801,-2.659 2.307,-1.85 1.882,-1.458 1.458,-1.068 0.83,-0.814 0,-0.698 Z" /></g></g></g></g></svg>