<svg width="201" height="198" xmlns="http://www.w3.org/2000/svg" xmlns:xlink="http://www.w3.org/1999/xlink" overflow="hidden"><defs><clipPath id="clip0"><rect x="566" y="66" width="201" height="198"/></clipPath></defs><g clip-path="url(#clip0)" transform="translate(-566 -66)"><path d="M135.474 155.121C134.653 155.806 134.468 156.373 134.802 156.835 135.475 157.773 136.859 156.316 137.863 157.518L147.562 169.13C148.58 170.35 146.921 171.405 147.728 172.313 148.105 172.739 148.664 172.703 149.485 172.017L159.664 163.515C160.974 162.421 160.987 161.424 159.337 159.375 158.941 158.884 158.391 158.516 158.019 158.897 157.646 159.281 157.826 159.908 157.626 160.977 157.474 161.779 157.262 162.381 156.347 163.144L153.164 165.802C152.355 166.479 151.146 166.365 150.465 165.548L147.002 161.403 151.419 157.714C152.433 156.866 153.648 158.005 154.264 157.491 154.766 157.072 153.923 155.849 153.115 154.882 152.039 153.594 151.002 152.517 150.502 152.961 149.874 153.517 150.943 154.807 149.749 155.804L145.377 159.457 141.915 155.312C141.233 154.495 141.337 153.285 142.146 152.609L145.742 149.606C146.673 148.828 147.52 148.799 148.306 148.89 149.298 149.005 149.895 149.246 150.343 149.013 150.962 148.69 150.74 148.094 150.389 147.724 148.564 145.788 147.471 145.102 146.261 146.111L135.474 155.121" fill="#DB282A" transform="matrix(1 0 0 -1.00111 566.421 507.147)"/><path d="M97.8736 190.796C46.6364 190.796 4.95224 149.111 4.95224 97.8732 4.95224 46.636 46.6364 4.95267 97.8736 4.95267 149.111 4.95267 190.796 46.636 190.796 97.8732 190.796 149.111 149.111 190.796 97.8736 190.796ZM97.8736 0C43.906 0 0 43.9055 0 97.8732 0 151.842 43.906 195.749 97.8736 195.749 151.842 195.749 195.749 151.842 195.749 97.8732 195.749 43.9055 151.842 0 97.8736 0" fill="#DB282A" transform="matrix(1 0 0 -1.00111 566.421 507.147)"/><path d="M97.8736 158.291C64.5596 158.291 37.4561 131.188 37.4561 97.8732 37.4561 64.5604 64.5596 37.457 97.8736 37.457 131.188 37.457 158.291 64.5604 158.291 97.8732 158.291 131.188 131.188 158.291 97.8736 158.291ZM97.8736 32.5047C61.8287 32.5047 32.5039 61.8287 32.5039 97.8732 32.5039 133.919 61.8287 163.244 97.8736 163.244 133.919 163.244 163.244 133.919 163.244 97.8732 163.244 61.8287 133.919 32.5047 97.8736 32.5047" fill="#DB282A" transform="matrix(1 0 0 -1.00111 566.421 507.147)"/><path d="M169.287 97.9362C167.698 97.8698 168.092 96.2171 167.139 96.0789 166.575 95.9973 166.223 96.4404 166.179 97.5096L165.957 102.858C165.915 103.88 166.168 104.311 166.736 104.272 167.656 104.206 167.506 102.513 169.094 102.578L184.537 103.219C186.124 103.284 185.816 105.028 186.929 105.172 187.509 105.246 187.848 104.756 187.892 103.687L188.113 98.3494C188.157 97.2807 187.816 96.8937 187.273 96.915 186.145 96.959 186.318 98.6427 184.73 98.5762L169.287 97.9362" fill="#DB282A" transform="matrix(1 0 0 -1.00111 566.421 507.147)"/><path d="M184.925 122.49C185.5 120.367 185.349 118.919 185.27 117.839 185.217 117.116 184.994 116.322 185.727 115.874 186.785 115.226 186.289 114.362 185.402 113.873 184.698 113.486 183.047 112.685 181.276 112.138 180.732 111.97 180.134 111.939 179.931 112.53 179.603 113.499 180.979 114.05 182.087 116.24 182.888 117.826 183.145 119.625 182.525 121.651 181.829 123.925 180.377 124.905 178.734 124.095 174.992 122.253 180.628 111.393 172.56 108.988 168.276 107.71 164.632 109.79 163.154 115.233 162.664 117.041 162.734 118.992 162.99 120.537 163.143 121.47 161.989 121.467 161.822 122.249 161.687 122.879 162.363 123.493 163.097 124.049 164.374 125.015 166.291 126.039 167.39 126.461 168.578 126.917 169.204 126.684 169.402 125.968 169.808 124.499 164.88 121.675 165.879 116.418 166.461 113.362 168.058 112.183 170.104 112.735 174.754 113.992 168.506 125.275 176.195 128.177 179.819 129.544 183.589 127.435 184.925 122.49" fill="#DB282A" transform="matrix(1 0 0 -1.00111 566.421 507.147)"/><path d="M183.892 74.4809C184.603 74.5288 185.042 74.9231 185.171 75.6131L187.973 90.4841C188.102 91.1737 187.837 91.7015 187.192 92.0042 186.548 92.3068 184.613 92.8643 183.965 92.9857 183.464 93.0798 182.977 92.9957 182.803 92.4265 182.427 91.1941 185.333 89.4991 185.007 87.7671L184.842 86.8913C184.719 86.2436 184.096 85.8169 183.448 85.9396L168.488 88.7564C166.926 89.0504 167.491 90.703 166.644 90.9794 166.103 91.1552 165.711 90.8844 165.53 89.9193L164.473 84.3068C164.3 83.387 164.556 82.937 165.124 82.9102 165.97 82.8726 166.088 84.6051 167.652 84.3098L182.61 81.493C183.259 81.3716 183.684 80.7472 183.563 80.0991L183.398 79.2224C183.071 77.4903 179.748 76.9682 179.65 75.684 179.604 75.0915 180.029 74.835 180.529 74.7409 181.177 74.6182 183.181 74.4334 183.892 74.4809" fill="#DB282A" transform="matrix(1 0 0 -1.00111 566.421 507.147)"/><path d="M161.299 73.2684C161.728 74.249 162.15 74.3893 162.671 74.1605 163.853 73.6445 162.472 72.4314 163.928 71.7949L169.221 69.4821 180.515 71.0906C180.515 71.0906 181.427 71.2776 181.886 71.516 182.869 72.0268 183.373 72.5333 183.929 72.384 184.473 72.2379 184.546 71.6476 184.355 71.2124L181.614 64.9374C181.352 64.338 180.837 64.1382 180.385 64.4322 179.926 64.7297 180.058 65.5377 179.555 66.1202 179.188 66.5447 178.52 66.4087 178.52 66.4087L170.747 65.3066 175.484 58.7843C175.484 58.7843 175.882 58.2182 176.33 58.289 176.943 58.384 177.611 59.6 178.324 59.5042 178.752 59.4462 179.021 59.0054 178.712 58.2968L176.564 53.3808C176.336 52.86 175.88 52.527 175.436 52.9175 174.98 53.3186 175.13 54.2397 174.692 55.3793 174.388 56.17 174.109 56.5124 174.109 56.5124L167.411 65.3365 162.117 67.6502C160.66 68.2858 160.709 66.4484 159.527 66.9649 159.006 67.1925 158.822 67.5971 159.25 68.5778L161.299 73.2684" fill="#DB282A" transform="matrix(1 0 0 -1.00111 566.421 507.147)"/><path d="M25.4625 103.912C26.4466 103.788 27.3448 104.475 27.47 105.45 27.47 105.45 27.5366 105.969 27.6782 107.078 28.0137 109.694 26.0925 112.847 20.2546 113.594 14.7415 114.301 11.6599 112.432 11.2687 109.381 11.1269 108.271 11.035 107.555 11.035 107.555 10.9102 106.58 11.6067 105.687 12.5905 105.562ZM11.4167 101.213C9.74383 101.427 9.49294 99.6531 8.34729 99.8298 7.86105 99.9041 7.49572 100.364 7.62786 101.397L8.6146 109.107C9.5793 116.64 14.5363 119.139 20.6005 118.363 27.1617 117.523 31.2568 113.105 30.419 106.562L29.4003 98.6095C29.2648 97.548 28.8156 97.253 28.354 97.2742 27.1968 97.3269 27.5517 99.1466 25.9751 99.3479L11.4167 101.213" fill="#DB282A" transform="matrix(1 0 0 -1.00111 566.421 507.147)"/><path d="M9.65142 79.6943C9.52705 80.4276 9.82631 80.948 10.3432 80.989 11.4275 81.0754 11.7139 79.5044 12.9899 79.722 13.9486 79.8857 19.8953 80.9005 23.705 81.5517 26.5999 82.0457 28.8929 83.4543 28.2279 87.3512 27.6756 90.5847 24.8519 91.6682 21.9634 91.1737 19.7805 90.8015 11.659 89.4149 11.4984 89.3873 11.1896 89.3346 10.6477 89.1865 10.3963 88.7416 10.0228 88.0797 9.879 87.2463 9.30725 87.0571 8.77394 86.8813 8.36543 87.2286 8.28554 87.6971L7.48277 92.3967C7.35321 93.1593 7.66846 93.4526 8.14563 93.5056 8.7109 93.5682 9.03045 92.829 9.81466 92.3578 10.1502 92.1557 10.7016 92.2828 11.0436 92.3415 11.548 92.4273 17.8147 93.4979 21.2577 94.0856 25.3394 94.7822 29.9893 93.8536 31.129 87.1789 32.2055 80.8741 28.7569 77.5137 24.1955 76.7351 20.3249 76.0739 14.7159 75.1165 13.8026 74.9598 12.4121 74.7232 12.7662 72.9656 11.748 72.7596 11.2094 72.6504 10.7867 73.0473 10.6567 73.809L9.65142 79.6943" fill="#DB282A" transform="matrix(1 0 0 -1.00111 566.421 507.147)"/><path d="M42.3449 137.329C41.5602 136.436 41.0568 136.433 40.7286 136.852 40.1969 137.529 41.7326 139.056 40.5377 140.105L28.8419 150.373C27.6476 151.421 26.6038 149.408 25.5852 150.147 25.1476 150.465 25.1835 151.053 25.576 151.5L28.0223 154.286C29.2872 155.727 30.134 155.862 31.974 155.615 34.6134 155.263 45.7123 153.952 45.7123 153.952L38.0577 160.673C36.8637 161.721 35.6101 159.963 34.7279 160.561 34.3034 160.849 34.2524 161.382 34.9585 162.187L37.9083 165.547C38.4282 166.138 38.9632 166.17 39.3005 165.708 39.8584 164.943 38.5604 163.653 39.7543 162.605L52.5318 151.388C53.4947 150.542 53.5013 149.643 52.8924 148.889 52.5555 148.471 51.9458 148.186 51.0252 148.29L32.2129 150.837 42.246 142.027C43.4409 140.979 44.5572 142.614 45.3465 142.079 45.7646 141.795 45.7724 141.234 45.0974 140.464L42.3449 137.329" fill="#DB282A" transform="matrix(1 0 0 -1.00111 566.421 507.147)"/><path d="M113.643 167.511C113.377 165.944 115.062 165.751 115.014 164.897 114.982 164.328 114.534 164.066 113.479 164.246L108.146 165.15C107.111 165.326 106.77 165.719 106.905 166.273 107.124 167.172 108.795 166.721 109.062 168.288L111.638 183.481C111.903 185.049 110.209 185.186 110.278 186.168 110.315 186.687 110.802 186.963 111.817 186.791L117.144 185.888C118.178 185.713 118.544 185.325 118.383 184.766 118.091 183.753 116.484 184.271 116.219 182.705L113.643 167.511" fill="#DB282A" transform="matrix(1 0 0 -1.00111 566.421 507.147)"/><path d="M162.346 144.93C162.346 144.93 163.292 143.463 163.881 142.549 165.353 140.262 167.569 139.037 170.185 140.723 172.002 141.893 172.6 143.829 170.588 146.954 169.477 148.678 168.537 148.918 167.479 148.236ZM149.95 142.681C149.371 143.581 149.459 144.059 149.966 144.317 150.679 144.68 151.457 143.297 152.737 144.121L165.59 152.4C166.927 153.261 165.86 154.668 166.874 155.282 167.367 155.581 167.914 155.329 168.493 154.429L173.815 146.167C176.101 142.619 176.09 138.477 172.529 136.389 169.843 134.815 167.076 135.843 165.129 137.253 165.129 137.253 162.063 131.706 161.507 130.661 160.771 129.275 161.708 127.934 160.855 127.269 160.501 126.994 160.002 127.077 159.691 127.559L155.926 133.405C155.7 133.754 155.668 134.374 156.168 134.579 156.814 134.842 157.31 133.972 157.973 134.059 158.487 134.128 158.753 134.594 158.924 134.911 159.114 135.265 162.073 140.671 162.073 140.671L160.215 143.557 155.187 140.318C153.851 139.458 154.9 138.282 154.219 137.715 153.812 137.377 153.302 137.478 152.722 138.378L149.95 142.681" fill="#DB282A" transform="matrix(1 0 0 -1.00111 566.421 507.147)"/><path d="M63.4338 181.064C64.1325 181.318 64.6982 181.115 64.8303 180.614 65.108 179.562 63.6126 179.002 64.053 177.784 64.3847 176.87 66.4402 171.199 67.7564 167.564 68.757 164.804 70.5081 162.913 74.2257 164.26 77.3085 165.378 77.9157 168.232 76.9173 170.987 76.1629 173.07 73.3564 180.815 73.3008 180.968 73.1941 181.263 72.9509 181.771 72.4694 181.938 71.7513 182.189 70.9057 182.182 70.6186 182.712 70.3504 183.205 70.6195 183.668 71.0665 183.83L75.5497 185.454C76.2761 185.717 76.6207 185.46 76.7575 184.999 76.9203 184.454 76.2496 184.008 75.925 183.154 75.7855 182.787 76.0088 182.267 76.1271 181.94 76.3015 181.459 78.4671 175.483 79.6569 172.198 81.0671 168.305 80.9791 163.565 74.6122 161.257 68.5985 159.078 64.6796 161.875 63.1034 166.227 61.7661 169.918 59.8272 175.268 59.5119 176.139 59.0308 177.466 57.3644 176.805 56.981 177.77 56.778 178.281 57.0937 178.767 57.82 179.031L63.4338 181.064" fill="#DB282A" transform="matrix(1 0 0 -1.00111 566.421 507.147)"/><path d="M85.3704 165.336C84.1824 165.29 83.834 165.654 83.9121 166.181 84.0381 167.032 86.2029 166.967 86.1429 168.555L85.5586 184.108C85.4995 185.696 83.3188 185.07 83.156 186.318 83.0855 186.854 83.5377 187.233 84.1323 187.255L87.8379 187.394C89.7531 187.466 90.4332 186.943 91.5196 185.438 93.0781 183.279 99.756 174.318 99.756 174.318L99.3742 184.497C99.3142 186.084 97.1762 185.786 97.004 186.838 96.9214 187.345 97.2738 187.748 98.3435 187.788L102.811 187.956C103.598 187.986 103.989 187.619 103.885 187.056 103.714 186.125 101.885 186.182 101.944 184.593L102.582 167.602C102.63 166.322 101.983 165.699 101.016 165.623 100.482 165.581 99.8553 165.827 99.2974 166.567L88.2131 181.98 88.714 168.637C88.7736 167.049 90.7294 167.362 90.8831 166.42 90.9643 165.923 90.5614 165.53 89.5393 165.491L85.3704 165.336" fill="#DB282A" transform="matrix(1 0 0 -1.00111 566.421 507.147)"/><path d="M70.5867 92.002C69.4345 91.1375 67.9646 90.849 66.5521 90.8024 63.1682 90.365 60.0293 90.5493 56.8553 91.8914 54.3144 93.5929 53.8118 95.8967 53.4343 98.7787 60.3583 99.6973 66.6833 101.207 73.6181 99.6619 73.7061 96.7444 73.1526 93.931 70.5867 92.002ZM55.7969 115.17C58.124 117.014 60.7832 117.384 63.6545 117.476 65.5658 117.291 67.5008 117.273 69.397 116.946 71.0842 116.711 72.4042 115.57 73.0018 114.037 73.8202 111.952 73.8094 110.511 73.6099 108.316 66.5118 108.014 59.8392 107.373 52.7369 107.497 52.7585 110.607 53.3096 113.028 55.7969 115.17ZM133.909 138.644C130.868 138.895 126.221 139.108 123.176 138.841 113.22 138.521 108.786 136.826 98.8552 136.183 97.3792 136.197 96.6882 138.084 97.0549 139.564 97.9902 142.82 99.4286 144.164 99.8449 147.563 100.19 149.476 99.2546 151.431 97.824 152.668 94.9994 154.43 90.5299 152.732 89.9176 149.356 89.1385 146.203 88.5828 144.688 86.8641 141.888 84.3733 137.967 80.9368 134.793 78.0258 131.207 77.3923 130.367 76.567 129.56 76.5027 128.445 76.7057 126.457 78.7021 124.802 80.7087 125.169 84.1496 125.628 87.0886 127.698 89.5825 129.99 90.0734 129.64 90.7143 129.42 91.0697 128.919 88.4295 125.095 84.7615 122.019 82.3951 117.974 81.8332 116.964 81.4735 115.811 80.5943 115.014 80.1642 118.156 79.7838 121.633 76.7342 123.394 71.1532 126.639 60.6822 127.181 53.4943 124.282 51.9264 123.65 50.8589 123.043 49.4792 122.007 47.6716 120.652 46.8484 118.537 46.2504 116.734 44.2791 109.745 43.6188 102.771 44.6327 95.6004 45.3729 89.9391 49.5539 84.9368 54.9194 83.0475 58.1785 81.8876 61.6975 82.361 65.0817 82.4395 69.913 82.5919 74.689 83.6137 78.2336 87.1611 81.1479 90.3658 81.5599 94.8819 81.9977 98.9877 82.1869 102.287 84.8396 104.915 86.0354 107.872 87.099 110.395 88.3742 113.417 89.474 114.327 90.5731 115.237 91.2874 113.851 90.874 113.346 86.1559 103.535 84.9921 90.0208 84.9351 79.282 79.1844 79.6417 73.4911 79.3753 67.7551 79.0536 64.7829 78.8865 60.0388 78.7716 54.5981 77.7412 53.5354 77.5387 50.1757 76.4807 49.1588 75.988 46.3532 74.385 47.6254 70.353 49.8238 68.4331 51.1435 67.2809 56.6666 68.3757 57.681 68.5536 68.846 70.946 74.5699 70.9788 84.597 70.7356 84.7632 65.3089 84.8293 59.4186 86.0354 52.5659 86.5549 49.2991 86.665 45.9416 88.9563 43.323 90.0847 41.9036 92.1263 41.9002 93.7349 42.3168 95.5392 42.9361 95.8699 45.1492 95.9411 46.8074 95.749 49.7957 95.1151 52.2662 94.9238 55.2545 94.5036 59.7305 94.2584 64.2245 94.1866 68.7224 94.0731 75.7324 93.4327 82.7699 94.194 89.7642 94.251 91.4048 94.5463 93.0211 94.6992 94.6496 95.1976 97.8809 95.4536 101.168 96.3575 104.322 97.3075 107.765 98.8233 111.046 99.4814 114.569 99.6946 117.665 97.364 120.173 97.0298 123.169 96.8092 124.55 97.798 125.741 98.8802 126.453 100.631 127.595 102.712 128.011 104.662 128.684 107.48 129.645 110.472 129.584 113.401 129.862 118.791 130.05 121.664 130.832 127.045 130.369 130.342 130.287 133.384 129.802 136.686 129.834 138.448 129.773 139.933 130.702 140.103 132.32 140.321 135.17 137.562 138.342 133.909 138.644" fill="#DB282A" transform="matrix(1 0 0 -1.00111 566.421 507.147)"/><path d="M131.273 117.572C123.545 117.336 117.259 116.895 109.527 117.073 108.975 117.078 108.431 117.313 108.153 117.771 107.875 118.229 107.604 119.015 108.441 119.586 109.695 120.443 111.519 120.227 112.968 120.306 119.756 120.614 125.032 120.75 131.828 120.643 132.494 120.633 133.247 120.646 133.984 120.536 135.084 120.373 135.648 119.336 135.201 118.45 134.756 117.563 132.643 117.671 131.273 117.572ZM140.243 124.498C136.476 126.996 131.729 127.274 127.349 126.95 123.787 126.865 120.222 127.025 116.663 126.847 112.572 126.192 109.523 127.006 105.641 125.267 103.734 124.299 101.837 122.722 101.446 120.514 101.357 118.741 101.425 116.905 102.026 115.218 102.538 113.646 103.852 112.254 105.531 111.995 113.786 111.027 120.794 111.913 129.074 111.59 133.103 111.6 137.542 111.824 140.813 114.475 141.901 115.215 142.179 116.585 142.442 117.784 142.897 120.179 142.343 123.019 140.243 124.498" fill="#DB282A" transform="matrix(1 0 0 -1.00111 566.421 507.147)"/><path d="M133.154 100.018C132.607 99.958 131.573 99.8773 131.09 99.8497 125.151 99.5025 122.759 99.1332 114.245 99.1756 111.983 99.1933 109.564 99.1203 107.842 99.36 107.085 99.4649 106.418 99.7136 106.413 100.218 106.407 100.722 106.743 101.205 107.227 101.394 108.174 101.764 110.133 101.944 112.392 101.99 116.942 101.983 121.482 102.321 126.03 102.396 128.568 102.54 130.942 102.765 133.471 102.422 135.105 102.201 135.177 101.112 134.904 100.772 134.674 100.482 133.859 100.094 133.154 100.018ZM143.129 104.595C142.527 106.426 141.385 107.874 139.087 108.472 135.756 109.34 131.054 109.467 125.559 109.345 121.122 109.246 115.762 109.071 113.155 108.878 110.548 108.685 108.927 108.603 106.968 108.302 104.558 107.932 103.023 106.944 101.846 105.724 101.032 104.882 100.399 103.839 100.008 102.708 99.1255 99.401 99.8536 96.2646 102.564 94.2903 104.057 93.2025 106.193 92.9649 108.092 92.9948 117.852 93.5532 127.665 92.9049 137.397 93.9841 139.727 94.2328 141.777 95.7741 142.915 97.7838 144.058 99.8695 143.84 102.402 143.129 104.595" fill="#DB282A" transform="matrix(1 0 0 -1.00111 566.421 507.147)"/><path d="M131.981 73.9174C129.696 73.6466 125.881 73.1767 123.261 72.9091 123.178 74.6204 123.203 75.6948 123.246 77.4074 126.125 77.6052 130.077 78.5138 132.974 78.1765 132.885 76.5217 132.964 75.3446 131.981 73.9174ZM141.058 89.5877C139.674 90.0674 138.385 89.1213 137.311 88.3673 135.82 87.0437 134.66 84.4735 132.923 84.302 130.35 84.0481 126.367 83.4976 123.532 83.2618 124.277 84.4769 124.981 85.4585 125.831 86.4944 127.336 88.0577 127.805 89.288 127.14 90.3425 126.687 91.0632 125.871 91.3012 124.776 91.2226 118.465 90.7718 111.312 90.7251 104.721 90.1072 102.602 89.9081 102.999 86.0665 104.978 85.2111 107.367 84.1785 111.716 85.2573 114.102 85.224 113.988 84.1155 113.832 83.0377 113.832 82.3346 110.763 81.7197 109.537 81.6834 106.241 81.1251 102.533 80.4505 99.5099 80.1966 98.0313 78.8199 96.797 77.6691 96.3708 76.0786 96.9093 74.5219 97.209 73.6565 99.1302 71.6732 102.027 72.4237 104.168 72.9785 106.167 74.0158 107.562 74.5461 109.745 75.3765 111.806 75.8994 113.749 76.0575 113.974 74.3177 114.021 73.977 114.013 72.2293 110.793 71.7107 108.578 71.0289 105.76 70.2027 103.96 69.606 101.26 68.5558 100.077 67.6558 98.9601 66.8056 97.4512 65.7631 97.2989 64.4533 96.671 61.7039 99.1017 59.0011 100.544 59.1932 102.62 59.4696 105.254 61.1434 106.971 62.1327 109.81 63.7676 112.225 65.0579 115.386 65.2911 115.867 64.1934 116.294 61.4184 116.856 59.9217 117.915 57.0997 119.458 54.3736 121.543 51.5243 122.903 49.6653 125.462 48.5429 127.222 49.5444 129.034 50.5747 128.557 53.823 128.117 55.4592 126.854 59.5646 125.827 59.6367 124.794 63.803 124.713 64.2542 124.025 66.1292 124.042 66.5845 125.306 67.0179 128.554 67.5829 130.403 67.4667 133.793 67.2546 134.92 66.556 137.007 67.2214 138.269 67.6247 138.657 68.4962 138.808 68.9249 140.644 74.154 142.099 78.8674 143.545 84.2182 144.164 86.2457 143.111 88.8402 141.058 89.5877" fill="#DB282A" transform="matrix(1 0 0 -1.00111 566.421 507.147)"/><path d="M27.7378 131.107 20.008 131.594 25.5449 126.188ZM27.2861 124.486C27.2861 124.486 29.7877 122.04 30.4946 121.336 31.6027 120.232 32.294 122.212 33.2303 121.918 33.7899 121.741 33.8395 121.222 33.5977 120.679L31.775 116.59C31.5569 116.102 31.1813 115.81 30.7312 115.992 29.8948 116.334 30.4903 117.772 29.4349 118.841 28.4581 119.831 16.2831 132.075 15.7675 132.599 15.1892 133.184 14.9819 134.028 15.4004 134.949 15.8689 135.978 16.8777 136.196 17.6157 136.172 19.4656 136.108 36.0898 135.187 37.0308 135.158 37.9709 135.129 38.6303 136.202 39.4072 135.916 39.9608 135.712 39.998 135.04 39.7561 134.496L37.2334 128.836C36.9747 128.256 36.0208 128.171 35.8692 129.203 35.7439 130.052 35.5224 130.6 34.4454 130.675 33.8431 130.716 30.1677 130.952 30.1677 130.952L27.2861 124.486" fill="#DB282A" transform="matrix(1 0 0 -1.00111 566.421 507.147)"/><path d="M142.927 176.123C143.825 175.726 144.127 175.256 143.898 174.775 143.548 174.041 142.554 174.448 141.418 173.909 140.816 173.621 140.067 172.711 140.067 172.711 140.067 172.711 129.032 161.366 128.185 160.486 127.327 159.596 126.365 158.925 124.648 159.684 123.013 160.407 122.903 161.865 122.947 162.902 122.99 163.939 123.905 178.886 123.905 178.886 123.905 178.886 124.002 180.111 123.93 180.843 123.785 182.295 122.499 183.188 122.932 184.054 123.179 184.543 123.707 184.629 124.468 184.291L130.313 181.706C131.127 181.344 131.324 180.936 131.114 180.432 130.839 179.769 129.673 179.835 129.123 179.422 128.62 179.042 128.436 177.746 128.436 177.746L127.593 164.139 137.307 174.186C137.307 174.186 137.988 174.93 137.987 175.509 137.987 176.489 136.657 177.074 137.099 177.882 137.315 178.277 137.809 178.388 138.434 178.112L142.927 176.123" fill="#DB282A" transform="matrix(1 0 0 -1.00111 566.421 507.147)"/><path d="M39.2452 62.7917C39.6836 61.8157 39.5527 61.2694 39.0181 61.076 38.1406 60.7578 37.5814 62.4501 36.1322 61.7989L22.2794 55.5784C20.8298 54.9271 21.7285 53.332 20.6752 52.8543 20.1933 52.6354 19.6777 52.7836 19.2393 53.7599L13.7603 65.9613C12.9265 67.8182 14.7691 68.7967 15.8438 69.3106 16.629 69.6854 17.3022 69.7429 17.5535 69.1007 17.6891 68.7557 17.4921 68.2751 17.0832 67.3298 16.6315 66.2839 16.445 65.8707 16.9731 64.693L18.7082 60.8308C19.0714 60.0202 20.0288 59.6621 20.8454 60.028L25.918 62.3063 23.8531 66.9053C23.2256 68.3027 21.3925 67.2158 21.0932 68.4409 20.9326 69.0986 22.2035 69.8525 23.1608 70.2827 24.8843 71.0565 26.3896 71.6399 26.7571 70.9745 27.2602 70.0659 25.4815 69.4686 26.1663 67.9442L28.2318 63.3457 34.296 66.0684C35.6511 66.6765 34.6545 68.3687 35.5985 68.7924 36.1041 69.02 36.5934 68.6974 37.0316 67.721L39.2452 62.7917" fill="#DB282A" transform="matrix(1 0 0 -1.00111 566.421 507.147)"/><path d="M55.2868 23.6354C54.5333 22.4124 54.6085 21.4875 55.584 20.4671 56.4913 19.5184 56.8112 18.8451 56.4546 18.3092 56.0244 17.6624 55.2899 17.9676 54.7518 18.2992L46.0215 23.6837C45.0223 24.2996 44.897 24.8471 45.2403 25.3411 45.6536 25.9327 46.7777 25.6572 47.7462 25.4219 49.6951 24.9473 50.1567 25.5764 50.6875 26.4367L56.5798 35.9892C57.6058 37.6539 56.8553 38.2719 56.2213 38.8004 55.7822 39.1662 55.4212 39.4383 54.9781 39.7898 54.5221 40.1512 54.1879 40.7493 54.706 41.2977 55.2442 41.866 56.572 41.27 58.2298 40.8577 60.9542 40.1801 61.9582 40.5779 63.1061 39.9314 64.2168 39.3066 64.323 38.2861 63.8237 37.476L55.2868 23.6354" fill="#DB282A" transform="matrix(1 0 0 -1.00111 566.421 507.147)"/><path d="M84.6683 23.9748C85.1484 26.2709 84.9921 29.1862 82.1359 29.7851 79.4211 30.3534 77.9853 28.211 77.4851 25.4802 77.1073 23.4164 77.5019 20.5245 80.1215 19.9385 82.7932 19.3426 84.0727 21.1359 84.6683 23.9748ZM78.003 17.5738C73.4255 18.5657 70.9943 21.6433 71.9465 26.1867 73.1008 31.6933 78.116 33.0407 82.4732 32.1278 88.1549 30.9381 91.0205 26.2696 89.8618 20.7435 88.2291 12.9506 80.6388 8.82058 73.1833 9.9835 72.3995 10.1053 71.3139 10.4348 71.3787 11.0782 71.4594 11.8827 73.1582 11.937 74.8057 12.4014 79.5856 13.7477 81.4623 15.6449 82.3575 17.7089 81.0905 17.1869 79.3671 17.2775 78.003 17.5738" fill="#DB282A" transform="matrix(1 0 0 -1.00111 566.421 507.147)"/><path d="M134.368 29.7462C135.418 31.4765 136.521 32.5432 137.854 33.5304 141.46 36.2004 145.992 36.7462 148.712 33.0278 152.386 28.0064 149.67 22.773 144.345 19.672 141.058 17.7587 137.603 18.0536 136.094 19.5515 135.144 20.4947 135.454 22.0402 136.654 22.7298 137.686 23.3224 138.721 22.9588 139.695 22.2579 141.306 21.1005 142.477 21.3148 143.539 21.9197 145.77 23.1919 146.297 25.7635 144.085 28.8852 142.445 31.1967 140.223 31.5737 138.033 29.8857 136.215 28.4853 135.484 26.2014 134.477 25.5622 133.744 25.0968 133.203 25.6538 132.843 26.2476L127.911 35.1558C127.656 35.6032 127.792 36.1736 128.222 36.4612L139.483 43.9863C139.935 44.289 140.549 44.0826 140.724 43.5696L141.722 40.8767C141.888 40.3892 141.704 39.8494 141.274 39.5609L132.289 33.5572 134.368 29.7462" fill="#DB282A" transform="matrix(1 0 0 -1.00111 566.421 507.147)"/><path d="M113.945 10.9564C116.485 11.4672 117.196 14.8908 115.978 20.9533 114.761 27.0058 112.766 29.963 110.226 29.4526 107.685 28.9418 106.862 25.4185 108.079 19.3659 109.247 13.5543 111.561 10.478 113.945 10.9564ZM109.704 31.721C115.81 32.9478 120.51 29.3641 121.934 22.2833 123.239 15.7908 121.111 10.072 114.511 8.62928 108.798 7.38259 103.463 10.7997 102.058 18.3545 100.632 26.0256 104.417 30.6574 109.704 31.721" fill="#DB282A" transform="matrix(1 0 0 -1.00111 566.421 507.147)"/><path d="M135.474 400.027C134.653 400.714 134.468 401.28 134.802 401.742 135.475 402.679 136.859 401.222 137.863 402.424L147.562 414.036C148.58 415.256 146.921 416.311 147.728 417.219 148.105 417.645 148.664 417.61 149.485 416.923L159.664 408.422C160.974 407.328 160.987 406.331 159.337 404.281 158.941 403.791 158.391 403.422 158.019 403.803 157.646 404.188 157.826 404.814 157.626 405.883 157.474 406.686 157.262 407.287 156.347 408.051L153.164 410.708C152.355 411.385 151.146 411.271 150.465 410.454L147.002 406.31 151.419 402.621C152.433 401.774 153.648 402.911 154.264 402.397 154.766 401.978 153.923 400.756 153.115 399.788 152.039 398.5 151.002 397.424 150.502 397.867 149.874 398.423 150.943 399.714 149.749 400.71L145.377 404.363 141.915 400.218C141.233 399.401 141.337 398.192 142.146 397.516L145.742 394.512C146.673 393.735 147.52 393.705 148.306 393.797 149.298 393.913 149.895 394.153 150.343 393.919 150.962 393.597 150.74 393.001 150.389 392.63 148.564 390.695 147.471 390.008 146.261 391.017L135.474 400.027" fill="#293D9B" transform="matrix(1 0 0 -1.00111 566.421 507.147)"/><path d="M97.8736 435.702C46.6364 435.702 4.95224 394.018 4.95224 342.779 4.95224 291.542 46.6364 249.859 97.8736 249.859 149.111 249.859 190.796 291.542 190.796 342.779 190.796 394.018 149.111 435.702 97.8736 435.702ZM97.8736 244.906C43.906 244.906 0 288.812 0 342.779 0 396.748 43.906 440.655 97.8736 440.655 151.842 440.655 195.749 396.748 195.749 342.779 195.749 288.812 151.842 244.906 97.8736 244.906" fill="#293D9B" transform="matrix(1 0 0 -1.00111 566.421 507.147)"/><path d="M97.8736 403.198C64.5596 403.198 37.4561 376.094 37.4561 342.779 37.4561 309.467 64.5596 282.364 97.8736 282.364 131.188 282.364 158.291 309.467 158.291 342.779 158.291 376.094 131.188 403.198 97.8736 403.198ZM97.8736 277.411C61.8287 277.411 32.5039 306.735 32.5039 342.779 32.5039 378.825 61.8287 408.15 97.8736 408.15 133.919 408.15 163.244 378.825 163.244 342.779 163.244 306.735 133.919 277.411 97.8736 277.411" fill="#293D9B" transform="matrix(1 0 0 -1.00111 566.421 507.147)"/><path d="M169.287 342.842C167.698 342.776 168.092 341.123 167.139 340.985 166.575 340.903 166.223 341.347 166.179 342.416L165.957 347.764C165.915 348.787 166.168 349.218 166.736 349.178 167.656 349.112 167.506 347.419 169.094 347.484L184.537 348.126C186.124 348.191 185.816 349.934 186.929 350.078 187.509 350.153 187.848 349.662 187.892 348.593L188.113 343.256C188.157 342.187 187.816 341.8 187.273 341.821 186.145 341.866 186.318 343.549 184.73 343.483L169.287 342.842" fill="#293D9B" transform="matrix(1 0 0 -1.00111 566.421 507.147)"/><path d="M184.925 367.396C185.5 365.273 185.349 363.826 185.27 362.745 185.217 362.023 184.994 361.229 185.727 360.78 186.785 360.132 186.289 359.268 185.402 358.779 184.698 358.392 183.047 357.591 181.276 357.045 180.732 356.877 180.134 356.846 179.931 357.436 179.603 358.406 180.979 358.956 182.087 361.147 182.888 362.732 183.145 364.531 182.525 366.557 181.829 368.832 180.377 369.811 178.734 369.002 174.992 367.159 180.628 356.3 172.56 353.894 168.276 352.616 164.632 354.697 163.154 360.139 162.664 361.948 162.734 363.899 162.99 365.443 163.143 366.376 161.989 366.373 161.822 367.155 161.687 367.786 162.363 368.399 163.097 368.955 164.374 369.921 166.291 370.946 167.39 371.367 168.578 371.824 169.204 371.592 169.402 370.874 169.808 369.406 164.88 366.582 165.879 361.324 166.461 358.268 168.058 357.089 170.104 357.642 174.754 358.899 168.506 370.181 176.195 373.083 179.819 374.451 183.589 372.341 184.925 367.396" fill="#293D9B" transform="matrix(1 0 0 -1.00111 566.421 507.147)"/><path d="M183.892 319.387C184.603 319.435 185.042 319.83 185.171 320.519L187.973 335.39C188.102 336.08 187.837 336.608 187.192 336.91 186.548 337.213 184.613 337.771 183.965 337.892 183.464 337.986 182.977 337.902 182.803 337.333 182.427 336.101 185.333 334.405 185.007 332.674L184.842 331.798C184.719 331.15 184.096 330.723 183.448 330.846L168.488 333.663C166.926 333.957 167.491 335.609 166.644 335.886 166.103 336.063 165.711 335.791 165.53 334.826L164.473 329.213C164.3 328.293 164.556 327.843 165.124 327.817 165.97 327.779 166.088 329.511 167.652 329.217L182.61 326.4C183.259 326.278 183.684 325.653 183.563 325.005L183.398 324.129C183.071 322.397 179.748 321.875 179.65 320.59 179.604 319.998 180.029 319.741 180.529 319.647 181.177 319.524 183.181 319.34 183.892 319.387" fill="#293D9B" transform="matrix(1 0 0 -1.00111 566.421 507.147)"/><path d="M161.299 318.175C161.728 319.155 162.15 319.296 162.671 319.067 163.853 318.552 162.472 317.338 163.928 316.701L169.221 314.388 180.515 315.998C180.515 315.998 181.427 316.184 181.886 316.422 182.869 316.933 183.373 317.44 183.929 317.29 184.473 317.144 184.546 316.554 184.355 316.118L181.614 309.844C181.352 309.245 180.837 309.044 180.385 309.339 179.926 309.636 180.058 310.445 179.555 311.027 179.188 311.451 178.52 311.315 178.52 311.315L170.747 310.213 175.484 303.691C175.484 303.691 175.882 303.125 176.33 303.195 176.943 303.29 177.611 304.506 178.324 304.41 178.752 304.353 179.021 303.912 178.712 303.203L176.564 298.287C176.336 297.766 175.88 297.435 175.436 297.824 174.98 298.225 175.13 299.146 174.692 300.286 174.388 301.076 174.109 301.419 174.109 301.419L167.411 310.243 162.117 312.557C160.66 313.192 160.709 311.355 159.527 311.871 159.006 312.099 158.822 312.504 159.25 313.484L161.299 318.175" fill="#293D9B" transform="matrix(1 0 0 -1.00111 566.421 507.147)"/><path d="M25.4625 348.819C26.4466 348.694 27.3448 349.381 27.47 350.357 27.47 350.357 27.5366 350.875 27.6782 351.985 28.0137 354.6 26.0925 357.753 20.2546 358.501 14.7415 359.207 11.6599 357.339 11.2687 354.288 11.1269 353.178 11.035 352.461 11.035 352.461 10.9102 351.486 11.6067 350.593 12.5905 350.468ZM11.4167 346.119C9.74383 346.334 9.49294 344.559 8.34729 344.736 7.86105 344.811 7.49572 345.271 7.62786 346.305L8.6146 354.013C9.5793 361.546 14.5363 364.047 20.6005 363.27 27.1617 362.43 31.2568 358.011 30.419 351.469L29.4003 343.517C29.2648 342.454 28.8156 342.159 28.354 342.18 27.1968 342.233 27.5517 344.053 25.9751 344.254L11.4167 346.119" fill="#293D9B" transform="matrix(1 0 0 -1.00111 566.421 507.147)"/><path d="M9.65142 324.601C9.52705 325.334 9.82631 325.854 10.3432 325.895 11.4275 325.982 11.7139 324.411 12.9899 324.629 13.9486 324.792 19.8953 325.808 23.705 326.458 26.5999 326.952 28.8929 328.361 28.2279 332.259 27.6756 335.491 24.8519 336.574 21.9634 336.08 19.7805 335.708 11.659 334.321 11.4984 334.294 11.1896 334.242 10.6477 334.093 10.3963 333.648 10.0228 332.986 9.879 332.152 9.30725 331.965 8.77394 331.788 8.36543 332.135 8.28554 332.603L7.48277 337.304C7.35321 338.066 7.66846 338.359 8.14563 338.412 8.7109 338.475 9.03045 337.736 9.81466 337.264 10.1502 337.062 10.7016 337.189 11.0436 337.248 11.548 337.334 17.8147 338.404 21.2577 338.992 25.3394 339.689 29.9893 338.761 31.129 332.085 32.2055 325.78 28.7569 322.42 24.1955 321.641 20.3249 320.98 14.7159 320.023 13.8026 319.867 12.4121 319.629 12.7662 317.872 11.748 317.666 11.2094 317.557 10.7867 317.955 10.6567 318.716L9.65142 324.601" fill="#293D9B" transform="matrix(1 0 0 -1.00111 566.421 507.147)"/><path d="M42.3449 382.237C41.5602 381.342 41.0568 381.34 40.7286 381.758 40.1969 382.436 41.7326 383.962 40.5377 385.011L28.8419 395.279C27.6476 396.328 26.6038 394.314 25.5852 395.054 25.1476 395.371 25.1835 395.96 25.576 396.407L28.0223 399.194C29.2872 400.634 30.134 400.768 31.974 400.522 34.6134 400.17 45.7123 398.858 45.7123 398.858L38.0577 405.579C36.8637 406.628 35.6101 404.869 34.7279 405.467 34.3034 405.756 34.2524 406.289 34.9585 407.093L37.9083 410.453C38.4282 411.044 38.9632 411.077 39.3005 410.614 39.8584 409.849 38.5604 408.56 39.7543 407.511L52.5318 396.294C53.4947 395.448 53.5013 394.549 52.8924 393.796 52.5555 393.378 51.9458 393.092 51.0252 393.196L32.2129 395.743 42.246 386.935C43.4409 385.886 44.5572 387.521 45.3465 386.986 45.7646 386.702 45.7724 386.14 45.0974 385.371L42.3449 382.237" fill="#293D9B" transform="matrix(1 0 0 -1.00111 566.421 507.147)"/><path d="M113.643 412.417C113.377 410.85 115.062 410.658 115.014 409.804 114.982 409.236 114.534 408.973 113.479 409.152L108.146 410.056C107.111 410.232 106.77 410.625 106.905 411.179 107.124 412.078 108.795 411.627 109.062 413.195L111.638 428.388C111.903 429.955 110.209 430.092 110.278 431.075 110.315 431.594 110.802 431.87 111.817 431.697L117.144 430.794C118.178 430.619 118.544 430.231 118.383 429.671 118.091 428.659 116.484 429.178 116.219 427.611L113.643 412.417" fill="#293D9B" transform="matrix(1 0 0 -1.00111 566.421 507.147)"/><path d="M162.346 389.837C162.346 389.837 163.292 388.37 163.881 387.456 165.353 385.168 167.569 383.943 170.185 385.629 172.002 386.799 172.6 388.737 170.588 391.86 169.477 393.584 168.537 393.824 167.479 393.142ZM149.95 387.587C149.371 388.487 149.459 388.966 149.966 389.223 150.679 389.586 151.457 388.204 152.737 389.029L165.59 397.307C166.927 398.168 165.86 399.574 166.874 400.189 167.367 400.487 167.914 400.235 168.493 399.335L173.815 391.074C176.101 387.525 176.09 383.384 172.529 381.297 169.843 379.722 167.076 380.75 165.129 382.159 165.129 382.159 162.063 376.613 161.507 375.567 160.771 374.181 161.708 372.841 160.855 372.176 160.501 371.9 160.002 371.983 159.691 372.466L155.926 378.311C155.7 378.661 155.668 379.28 156.168 379.485 156.814 379.749 157.31 378.878 157.973 378.965 158.487 379.034 158.753 379.5 158.924 379.818 159.114 380.171 162.073 385.578 162.073 385.578L160.215 388.464 155.187 385.225C153.851 384.365 154.9 383.188 154.219 382.622 153.812 382.283 153.302 382.385 152.722 383.285L149.95 387.587" fill="#293D9B" transform="matrix(1 0 0 -1.00111 566.421 507.147)"/><path d="M63.4338 425.972C64.1325 426.225 64.6982 426.022 64.8303 425.521 65.108 424.468 63.6126 423.908 64.053 422.691 64.3847 421.777 66.4402 416.105 67.7564 412.472 68.757 409.71 70.5081 407.82 74.2257 409.166 77.3085 410.284 77.9157 413.138 76.9173 415.893 76.1629 417.976 73.3564 425.721 73.3008 425.876 73.1941 426.17 72.9509 426.677 72.4694 426.844 71.7513 427.095 70.9057 427.088 70.6186 427.618 70.3504 428.111 70.6195 428.575 71.0665 428.737L75.5497 430.361C76.2761 430.625 76.6207 430.366 76.7575 429.906 76.9203 429.36 76.2496 428.916 75.925 428.06 75.7855 427.693 76.0088 427.173 76.1271 426.846 76.3015 426.365 78.4671 420.389 79.6569 417.106 81.0671 413.211 80.9791 408.472 74.6122 406.164 68.5985 403.985 64.6796 406.782 63.1034 411.133 61.7661 414.824 59.8272 420.175 59.5119 421.046 59.0308 422.372 57.3644 421.711 56.981 422.676 56.778 423.187 57.0937 423.674 57.82 423.938L63.4338 425.972" fill="#293D9B" transform="matrix(1 0 0 -1.00111 566.421 507.147)"/><path d="M85.3704 410.242C84.1824 410.197 83.834 410.561 83.9121 411.088 84.0381 411.939 86.2029 411.874 86.1429 413.462L85.5586 429.014C85.4995 430.603 83.3188 429.976 83.156 431.225 83.0855 431.76 83.5377 432.139 84.1323 432.161L87.8379 432.301C89.7531 432.371 90.4332 431.85 91.5196 430.344 93.0781 428.185 99.756 419.224 99.756 419.224L99.3742 429.403C99.3142 430.992 97.1762 430.692 97.004 431.744 96.9214 432.251 97.2738 432.654 98.3435 432.695L102.811 432.862C103.598 432.892 103.989 432.525 103.885 431.962 103.714 431.032 101.885 431.088 101.944 429.499L102.582 412.508C102.63 411.228 101.983 410.606 101.016 410.529 100.482 410.487 99.8553 410.734 99.2974 411.473L88.2131 426.886 88.714 413.543C88.7736 411.955 90.7294 412.269 90.8831 411.326 90.9643 410.829 90.5614 410.436 89.5393 410.399L85.3704 410.242" fill="#293D9B" transform="matrix(1 0 0 -1.00111 566.421 507.147)"/><path d="M70.5867 336.908C69.4345 336.044 67.9646 335.756 66.5521 335.71 63.1682 335.272 60.0293 335.456 56.8553 336.799 54.3144 338.499 53.8118 340.804 53.4343 343.685 60.3583 344.604 66.6833 346.114 73.6181 344.568 73.7061 341.652 73.1526 338.837 70.5867 336.908ZM55.7969 360.077C58.124 361.92 60.7832 362.29 63.6545 362.383 65.5658 362.197 67.5008 362.18 69.397 361.852 71.0842 361.617 72.4042 360.476 73.0018 358.943 73.8202 356.858 73.8094 355.417 73.6099 353.223 66.5118 352.92 59.8392 352.279 52.7369 352.404 52.7585 355.514 53.3096 357.935 55.7969 360.077ZM133.909 383.551C130.868 383.802 126.221 384.014 123.176 383.748 113.22 383.426 108.786 381.732 98.8552 381.089 97.3792 381.103 96.6882 382.992 97.0549 384.471 97.9902 387.726 99.4286 389.071 99.8449 392.469 100.19 394.383 99.2546 396.337 97.824 397.575 94.9994 399.336 90.5299 397.639 89.9176 394.262 89.1385 391.109 88.5828 389.595 86.8641 386.794 84.3733 382.873 80.9368 379.699 78.0258 376.113 77.3923 375.273 76.567 374.466 76.5027 373.352 76.7057 371.363 78.7021 369.708 80.7087 370.075 84.1496 370.534 87.0886 372.604 89.5825 374.896 90.0734 374.547 90.7143 374.327 91.0697 373.825 88.4295 370.001 84.7615 366.926 82.3951 362.881 81.8332 361.87 81.4735 360.717 80.5943 359.92 80.1642 363.062 79.7838 366.54 76.7342 368.301 71.1532 371.545 60.6822 372.087 53.4943 369.188 51.9264 368.557 50.8589 367.949 49.4792 366.913 47.6716 365.558 46.8484 363.444 46.2504 361.64 44.2791 354.652 43.6188 347.677 44.6327 340.507 45.3729 334.845 49.5539 329.843 54.9194 327.954 58.1785 326.794 61.6975 327.267 65.0817 327.346 69.913 327.498 74.689 328.52 78.2336 332.067 81.1479 335.272 81.5599 339.788 81.9977 343.894 82.1869 347.193 84.8396 349.821 86.0354 352.779 87.099 355.301 88.3742 358.324 89.474 359.234 90.5731 360.143 91.2874 358.757 90.874 358.252 86.1559 348.442 84.9921 334.927 84.9351 324.189 79.1844 324.548 73.4911 324.281 67.7551 323.96 64.7829 323.793 60.0388 323.678 54.5981 322.647 53.5354 322.446 50.1757 321.388 49.1588 320.894 46.3532 319.291 47.6254 315.259 49.8238 313.339 51.1435 312.187 56.6666 313.282 57.681 313.461 68.846 315.852 74.5699 315.885 84.597 315.642 84.7632 310.216 84.8293 304.325 86.0354 297.472 86.5549 294.207 86.665 290.849 88.9563 288.229 90.0847 286.81 92.1263 286.806 93.7349 287.223 95.5392 287.842 95.8699 290.056 95.9411 291.714 95.749 294.702 95.1151 297.173 94.9238 300.161 94.5036 304.637 94.2584 309.132 94.1866 313.629 94.0731 320.639 93.4327 327.676 94.194 334.672 94.251 336.311 94.5463 337.928 94.6992 339.556 95.1976 342.788 95.4536 346.075 96.3575 349.228 97.3075 352.671 98.8233 355.952 99.4814 359.475 99.6946 362.571 97.364 365.079 97.0298 368.075 96.8092 369.456 97.798 370.648 98.8802 371.36 100.631 372.502 102.712 372.917 104.662 373.591 107.48 374.551 110.472 374.49 113.401 374.768 118.791 374.956 121.664 375.738 127.045 375.275 130.342 375.195 133.384 374.708 136.686 374.74 138.448 374.679 139.933 375.608 140.103 377.226 140.321 380.076 137.562 383.248 133.909 383.551" fill="#293D9B" transform="matrix(1 0 0 -1.00111 566.421 507.147)"/><path d="M131.273 362.478C123.545 362.243 117.259 361.803 109.527 361.98 108.975 361.984 108.431 362.221 108.153 362.677 107.875 363.135 107.604 363.921 108.441 364.492 109.695 365.35 111.519 365.134 112.968 365.212 119.756 365.52 125.032 365.656 131.828 365.549 132.494 365.539 133.247 365.553 133.984 365.442 135.084 365.281 135.648 364.244 135.201 363.356 134.756 362.469 132.643 362.578 131.273 362.478ZM140.243 369.404C136.476 371.902 131.729 372.18 127.349 371.856 123.787 371.771 120.222 371.931 116.663 371.753 112.572 371.099 109.523 371.914 105.641 370.173 103.734 369.205 101.837 367.63 101.446 365.42 101.357 363.648 101.425 361.813 102.026 360.125 102.538 358.553 103.852 357.161 105.531 356.901 113.786 355.934 120.794 356.819 129.074 356.496 133.103 356.506 137.542 356.731 140.813 359.382 141.901 360.121 142.179 361.491 142.442 362.69 142.897 365.085 142.343 367.925 140.243 369.404" fill="#293D9B" transform="matrix(1 0 0 -1.00111 566.421 507.147)"/><path d="M133.154 344.924C132.607 344.864 131.573 344.784 131.09 344.756 125.151 344.409 122.759 344.04 114.245 344.082 111.983 344.099 109.564 344.028 107.842 344.266 107.085 344.371 106.418 344.62 106.413 345.124 106.407 345.628 106.743 346.111 107.227 346.3 108.174 346.671 110.133 346.85 112.392 346.896 116.942 346.89 121.482 347.228 126.03 347.302 128.568 347.447 130.942 347.671 133.471 347.329 135.105 347.107 135.177 346.019 134.904 345.678 134.674 345.388 133.859 345 133.154 344.924ZM143.129 349.501C142.527 351.334 141.385 352.781 139.087 353.379 135.756 354.247 131.054 354.373 125.559 354.251 121.122 354.153 115.762 353.977 113.155 353.785 110.548 353.591 108.927 353.509 106.968 353.209 104.558 352.838 103.023 351.85 101.846 350.631 101.032 349.788 100.399 348.747 100.008 347.615 99.1255 344.308 99.8536 341.171 102.564 339.197 104.057 338.109 106.193 337.871 108.092 337.902 117.852 338.459 127.665 337.811 137.397 338.89 139.727 339.14 141.777 340.68 142.915 342.691 144.058 344.776 143.84 347.309 143.129 349.501" fill="#293D9B" transform="matrix(1 0 0 -1.00111 566.421 507.147)"/><path d="M131.981 318.824C129.696 318.553 125.881 318.083 123.261 317.816 123.178 319.527 123.203 320.602 123.246 322.314 126.125 322.513 130.077 323.42 132.974 323.083 132.885 321.428 132.964 320.251 131.981 318.824ZM141.058 334.493C139.674 334.975 138.385 334.027 137.311 333.273 135.82 331.95 134.66 329.38 132.923 329.209 130.35 328.954 126.367 328.404 123.532 328.168 124.277 329.383 124.981 330.365 125.831 331.401 127.336 332.964 127.805 334.194 127.14 335.25 126.687 335.97 125.871 336.207 124.776 336.129 118.465 335.678 111.312 335.631 104.721 335.013 102.602 334.814 102.999 330.973 104.978 330.118 107.367 329.085 111.716 330.164 114.102 330.131 113.988 329.022 113.832 327.944 113.832 327.241 110.763 326.626 109.537 326.591 106.241 326.031 102.533 325.357 99.5099 325.103 98.0313 323.726 96.797 322.576 96.3708 320.985 96.9093 319.428 97.209 318.563 99.1302 316.579 102.027 317.331 104.168 317.886 106.167 318.922 107.562 319.453 109.745 320.283 111.806 320.806 113.749 320.964 113.974 319.224 114.021 318.883 114.013 317.135 110.793 316.618 108.578 315.935 105.76 315.109 103.96 314.512 101.26 313.463 100.077 312.562 98.9601 311.712 97.4512 310.67 97.2989 309.359 96.671 306.61 99.1017 303.907 100.544 304.1 102.62 304.376 105.254 306.05 106.971 307.039 109.81 308.675 112.225 309.964 115.386 310.197 115.867 309.1 116.294 306.325 116.856 304.828 117.915 302.006 119.458 299.28 121.543 296.431 122.903 294.571 125.462 293.449 127.222 294.451 129.034 295.481 128.557 298.729 128.117 300.365 126.854 304.471 125.827 304.543 124.794 308.71 124.713 309.161 124.025 311.035 124.042 311.491 125.306 311.924 128.554 312.489 130.403 312.373 133.793 312.161 134.92 311.462 137.007 312.129 138.269 312.531 138.657 313.402 138.808 313.832 140.644 319.06 142.099 323.774 143.545 329.125 144.164 331.153 143.111 333.747 141.058 334.493" fill="#293D9B" transform="matrix(1 0 0 -1.00111 566.421 507.147)"/><path d="M27.7378 376.015 20.008 376.501 25.5449 371.094ZM27.2861 369.392C27.2861 369.392 29.7877 366.947 30.4946 366.242 31.6027 365.138 32.294 367.118 33.2303 366.824 33.7899 366.647 33.8395 366.128 33.5977 365.587L31.775 361.496C31.5569 361.008 31.1813 360.716 30.7312 360.898 29.8948 361.24 30.4903 362.678 29.4349 363.747 28.4581 364.738 16.2831 376.982 15.7675 377.505 15.1892 378.091 14.9819 378.934 15.4004 379.855 15.8689 380.885 16.8777 381.103 17.6157 381.077 19.4656 381.014 36.0898 380.093 37.0308 380.064 37.9709 380.036 38.6303 381.108 39.4072 380.823 39.9608 380.618 39.998 379.946 39.7561 379.403L37.2334 373.742C36.9747 373.163 36.0208 373.078 35.8692 374.109 35.7439 374.959 35.5224 375.506 34.4454 375.582 33.8431 375.622 30.1677 375.858 30.1677 375.858L27.2861 369.392" fill="#293D9B" transform="matrix(1 0 0 -1.00111 566.421 507.147)"/><path d="M142.927 421.029C143.825 420.632 144.127 420.162 143.898 419.683 143.548 418.948 142.554 419.354 141.418 418.815 140.816 418.527 140.067 417.618 140.067 417.618 140.067 417.618 129.032 406.272 128.185 405.392 127.327 404.502 126.365 403.831 124.648 404.591 123.013 405.315 122.903 406.772 122.947 407.809 122.99 408.846 123.905 423.792 123.905 423.792 123.905 423.792 124.002 425.018 123.93 425.75 123.785 427.201 122.499 428.094 122.932 428.96 123.179 429.45 123.707 429.535 124.468 429.198L130.313 426.612C131.127 426.25 131.324 425.842 131.114 425.338 130.839 424.675 129.673 424.741 129.123 424.328 128.62 423.949 128.436 422.652 128.436 422.652L127.593 409.046 137.307 419.092C137.307 419.092 137.988 419.836 137.987 420.416 137.987 421.396 136.657 421.98 137.099 422.789 137.315 423.184 137.809 423.294 138.434 423.018L142.927 421.029" fill="#293D9B" transform="matrix(1 0 0 -1.00111 566.421 507.147)"/><path d="M39.2452 307.698C39.6836 306.722 39.5527 306.176 39.0181 305.982 38.1406 305.664 37.5814 307.356 36.1322 306.705L22.2794 300.485C20.8298 299.834 21.7285 298.239 20.6752 297.761 20.1933 297.542 19.6777 297.69 19.2393 298.666L13.7603 310.867C12.9265 312.725 14.7691 313.703 15.8438 314.217 16.629 314.593 17.3022 314.649 17.5535 314.007 17.6891 313.662 17.4921 313.181 17.0832 312.236 16.6315 311.19 16.445 310.777 16.9731 309.599L18.7082 305.737C19.0714 304.927 20.0288 304.568 20.8454 304.934L25.918 307.213 23.8531 311.811C23.2256 313.209 21.3925 312.122 21.0932 313.348 20.9326 314.005 22.2035 314.759 23.1608 315.189 24.8843 315.963 26.3896 316.546 26.7571 315.882 27.2602 314.972 25.4815 314.375 26.1663 312.851L28.2318 308.252 34.296 310.975C35.6511 311.583 34.6545 313.275 35.5985 313.699 36.1041 313.926 36.5934 313.603 37.0316 312.627L39.2452 307.698" fill="#293D9B" transform="matrix(1 0 0 -1.00111 566.421 507.147)"/><path d="M55.2868 268.542C54.5333 267.319 54.6085 266.394 55.584 265.373 56.4913 264.425 56.8112 263.752 56.4546 263.215 56.0244 262.569 55.2899 262.874 54.7518 263.205L46.0215 268.59C45.0223 269.206 44.897 269.753 45.2403 270.247 45.6536 270.839 46.7777 270.564 47.7462 270.328 49.6951 269.854 50.1567 270.483 50.6875 271.343L56.5798 280.897C57.6058 282.56 56.8553 283.178 56.2213 283.707 55.7822 284.073 55.4212 284.345 54.9781 284.696 54.5221 285.058 54.1879 285.656 54.706 286.204 55.2442 286.772 56.572 286.176 58.2298 285.764 60.9542 285.087 61.9582 285.484 63.1061 284.838 64.2168 284.213 64.323 283.193 63.8237 282.382L55.2868 268.542" fill="#293D9B" transform="matrix(1 0 0 -1.00111 566.421 507.147)"/><path d="M84.6683 268.881C85.1484 271.177 84.9921 274.092 82.1359 274.691 79.4211 275.26 77.9853 273.117 77.4851 270.387 77.1073 268.323 77.5019 265.431 80.1215 264.846 82.7932 264.249 84.0727 266.043 84.6683 268.881ZM78.003 262.48C73.4255 263.472 70.9943 266.55 71.9465 271.093 73.1008 276.6 78.116 277.947 82.4732 277.034 88.1549 275.844 91.0205 271.177 89.8618 265.65 88.2291 257.857 80.6388 253.727 73.1833 254.89 72.3995 255.013 71.3139 255.341 71.3787 255.984 71.4594 256.789 73.1582 256.843 74.8057 257.308 79.5856 258.654 81.4623 260.551 82.3575 262.615 81.0905 262.093 79.3671 262.184 78.003 262.48" fill="#293D9B" transform="matrix(1 0 0 -1.00111 566.421 507.147)"/><path d="M134.368 274.653C135.418 276.383 136.521 277.45 137.854 278.437 141.46 281.107 145.992 281.653 148.712 277.934 152.386 272.913 149.67 267.679 144.345 264.578 141.058 262.665 137.603 262.96 136.094 264.458 135.144 265.401 135.454 266.946 136.654 267.636 137.686 268.23 138.721 267.865 139.695 267.164 141.306 266.007 142.477 266.221 143.539 266.827 145.77 268.098 146.297 270.67 144.085 273.792 142.445 276.103 140.223 276.48 138.033 274.793 136.215 273.391 135.484 271.109 134.477 270.468 133.744 270.004 133.203 270.56 132.843 271.155L127.911 280.062C127.656 280.51 127.792 281.08 128.222 281.367L139.483 288.893C139.935 289.195 140.549 288.989 140.724 288.476L141.722 285.783C141.888 285.295 141.704 284.756 141.274 284.468L132.289 278.463 134.368 274.653" fill="#293D9B" transform="matrix(1 0 0 -1.00111 566.421 507.147)"/><path d="M113.945 255.863C116.485 256.374 117.196 259.797 115.978 265.861 114.761 271.913 112.766 274.869 110.226 274.359 107.685 273.848 106.862 270.326 108.079 264.272 109.247 258.461 111.561 255.384 113.945 255.863ZM109.704 276.627C115.81 277.854 120.51 274.27 121.934 267.19 123.239 260.697 121.111 254.978 114.511 253.537 108.798 252.289 103.463 255.706 102.058 263.261 100.632 270.932 104.417 275.564 109.704 276.627" fill="#293D9B" transform="matrix(1 0 0 -1.00111 566.421 507.147)"/><text fill="#4F4C4C" font-family="MS Gothic,MS Gothic_MSFontService,sans-serif" font-weight="400" font-size="8" transform="matrix(1.10549 0 0 1.10671 977.172 222)">㌘<tspan font-family="Microsoft YaHei,Microsoft YaHei_MSFontService,sans-serif" font-size="8" x="8.23341" y="0">瓌</tspan><tspan font-family="Microsoft YaHei,Microsoft YaHei_MSFontService,sans-serif" font-size="8" x="16.4673" y="0">漐</tspan><tspan font-family="Microsoft YaHei,Microsoft YaHei_MSFontService,sans-serif" font-size="8" x="24.7007" y="0">䮜</tspan><tspan font-family="Arial,Arial_MSFontService,sans-serif" font-size="8" x="32.9341" y="0">⏓</tspan><tspan font-family="Segoe UI Symbol,Segoe UI Symbol_MSFontService,sans-serif" font-size="8" x="39.168" y="0">⚿</tspan><tspan font-family="Microsoft YaHei,Microsoft YaHei_MSFontService,sans-serif" font-size="8" x="47.4013" y="0">佯</tspan><tspan font-family="Ebrima,Ebrima_MSFontService,sans-serif" font-size="8" x="55.6353" y="0">ⶱ</tspan><tspan font-family="Microsoft YaHei,Microsoft YaHei_MSFontService,sans-serif" font-size="8" x="62.8687" y="0">㪊</tspan><tspan font-family="Segoe UI Symbol,Segoe UI Symbol_MSFontService,sans-serif" font-size="8" x="71.1026" y="0">☐</tspan><tspan font-family="Microsoft YaHei,Microsoft YaHei_MSFontService,sans-serif" font-size="8" x="78.336" y="0">《</tspan><tspan font-family="Microsoft YaHei,Microsoft YaHei_MSFontService,sans-serif" font-size="8" x="86.5693" y="0">瓌</tspan><tspan font-family="Microsoft YaHei,Microsoft YaHei_MSFontService,sans-serif" font-size="8" x="94.8033" y="0">崌</tspan><tspan font-family="Arial,Arial_MSFontService,sans-serif" font-size="8" x="103.037" y="0">䷞</tspan><tspan font-family="Cambria Math,Cambria Math_MSFontService,sans-serif" font-size="8" x="109.271" y="0">⊱</tspan><tspan font-family="Microsoft YaHei,Microsoft YaHei_MSFontService,sans-serif" font-size="8" x="113.504" y="0">㑼</tspan><tspan font-family="Arial,Arial_MSFontService,sans-serif" font-size="8" x="121.737" y="0">Ҳ</tspan><tspan font-family="Microsoft YaHei,Microsoft YaHei_MSFontService,sans-serif" font-size="8" x="126.971" y="0">殫</tspan><tspan font-family="Microsoft YaHei,Microsoft YaHei_MSFontService,sans-serif" font-size="8" x="135.205" y="0">㪊</tspan><tspan font-family="Arial,Arial_MSFontService,sans-serif" font-size="8" x="143.438" y="0">ҳ</tspan><tspan font-family="Cambria Math,Cambria Math_MSFontService,sans-serif" font-size="8" x="147.672" y="0">⋯</tspan><tspan font-family="Microsoft YaHei,Microsoft YaHei_MSFontService,sans-serif" font-size="8" x="-16.5791" y="14.4572">㪋</tspan><tspan font-family="Microsoft YaHei,Microsoft YaHei_MSFontService,sans-serif" font-size="8" x="-8.69873" y="14.4572">瓌</tspan><tspan font-family="Microsoft YaHei,Microsoft YaHei_MSFontService,sans-serif" font-size="8" x="-0.818394" y="14.4572">㮘</tspan><tspan font-family="Segoe UI Symbol,Segoe UI Symbol_MSFontService,sans-serif" font-size="8" x="7.06249" y="14.4572">⣏</tspan><tspan font-family="Ebrima,Ebrima_MSFontService,sans-serif" font-size="8" x="12.9429" y="14.4572">ⶱ</tspan></text><path d="M7.18359 1.12109C7.26693 1.12109 7.32943 1.08333 7.37109 1.00781 7.39714 0.955729 7.40169 0.901693 7.38477 0.845703 7.36784 0.789714 7.33333 0.748698 7.28125 0.722656 6.95573 0.553385 6.67513 0.334635 6.43945 0.0664062 6.20378-0.201823 6.02279-0.501953 5.89648-0.833984 5.77018-1.16602 5.70703-1.51562 5.70703-1.88281L5.70703-2.65625C5.70703-2.71354 5.6862-2.76302 5.64453-2.80469 5.60286-2.84635 5.55208-2.86719 5.49219-2.86719 5.4349-2.86719 5.38542-2.84635 5.34375-2.80469 5.30208-2.76302 5.28125-2.71354 5.28125-2.65625L5.28125-1.88281C5.28125-1.46354 5.35417-1.0638 5.5-0.683594 5.64583-0.303385 5.85352 0.0397135 6.12305 0.345703 6.39258 0.651693 6.71354 0.902344 7.08594 1.09766 7.11458 1.11328 7.14714 1.12109 7.18359 1.12109Z" fill="#44911B" transform="matrix(1.10549 0 0 1.10671 999.086 238)"/><path d="M8.95312-2.82031C9.10417-2.71875 9.22461-2.58464 9.31445-2.41797 9.4043-2.2513 9.44531-2.07031 9.4375-1.875 9.42708-1.6875 9.37435-1.51693 9.2793-1.36328 9.18424-1.20964 9.05924-1.08659 8.9043-0.994141 8.74935-0.901693 8.57812-0.852865 8.39062-0.847656 8.16927-0.842448 7.97005-0.897135 7.79297-1.01172L7.78125-1.01953C7.77344-1.02474 7.76432-1.02995 7.75391-1.03516L5.64062-2.4375C5.54167-2.5026 5.44401-2.5026 5.34766-2.4375L3.23438-1.03516C3.22917-1.03255 3.22005-1.02734 3.20703-1.01953L3.19531-1.01172C3.01302-0.897135 2.8138-0.842448 2.59766-0.847656 2.41016-0.852865 2.23893-0.901693 2.08398-0.994141 1.92904-1.08659 1.80404-1.20964 1.70898-1.36328 1.61393-1.51693 1.5612-1.6875 1.55078-1.875 1.54297-2.07031 1.58398-2.2513 1.67383-2.41797 1.76367-2.58464 1.88411-2.71875 2.03516-2.82031 1.88151-2.91927 1.76042-3.05208 1.67188-3.21875 1.58333-3.38542 1.54297-3.56771 1.55078-3.76562 1.5612-3.95052 1.61393-4.11979 1.70898-4.27344 1.80404-4.42708 1.92904-4.55013 2.08398-4.64258 2.23893-4.73503 2.41016-4.78385 2.59766-4.78906 2.8138-4.79427 3.01302-4.73958 3.19531-4.625L3.20703-4.61719C3.21484-4.61458 3.22396-4.60938 3.23438-4.60156L4.29297-3.89844C4.33203-3.8724 4.36849-3.8763 4.40234-3.91016 4.4362-3.94401 4.4401-3.98047 4.41406-4.01953L3.71094-5.07812C3.70833-5.08594 3.70312-5.09505 3.69531-5.10547L3.6875-5.11719C3.57292-5.29948 3.51823-5.4987 3.52344-5.71484 3.52865-5.90234 3.57747-6.07357 3.66992-6.22852 3.76237-6.38346 3.88542-6.50911 4.03906-6.60547 4.19271-6.70182 4.36198-6.75391 4.54688-6.76172 4.74479-6.76953 4.92708-6.72852 5.09375-6.63867 5.26042-6.54883 5.39323-6.42969 5.49219-6.28125 5.59375-6.43229 5.72786-6.55208 5.89453-6.64062 6.0612-6.72917 6.24349-6.76953 6.44141-6.76172 6.6237-6.75391 6.78971-6.70378 6.93945-6.61133 7.08919-6.51888 7.21159-6.39779 7.30664-6.24805 7.40169-6.09831 7.45443-5.93229 7.46484-5.75 7.47526-5.51823 7.42057-5.30729 7.30078-5.11719L7.29297-5.10547C7.29036-5.09766 7.28516-5.08854 7.27734-5.07812L6.57422-4.01953C6.54818-3.98047 6.55208-3.94401 6.58594-3.91016 6.61979-3.8763 6.65625-3.8724 6.69531-3.89844L7.75391-4.60156C7.75911-4.60417 7.76823-4.60938 7.78125-4.61719L7.79297-4.625C7.97526-4.73958 8.17448-4.79427 8.39062-4.78906 8.57812-4.78385 8.74935-4.73503 8.9043-4.64258 9.05924-4.55013 9.18424-4.42708 9.2793-4.27344 9.37435-4.11979 9.42708-3.95052 9.4375-3.76562 9.44531-3.56771 9.40495-3.38542 9.31641-3.21875 9.22786-3.05208 9.10677-2.91927 8.95312-2.82031Z" fill="#86D72F" transform="matrix(1.10549 0 0 1.10671 999.086 238)"/><path d="M4.59766-6.76172C4.78516-6.76172 4.95768-6.71745 5.11523-6.62891 5.27279-6.54036 5.39844-6.42448 5.49219-6.28125L5.49219-2.82031 5.21094-2.82031 3.71094-5.07422C3.70833-5.08203 3.70312-5.09115 3.69531-5.10156L3.6875-5.11328C3.57812-5.28776 3.52344-5.47786 3.52344-5.68359 3.52344-5.88151 3.57161-6.06185 3.66797-6.22461 3.76432-6.38737 3.89388-6.51758 4.05664-6.61523 4.2194-6.71289 4.39974-6.76172 4.59766-6.76172Z" fill="#86D72F" transform="matrix(1.10549 0 0 1.10671 999.086 238)"/><path d="M1.55078-1.92188C1.55078-2.10938 1.59505-2.2819 1.68359-2.43945 1.77214-2.59701 1.88802-2.72266 2.03125-2.81641L5.49219-2.81641 5.49219-2.53516 3.23828-1.03516C3.23047-1.03255 3.22135-1.02734 3.21094-1.01953L3.19922-1.01172C3.02474-0.902344 2.83464-0.847656 2.62891-0.847656 2.43099-0.847656 2.25065-0.895833 2.08789-0.992188 1.92513-1.08854 1.79492-1.2181 1.69727-1.38086 1.59961-1.54362 1.55078-1.72396 1.55078-1.92188Z" fill="#86D72F" transform="matrix(1.10549 0 0 1.10671 999.086 238)"/><path d="M9.4375-3.71484C9.4375-3.52734 9.39323-3.35482 9.30469-3.19727 9.21615-3.03971 9.10026-2.91406 8.95703-2.82031L5.49609-2.82031 5.49609-3.10156 7.75-4.60156C7.75781-4.60417 7.76693-4.60938 7.77734-4.61719L7.78906-4.625C7.96354-4.73438 8.15365-4.78906 8.35938-4.78906 8.55729-4.78906 8.73763-4.74089 8.90039-4.64453 9.06315-4.54818 9.19336-4.41862 9.29102-4.25586 9.38867-4.0931 9.4375-3.91276 9.4375-3.71484Z" fill="#86D72F" transform="matrix(1.10549 0 0 1.10671 999.086 238)"/><path d="M7.18359 1.12109C7.26693 1.12109 7.32943 1.08333 7.37109 1.00781 7.39714 0.955729 7.40169 0.901693 7.38477 0.845703 7.36784 0.789714 7.33333 0.748698 7.28125 0.722656 6.95573 0.553385 6.67513 0.334635 6.43945 0.0664062 6.20378-0.201823 6.02279-0.501953 5.89648-0.833984 5.77018-1.16602 5.70703-1.51562 5.70703-1.88281L5.70703-2.65625C5.70703-2.71354 5.6862-2.76302 5.64453-2.80469 5.60286-2.84635 5.55208-2.86719 5.49219-2.86719 5.4349-2.86719 5.38542-2.84635 5.34375-2.80469 5.30208-2.76302 5.28125-2.71354 5.28125-2.65625L5.28125-1.88281C5.28125-1.46354 5.35417-1.0638 5.5-0.683594 5.64583-0.303385 5.85352 0.0397135 6.12305 0.345703 6.39258 0.651693 6.71354 0.902344 7.08594 1.09766 7.11458 1.11328 7.14714 1.12109 7.18359 1.12109Z" fill="#44911B" transform="matrix(1.10549 0 0 1.10671 999.086 238)"/><path d="M8.95703-2.82031C9.10807-2.91927 9.22786-3.05208 9.31641-3.21875 9.40495-3.38542 9.44531-3.56771 9.4375-3.76562 9.42969-3.92969 9.38672-4.08333 9.30859-4.22656 9.23047-4.36719 9.1263-4.48568 8.99609-4.58203 8.86588-4.67839 8.72005-4.74219 8.55859-4.77344 8.5013-4.78385 8.44531-4.78906 8.39062-4.78906 8.35156-4.79167 8.3112-4.79036 8.26953-4.78516 8.09505-4.77214 7.9349-4.71875 7.78906-4.625L7.77734-4.61719C7.76693-4.60938 7.75781-4.60417 7.75-4.60156L6.6875-3.89453C6.64844-3.8737 6.61328-3.88021 6.58203-3.91406 6.55078-3.94792 6.54818-3.98307 6.57422-4.01953L7.27734-5.07812C7.28516-5.08854 7.29036-5.09766 7.29297-5.10547L7.30078-5.11719C7.42057-5.30729 7.47526-5.51823 7.46484-5.75 7.45443-5.93229 7.40169-6.09831 7.30664-6.24805 7.21159-6.39779 7.08919-6.51888 6.93945-6.61133 6.78971-6.70378 6.6237-6.75391 6.44141-6.76172 6.24349-6.76953 6.0612-6.72917 5.89453-6.64062 5.72786-6.55208 5.59375-6.43229 5.49219-6.28125 5.34115-6.51302 5.13021-6.66276 4.85938-6.73047 4.75781-6.75651 4.65365-6.76693 4.54688-6.76172 4.38542-6.75391 4.23177-6.71094 4.08594-6.63281 3.94792-6.55729 3.83008-6.45378 3.73242-6.32227 3.63477-6.19075 3.57161-6.04427 3.54297-5.88281 3.53255-5.82812 3.52604-5.77214 3.52344-5.71484 3.52344-5.67578 3.52474-5.63672 3.52734-5.59766 3.54036-5.42318 3.59375-5.26172 3.6875-5.11328L3.69531-5.10156C3.70312-5.09115 3.70833-5.08203 3.71094-5.07422L4.41797-4.01562C4.4388-3.97656 4.43229-3.94141 4.39844-3.91016 4.36458-3.87891 4.32943-3.875 4.29297-3.89844L3.23438-4.60156C3.22396-4.60938 3.21484-4.61458 3.20703-4.61719L3.19531-4.625C3.01302-4.73958 2.8138-4.79427 2.59766-4.78906 2.41016-4.78385 2.23893-4.73503 2.08398-4.64258 1.92904-4.55013 1.80404-4.42708 1.70898-4.27344 1.61393-4.11979 1.5612-3.95052 1.55078-3.76562 1.54297-3.56771 1.58333-3.38542 1.67188-3.21875 1.76042-3.05208 1.88151-2.91927 2.03516-2.82031L2.03125-2.82031C1.80208-2.66667 1.65365-2.45573 1.58594-2.1875 1.5599-2.08333 1.54818-1.97917 1.55078-1.875 1.5612-1.6875 1.61393-1.51693 1.70898-1.36328 1.80404-1.20964 1.92904-1.08659 2.08398-0.994141 2.23893-0.901693 2.41016-0.852865 2.59766-0.847656 2.63932-0.847656 2.67839-0.848958 2.71484-0.851562 2.88932-0.864583 3.05078-0.917969 3.19922-1.01172L3.21094-1.01953C3.22135-1.02734 3.23047-1.03255 3.23828-1.03516L5.34766-2.4375C5.44401-2.5026 5.54167-2.5026 5.64062-2.4375L7.75391-1.03516C7.76432-1.02995 7.77344-1.02474 7.78125-1.01953L7.79297-1.01172C7.97005-0.897135 8.16927-0.842448 8.39062-0.847656 8.57812-0.852865 8.74935-0.901693 8.9043-0.994141 9.05924-1.08659 9.18424-1.20964 9.2793-1.36328 9.37435-1.51693 9.42708-1.6875 9.4375-1.875 9.44531-2.07031 9.4043-2.2513 9.31445-2.41797 9.22461-2.58464 9.10417-2.71875 8.95312-2.82031 8.95312-2.82031 8.95378-2.82031 8.95508-2.82031 8.95638-2.82031 8.95703-2.82031 8.95703-2.82031Z" fill="#86D72F" transform="matrix(1.10549 0 0 1.10671 999.086 238)"/><text fill="#4F4C4C" font-family="Cambria Math,Cambria Math_MSFontService,sans-serif" font-weight="400" font-size="8" transform="matrix(1.10549 0 0 1.10671 1011.11 238)">⋑<tspan font-size="8" x="5.88087" y="0">⟲</tspan><tspan font-family="Microsoft YaHei,Microsoft YaHei_MSFontService,sans-serif" font-size="8" x="13.7613" y="0">䬨</tspan><tspan font-family="Microsoft YaHei,Microsoft YaHei_MSFontService,sans-serif" font-size="8" x="21.6415" y="0">㖳</tspan><tspan font-size="8" x="29.5219" y="0">⋭</tspan><tspan font-family="Arial,Arial_MSFontService,sans-serif" font-size="8" x="35.4024" y="0">ۣ</tspan><tspan font-family="Arial,Arial_MSFontService,sans-serif" font-size="8" x="35.2832" y="0">Ҳ</tspan><tspan font-family="Ebrima,Ebrima_MSFontService,sans-serif" font-size="8" x="40.1635" y="0">ⶱ</tspan><tspan font-family="Microsoft YaHei,Microsoft YaHei_MSFontService,sans-serif" font-size="8" x="47.0439" y="0">㪊</tspan><tspan font-family="Arial,Arial_MSFontService,sans-serif" font-size="8" x="54.9243" y="0">ҳ</tspan><tspan font-size="8" x="58.8047" y="0">⌰</tspan><tspan font-family="Microsoft YaHei,Microsoft YaHei_MSFontService,sans-serif" font-size="8" x="62.6856" y="0">⿻</tspan><tspan font-family="Segoe UI Symbol,Segoe UI Symbol_MSFontService,sans-serif" font-size="8" x="70.5659" y="0">⚞</tspan><tspan font-family="Microsoft YaHei,Microsoft YaHei_MSFontService,sans-serif" font-size="8" x="78.4462" y="0">嚎</tspan><tspan font-family="Arial,Arial_MSFontService,sans-serif" font-size="8" x="86.3266" y="0">۫</tspan><tspan font-family="Microsoft YaHei,Microsoft YaHei_MSFontService,sans-serif" font-size="8" x="86.2075" y="0">ゾ</tspan><tspan font-size="8" x="94.0879" y="0">⌊</tspan><tspan font-family="Ebrima,Ebrima_MSFontService,sans-serif" font-size="8" x="96.9682" y="0">ⷋ</tspan><tspan font-size="8" x="-47.2827" y="13.5536">⏄</tspan><tspan font-family="Arial,Arial_MSFontService,sans-serif" font-size="8" x="-40.2285" y="13.5536">۬</tspan><tspan font-size="8" x="-40.1739" y="13.5536">⋑</tspan><tspan font-family="Microsoft YaHei,Microsoft YaHei_MSFontService,sans-serif" font-size="8" x="-34.1196" y="13.5536">䬨</tspan><tspan font-family="Arial,Arial_MSFontService,sans-serif" font-size="8" x="-26.0649" y="13.5536">۫</tspan><tspan font-family="Microsoft YaHei,Microsoft YaHei_MSFontService,sans-serif" font-size="8" x="-26.0108" y="13.5536">嬂</tspan><tspan font-family="Ebrima,Ebrima_MSFontService,sans-serif" font-size="8" x="-17.9566" y="13.5536">ⶳ</tspan><tspan font-size="8" x="-10.9019" y="13.5536">⏄</tspan><tspan font-family="Arial,Arial_MSFontService,sans-serif" font-size="8" x="-3.84766" y="13.5536">w</tspan><tspan font-family="Segoe UI Symbol,Segoe UI Symbol_MSFontService,sans-serif" font-size="8" x="2.20701" y="13.5536">⠣</tspan><tspan font-size="8" x="8.26124" y="13.5536">⌵</tspan><tspan font-family="Microsoft YaHei,Microsoft YaHei_MSFontService,sans-serif" font-size="8" x="14.3155" y="13.5536">㿰</tspan><tspan font-family="Arial,Arial_MSFontService,sans-serif" font-size="8" x="22.3701" y="13.5536">۬</tspan><tspan font-family="Arial,Arial_MSFontService,sans-serif" font-size="8" x="22.4243" y="13.5536">Ҳ</tspan><tspan font-family="Segoe UI Symbol,Segoe UI Symbol_MSFontService,sans-serif" font-size="8" x="27.4785" y="13.5536">⠣</tspan><tspan font-size="8" x="33.5332" y="13.5536">⌵</tspan><tspan font-family="Microsoft YaHei,Microsoft YaHei_MSFontService,sans-serif" font-size="8" x="39.5874" y="13.5536">䕦</tspan><tspan font-family="Segoe UI Symbol,Segoe UI Symbol_MSFontService,sans-serif" font-size="8" x="47.6421" y="13.5536">☒</tspan><tspan font-family="Microsoft YaHei,Microsoft YaHei_MSFontService,sans-serif" font-size="8" x="54.6963" y="13.5536">瓌</tspan><tspan font-family="Microsoft YaHei,Microsoft YaHei_MSFontService,sans-serif" font-size="8" x="62.7505" y="13.5536">冞</tspan><tspan font-family="Microsoft YaHei,Microsoft YaHei_MSFontService,sans-serif" font-size="8" x="70.8051" y="13.5536">及</tspan><tspan font-family="Microsoft YaHei,Microsoft YaHei_MSFontService,sans-serif" font-size="8" x="78.8593" y="13.5536">及</tspan><tspan font-family="Segoe UI Symbol,Segoe UI Symbol_MSFontService,sans-serif" font-size="8" x="86.9141" y="13.5536">☒</tspan><tspan font-family="Arial,Arial_MSFontService,sans-serif" font-size="8" x="93.9683" y="13.5536">ۣ</tspan><tspan font-family="Microsoft YaHei,Microsoft YaHei_MSFontService,sans-serif" font-size="8" x="-47.2827" y="28.0109">㪉</tspan><tspan font-family="Microsoft YaHei,Microsoft YaHei_MSFontService,sans-serif" font-size="8" x="-39.3301" y="28.0109">㮬</tspan><tspan font-size="8" x="-31.377" y="28.0109">◭</tspan><tspan font-size="8" x="-24.4243" y="28.0109">⟲</tspan><tspan font-family="Microsoft YaHei,Microsoft YaHei_MSFontService,sans-serif" font-size="8" x="-16.4712" y="28.0109">瓌</tspan><tspan font-family="Microsoft YaHei,Microsoft YaHei_MSFontService,sans-serif" font-size="8" x="-8.51858" y="28.0109">㪊</tspan><tspan font-family="Ebrima,Ebrima_MSFontService,sans-serif" font-size="8" x="-0.565472" y="28.0109">ⶱ</tspan><tspan font-family="Microsoft YaHei,Microsoft YaHei_MSFontService,sans-serif" font-size="8" x="6.38721" y="28.0109">㪊</tspan><tspan font-family="Segoe UI Symbol,Segoe UI Symbol_MSFontService,sans-serif" font-size="8" x="14.3403" y="28.0109">☒</tspan><tspan font-family="Arial,Arial_MSFontService,sans-serif" font-size="8" x="21.2929" y="28.0109">ۣ</tspan><tspan font-family="Arial,Arial_MSFontService,sans-serif" font-size="8" x="21.2456" y="28.0109">ҳ</tspan><tspan font-family="MS Gothic,MS Gothic_MSFontService,sans-serif" font-size="8" x="39.4399" y="28.0109">㌘</tspan><tspan font-family="Microsoft YaHei,Microsoft YaHei_MSFontService,sans-serif" font-size="8" x="47.3925" y="28.0109">瓌</tspan><tspan font-family="MS Gothic,MS Gothic_MSFontService,sans-serif" font-size="8" x="55.3457" y="28.0109">㌸</tspan><tspan font-family="Microsoft YaHei,Microsoft YaHei_MSFontService,sans-serif" font-size="8" x="63.2983" y="28.0109">櫬</tspan><tspan font-family="Microsoft YaHei,Microsoft YaHei_MSFontService,sans-serif" font-size="8" x="71.2509" y="28.0109">㮿</tspan><tspan font-family="Microsoft YaHei,Microsoft YaHei_MSFontService,sans-serif" font-size="8" x="79.2041" y="28.0109">擷</tspan><tspan font-family="Microsoft YaHei,Microsoft YaHei_MSFontService,sans-serif" font-size="8" x="87.1567" y="28.0109">㳅</tspan><tspan font-family="Microsoft YaHei,Microsoft YaHei_MSFontService,sans-serif" font-size="8" x="95.1098" y="28.0109">樣</tspan><tspan font-size="8" x="103.062" y="28.0109">⋯</tspan><tspan font-family="Microsoft YaHei,Microsoft YaHei_MSFontService,sans-serif" font-size="8" x="110.016" y="28.0109">悛</tspan><tspan font-family="Microsoft YaHei,Microsoft YaHei_MSFontService,sans-serif" font-size="8" x="117.968" y="28.0109">瓌</tspan><tspan font-family="Microsoft YaHei,Microsoft YaHei_MSFontService,sans-serif" font-size="8" x="-47.2827" y="41.5645">䁿</tspan><tspan font-family="Microsoft YaHei,Microsoft YaHei_MSFontService,sans-serif" font-size="8" x="-39.4023" y="41.5645">䆡</tspan><tspan font-size="8" x="-31.522" y="41.5645">⋀</tspan><tspan font-size="8" x="-26.6411" y="41.5645">⋟</tspan><tspan font-family="MS Gothic,MS Gothic_MSFontService,sans-serif" font-size="8" x="-20.7608" y="41.5645">㋑</tspan><tspan font-size="8" x="-12.8804" y="41.5645">⋞</tspan><tspan font-family="Ebrima,Ebrima_MSFontService,sans-serif" font-size="8" x="-6.99999" y="41.5645">ⶱ</tspan><tspan font-family="Microsoft YaHei,Microsoft YaHei_MSFontService,sans-serif" font-size="8" x="-0.119146" y="41.5645">㪊</tspan><tspan font-family="Ebrima,Ebrima_MSFontService,sans-serif" font-size="8" x="7.76119" y="41.5645">ⷋ</tspan><tspan font-family="Microsoft YaHei,Microsoft YaHei_MSFontService,sans-serif" font-size="8" x="12.6416" y="41.5645">《</tspan><tspan font-family="Microsoft YaHei,Microsoft YaHei_MSFontService,sans-serif" font-size="8" x="20.522" y="41.5645">洼</tspan><tspan font-family="Segoe UI Symbol,Segoe UI Symbol_MSFontService,sans-serif" font-size="8" x="28.4024" y="41.5645">☽</tspan><tspan font-family="Microsoft YaHei,Microsoft YaHei_MSFontService,sans-serif" font-size="8" x="33.2832" y="41.5645">㳅</tspan><tspan font-family="Segoe UI Symbol,Segoe UI Symbol_MSFontService,sans-serif" font-size="8" x="41.1635" y="41.5645">⢱</tspan><tspan font-family="Arial,Arial_MSFontService,sans-serif" font-size="8" x="47.0439" y="41.5645">ۣ</tspan><tspan font-family="Ebrima,Ebrima_MSFontService,sans-serif" font-size="8" x="46.9244" y="41.5645">ⶱ</tspan><tspan font-family="Microsoft YaHei,Microsoft YaHei_MSFontService,sans-serif" font-size="8" x="53.8052" y="41.5645">㪊</tspan><tspan font-family="Microsoft YaHei,Microsoft YaHei_MSFontService,sans-serif" font-size="8" x="61.6855" y="41.5645">㡉</tspan></text><path d="M9.4325-2.82111C9.4325-3.36554 9.33041-3.87594 9.12625-4.35229 8.92209-4.82865 8.63955-5.24729 8.27863-5.60822 7.9177-5.96914 7.49906-6.25168 7.02271-6.45584 6.54635-6.66 6.03595-6.76208 5.49152-6.76208 4.94712-6.76208 4.43674-6.66 3.96036-6.45584 3.48398-6.25168 3.06533-5.96914 2.70441-5.60822 2.34349-5.24729 2.06095-4.82865 1.85681-4.35229 1.65267-3.87594 1.5506-3.36554 1.5506-2.82111 1.5506-2.27667 1.65267-1.76628 1.85681-1.28992 2.06095-0.813558 2.34349-0.394918 2.70441-0.0339966 3.06533 0.326925 3.48398 0.609467 3.96036 0.813629 4.43674 1.01779 4.94712 1.11987 5.49152 1.11987 6.03595 1.11987 6.54635 1.01779 7.02271 0.813629 7.49906 0.609467 7.9177 0.326925 8.27863-0.0339966 8.63955-0.394918 8.92209-0.813558 9.12625-1.28992 9.33041-1.76628 9.4325-2.27667 9.4325-2.82111Z" fill="#F8312F" transform="matrix(1.10549 0 0 1.10671 1088.02 284)"/><path d="M2.67578-3.10156 2.67578-2.53906C2.67578-2.46094 2.70378-2.39453 2.75977-2.33984 2.81576-2.28516 2.88281-2.25781 2.96094-2.25781L8.02734-2.25781C8.10547-2.25781 8.17188-2.28516 8.22656-2.33984 8.28125-2.39453 8.30859-2.46094 8.30859-2.53906L8.30859-3.10156C8.30859-3.17969 8.28125-3.24609 8.22656-3.30078 8.17188-3.35547 8.10547-3.38281 8.02734-3.38281L2.96094-3.38281C2.88281-3.38281 2.81576-3.35547 2.75977-3.30078 2.70378-3.24609 2.67578-3.17969 2.67578-3.10156Z" fill="#FFFFFF" transform="matrix(1.10549 0 0 1.10671 1088.02 284)"/><text fill="#4F4C4C" font-family="Microsoft YaHei,Microsoft YaHei_MSFontService,sans-serif" font-weight="400" font-size="8" transform="matrix(1.10549 0 0 1.10671 1100.05 284)">䁿<tspan font-family="Cambria Math,Cambria Math_MSFontService,sans-serif" font-size="8" x="7.88028" y="0">⋟</tspan><tspan font-family="MS Gothic,MS Gothic_MSFontService,sans-serif" font-size="8" x="13.7611" y="0">㋑</tspan><tspan font-size="8" x="21.6415" y="0">洼</tspan><tspan font-family="Segoe UI Symbol,Segoe UI Symbol_MSFontService,sans-serif" font-size="8" x="29.5219" y="0">⢱</tspan><tspan font-family="Segoe UI Symbol,Segoe UI Symbol_MSFontService,sans-serif" font-size="8" x="-127.729" y="14.4572">⢲</tspan><tspan font-size="8" x="-121.849" y="14.4572">瓌</tspan><tspan font-size="8" x="-113.968" y="14.4572">㧢</tspan><tspan font-family="Ebrima,Ebrima_MSFontService,sans-serif" font-size="8" x="-106.087" y="14.4572">ⷋ</tspan><tspan font-family="Ebrima,Ebrima_MSFontService,sans-serif" font-size="8" x="-101.207" y="14.4572">ⶱ</tspan><tspan font-family="Segoe UI Symbol,Segoe UI Symbol_MSFontService,sans-serif" font-size="8" x="-94.3267" y="14.4572">⛚</tspan><tspan font-size="8" x="-86.4463" y="14.4572">㚴</tspan><tspan font-size="8" x="-78.5655" y="14.4572">㳅</tspan><tspan font-size="8" x="-70.6851" y="14.4572">檌</tspan><tspan font-family="Cambria Math,Cambria Math_MSFontService,sans-serif" font-size="8" x="-62.8047" y="14.4572">⟢</tspan><tspan font-size="8" x="-56.9244" y="14.4572">流</tspan><tspan font-family="Arial,Arial_MSFontService,sans-serif" font-size="8" x="-49.044" y="14.4572">ۢ</tspan><tspan font-size="8" x="-49.1632" y="14.4572">反</tspan><tspan font-size="8" x="-41.2828" y="14.4572">コ</tspan><tspan font-family="Ebrima,Ebrima_MSFontService,sans-serif" font-size="8" x="-33.4024" y="14.4572">ⶱ</tspan><tspan font-family="Segoe UI Symbol,Segoe UI Symbol_MSFontService,sans-serif" font-size="8" x="-26.522" y="14.4572">⛚</tspan><tspan font-family="Segoe UI Symbol,Segoe UI Symbol_MSFontService,sans-serif" font-size="8" x="-18.6417" y="14.4572">⢲</tspan><tspan font-size="8" x="-12.7608" y="14.4572">䧌</tspan><tspan font-family="Cambria Math,Cambria Math_MSFontService,sans-serif" font-size="8" x="-4.88044" y="14.4572">⌲</tspan><tspan font-size="8" x="0" y="14.4572">㳅</tspan><tspan font-size="8" x="7.88028" y="14.4572">䧌</tspan><tspan font-size="8" x="15.7612" y="14.4572">⒅</tspan><tspan font-size="8" x="23.6415" y="14.4572">ゥ</tspan><tspan font-family="Arial,Arial_MSFontService,sans-serif" font-size="8" x="31.5219" y="14.4572">ۢ</tspan><tspan font-size="8" x="-127.729" y="28.0109">⒅</tspan><tspan font-size="8" x="-119.929" y="28.0109">俞</tspan><tspan font-family="Arial,Arial_MSFontService,sans-serif" font-size="8" x="-112.129" y="28.0109">ۢ</tspan><tspan font-size="8" x="-112.329" y="28.0109">㳅</tspan><tspan font-size="8" x="-104.529" y="28.0109">㑡</tspan><tspan font-family="Arial,Arial_MSFontService,sans-serif" font-size="8" x="-96.7291" y="28.0109">ۢ</tspan><tspan font-size="8" x="-96.9293" y="28.0109">䁹</tspan><tspan font-family="Cambria Math,Cambria Math_MSFontService,sans-serif" font-size="8" x="-89.1289" y="28.0109">⊾</tspan><tspan font-size="8" x="-83.3292" y="28.0109">恥</tspan><tspan font-family="Cambria Math,Cambria Math_MSFontService,sans-serif" font-size="8" x="-75.5288" y="28.0109">⌊</tspan><tspan font-size="8" x="-72.7291" y="28.0109">ゥ</tspan><tspan font-size="8" x="-64.9292" y="28.0109">氆</tspan><tspan font-size="8" x="-57.1289" y="28.0109">俭</tspan><tspan font-size="8" x="-49.3291" y="28.0109">瓌</tspan><tspan font-family="Cambria Math,Cambria Math_MSFontService,sans-serif" font-size="8" x="-41.5289" y="28.0109">⊤</tspan><tspan font-size="8" x="-36.7291" y="28.0109">䮘</tspan><tspan font-size="8" x="-28.9293" y="28.0109">䅣</tspan><tspan font-size="8" x="-21.129" y="28.0109">䧌</tspan><tspan font-size="8" x="-13.3292" y="28.0109">嚗</tspan><tspan font-family="Cambria Math,Cambria Math_MSFontService,sans-serif" font-size="8" x="-5.52884" y="28.0109">⍮</tspan><tspan font-family="Arial,Arial_MSFontService,sans-serif" font-size="8" x="-0.729007" y="28.0109">ۣ</tspan><tspan font-size="8" x="-127.729" y="42.4681">䮒</tspan></text><path d="M2.39844 0.839844C2.16406 0.839844 1.96419 0.757161 1.79883 0.591797 1.63346 0.426432 1.55078 0.226562 1.55078-0.0078125L1.55078-1.97656C1.55078-2.13281 1.60612-2.26628 1.7168-2.37695 1.82747-2.48763 1.95964-2.54297 2.11328-2.54297L8.87109-2.54297C9.02734-2.54297 9.16016-2.48763 9.26953-2.37695 9.37891-2.26628 9.43359-2.13281 9.43359-1.97656L9.43359-0.0078125C9.43359 0.226562 9.35091 0.426432 9.18555 0.591797 9.02018 0.757161 8.82031 0.839844 8.58594 0.839844Z" fill="#F9C23C" transform="matrix(1.10549 0 0 1.10671 967.761 331)"/><path d="M7.82422-5.36328C7.85286-5.38932 7.88672-5.40234 7.92578-5.40234 7.96484-5.40234 7.9987-5.38932 8.02734-5.36328 8.05599-5.33464 8.07031-5.30013 8.07031-5.25977 8.07031-5.2194 8.05599-5.1862 8.02734-5.16016L3.20312-0.335938C3.17448-0.307292 3.14062-0.292969 3.10156-0.292969 3.0625-0.292969 3.02865-0.307292 3-0.335938 2.97135-0.364583 2.95703-0.398438 2.95703-0.4375 2.95703-0.476562 2.97135-0.510417 3-0.539062Z" fill="#9D5044" transform="matrix(1.10549 0 0 1.10671 967.761 331)"/><path d="M7.41797-0.300781 7.20312-0.515625 6.33594-3.66406 3.19141-4.53125 2.97656-4.74609C2.86979-4.85286 2.81315-4.97786 2.80664-5.12109 2.80013-5.26432 2.84896-5.375 2.95312-5.45312 3.3125-5.72656 3.70312-5.92448 4.125-6.04688 4.54688-6.16927 4.97591-6.21615 5.41211-6.1875 5.84831-6.15885 6.27083-6.05469 6.67969-5.875 7.08854-5.69531 7.45833-5.4401 7.78906-5.10938 8.11979-4.77865 8.375-4.4095 8.55469-4.00195 8.73438-3.5944 8.83854-3.17253 8.86719-2.73633 8.89583-2.30013 8.84831-1.87109 8.72461-1.44922 8.60091-1.02734 8.40234-0.636719 8.12891-0.277344 8.04818-0.173177 7.9362-0.124349 7.79297-0.130859 7.64974-0.13737 7.52474-0.19401 7.41797-0.300781Z" fill="#F8312F" transform="matrix(1.10549 0 0 1.10671 967.761 331)"/><path d="M7.20312-0.515625 3.19141-4.53125C3.54818-4.89062 3.93424-5.17448 4.34961-5.38281 4.76497-5.59115 5.18359-5.722 5.60547-5.77539 6.02734-5.82878 6.42643-5.80078 6.80273-5.69141 7.17904-5.58203 7.50521-5.38932 7.78125-5.11328 8.0599-4.83464 8.25325-4.50716 8.36133-4.13086 8.4694-3.75456 8.49674-3.35612 8.44336-2.93555 8.38997-2.51497 8.25911-2.09635 8.05078-1.67969 7.84245-1.26302 7.5599-0.875 7.20312-0.515625Z" fill="#E6E6E6" transform="matrix(1.10549 0 0 1.10671 967.761 331)"/><path d="M6.19531-1.52734 4.19141-3.52734C4.54818-3.88672 4.90885-4.19661 5.27344-4.45703 5.63802-4.71745 5.98503-4.92057 6.31445-5.06641 6.64388-5.21224 6.9362-5.29167 7.19141-5.30469 7.44661-5.31771 7.64323-5.25521 7.78125-5.11719 7.91927-4.97917 7.98177-4.78255 7.96875-4.52734 7.95573-4.27214 7.87695-3.97982 7.73242-3.65039 7.58789-3.32096 7.38542-2.97396 7.125-2.60938 6.86458-2.24479 6.55469-1.88411 6.19531-1.52734Z" fill="#F8312F" transform="matrix(1.10549 0 0 1.10671 967.761 331)"/><text fill="#4F4C4C" font-family="MS Gothic,MS Gothic_MSFontService,sans-serif" font-weight="400" font-size="8" transform="matrix(1.10549 0 0 1.10671 979.994 331)">␣<tspan font-family="Microsoft YaHei,Microsoft YaHei_MSFontService,sans-serif" font-size="8" x="8.0659" y="0">䧌</tspan><tspan font-family="Microsoft YaHei,Microsoft YaHei_MSFontService,sans-serif" font-size="8" x="16.1318" y="0">䬨</tspan><tspan font-family="Microsoft YaHei,Microsoft YaHei_MSFontService,sans-serif" font-size="8" x="24.1978" y="0">㳅</tspan><tspan font-family="Microsoft YaHei,Microsoft YaHei_MSFontService,sans-serif" font-size="8" x="32.2637" y="0">㑡</tspan><tspan font-family="Cambria Math,Cambria Math_MSFontService,sans-serif" font-size="8" x="40.3296" y="0">⌲</tspan><tspan font-size="8" x="61.3036" y="0">㌘</tspan><tspan font-family="Microsoft YaHei,Microsoft YaHei_MSFontService,sans-serif" font-size="8" x="69.3696" y="0">䧗</tspan><tspan font-family="Microsoft YaHei,Microsoft YaHei_MSFontService,sans-serif" font-size="8" x="77.4355" y="0">悛</tspan><tspan font-family="Cambria Math,Cambria Math_MSFontService,sans-serif" font-size="8" x="85.5014" y="0">⧪</tspan><tspan font-family="Microsoft YaHei,Microsoft YaHei_MSFontService,sans-serif" font-size="8" x="91.5673" y="0">㲫</tspan><tspan font-family="Microsoft YaHei,Microsoft YaHei_MSFontService,sans-serif" font-size="8" x="99.6328" y="0">䆌</tspan><tspan font-family="Segoe UI Symbol,Segoe UI Symbol_MSFontService,sans-serif" font-size="8" x="107.699" y="0">☰</tspan><tspan font-family="Microsoft YaHei,Microsoft YaHei_MSFontService,sans-serif" font-size="8" x="114.765" y="0">瓌</tspan><tspan font-size="8" x="139.953" y="0">㌘</tspan><tspan font-family="Microsoft YaHei,Microsoft YaHei_MSFontService,sans-serif" font-size="8" x="-19.1319" y="13.5536">櫪</tspan><tspan font-family="Microsoft YaHei,Microsoft YaHei_MSFontService,sans-serif" font-size="8" x="-11.2515" y="13.5536">厑</tspan><tspan font-family="Segoe UI Symbol,Segoe UI Symbol_MSFontService,sans-serif" font-size="8" x="-3.37113" y="13.5536">⡵</tspan><tspan font-size="8" x="2.50973" y="13.5536">㊧</tspan><tspan font-family="Microsoft YaHei,Microsoft YaHei_MSFontService,sans-serif" font-size="8" x="10.3901" y="13.5536">恈</tspan><tspan font-family="Microsoft YaHei,Microsoft YaHei_MSFontService,sans-serif" font-size="8" x="18.2705" y="13.5536">恥</tspan><tspan font-family="Arial,Arial_MSFontService,sans-serif" font-size="8" x="26.1508" y="13.5536">ۣ</tspan><tspan font-family="Microsoft YaHei,Microsoft YaHei_MSFontService,sans-serif" font-size="8" x="26.0317" y="13.5536">㳅</tspan><tspan font-family="Microsoft YaHei,Microsoft YaHei_MSFontService,sans-serif" font-size="8" x="33.9121" y="13.5536">㑡</tspan><tspan font-family="Cambria Math,Cambria Math_MSFontService,sans-serif" font-size="8" x="41.7924" y="13.5536">⋞</tspan><tspan font-family="Segoe UI Symbol,Segoe UI Symbol_MSFontService,sans-serif" font-size="8" x="47.6729" y="13.5536">⮪</tspan><tspan font-family="Microsoft YaHei,Microsoft YaHei_MSFontService,sans-serif" font-size="8" x="54.5531" y="13.5536">㐆</tspan><tspan font-family="Microsoft YaHei,Microsoft YaHei_MSFontService,sans-serif" font-size="8" x="62.4341" y="13.5536">瓌</tspan><tspan font-family="Arial,Arial_MSFontService,sans-serif" font-size="8" x="70.3145" y="13.5536">Ҳ</tspan><tspan font-family="Ebrima,Ebrima_MSFontService,sans-serif" font-size="8" x="75.1948" y="13.5536">ⶱ</tspan><tspan font-family="Microsoft YaHei,Microsoft YaHei_MSFontService,sans-serif" font-size="8" x="82.0752" y="13.5536">㪊</tspan><tspan font-family="Arial,Arial_MSFontService,sans-serif" font-size="8" x="89.9555" y="13.5536">ҳ</tspan><tspan font-family="Microsoft YaHei,Microsoft YaHei_MSFontService,sans-serif" font-size="8" x="93.8364" y="13.5536">偪</tspan><tspan font-family="Cambria Math,Cambria Math_MSFontService,sans-serif" font-size="8" x="101.717" y="13.5536">⌊</tspan><tspan font-family="Microsoft YaHei,Microsoft YaHei_MSFontService,sans-serif" font-size="8" x="104.597" y="13.5536">ラ</tspan><tspan font-family="Cambria Math,Cambria Math_MSFontService,sans-serif" font-size="8" x="112.478" y="13.5536">⋑</tspan><tspan font-family="Microsoft YaHei,Microsoft YaHei_MSFontService,sans-serif" font-size="8" x="118.358" y="13.5536">瓌</tspan><tspan font-family="Microsoft YaHei,Microsoft YaHei_MSFontService,sans-serif" font-size="8" x="126.239" y="13.5536">垕</tspan><tspan font-family="Microsoft YaHei,Microsoft YaHei_MSFontService,sans-serif" font-size="8" x="134.119" y="13.5536">㨫</tspan><tspan font-family="Segoe UI Symbol,Segoe UI Symbol_MSFontService,sans-serif" font-size="8" x="-19.1319" y="28.0109">⢱</tspan><tspan font-family="Cambria Math,Cambria Math_MSFontService,sans-serif" font-size="8" x="-13.332" y="28.0109">⊮</tspan><tspan font-family="Microsoft YaHei,Microsoft YaHei_MSFontService,sans-serif" font-size="8" x="-6.53175" y="28.0109">䡓</tspan><tspan font-family="Microsoft YaHei,Microsoft YaHei_MSFontService,sans-serif" font-size="8" x="1.26803" y="28.0109">卹</tspan><tspan font-family="Microsoft YaHei,Microsoft YaHei_MSFontService,sans-serif" font-size="8" x="9.06831" y="28.0109">瓌</tspan><tspan font-family="Segoe UI Symbol,Segoe UI Symbol_MSFontService,sans-serif" font-size="8" x="16.8682" y="28.0109">⚿</tspan><tspan font-family="Microsoft YaHei,Microsoft YaHei_MSFontService,sans-serif" font-size="8" x="24.6679" y="28.0109">㳅</tspan><tspan font-family="Microsoft YaHei,Microsoft YaHei_MSFontService,sans-serif" font-size="8" x="32.4682" y="28.0109">㪚</tspan><tspan font-family="Microsoft YaHei,Microsoft YaHei_MSFontService,sans-serif" font-size="8" x="40.268" y="28.0109">檘</tspan><tspan font-family="Microsoft YaHei,Microsoft YaHei_MSFontService,sans-serif" font-size="8" x="48.0684" y="28.0109">瓈</tspan><tspan font-family="Segoe UI Symbol,Segoe UI Symbol_MSFontService,sans-serif" font-size="8" x="55.8682" y="28.0109">☐</tspan><tspan font-family="Cambria Math,Cambria Math_MSFontService,sans-serif" font-size="8" x="62.668" y="28.0109">◧</tspan><tspan font-family="Microsoft YaHei,Microsoft YaHei_MSFontService,sans-serif" font-size="8" x="69.4682" y="28.0109">华</tspan><tspan font-size="8" x="77.2681" y="28.0109">㌘</tspan><tspan font-family="Microsoft YaHei,Microsoft YaHei_MSFontService,sans-serif" font-size="8" x="85.0683" y="28.0109">瓉</tspan><tspan font-family="Cambria Math,Cambria Math_MSFontService,sans-serif" font-size="8" x="92.8681" y="28.0109">⊯</tspan><tspan font-family="Microsoft YaHei,Microsoft YaHei_MSFontService,sans-serif" font-size="8" x="99.6679" y="28.0109">䡓</tspan><tspan font-family="Microsoft YaHei,Microsoft YaHei_MSFontService,sans-serif" font-size="8" x="107.468" y="28.0109">ラ</tspan><tspan font-family="Cambria Math,Cambria Math_MSFontService,sans-serif" font-size="8" x="115.268" y="28.0109">⋑</tspan><tspan font-family="Arial,Arial_MSFontService,sans-serif" font-size="8" x="121.068" y="28.0109">ۣ</tspan><tspan font-family="Microsoft YaHei,Microsoft YaHei_MSFontService,sans-serif" font-size="8" x="-19.1319" y="56.0217">䀈</tspan><tspan font-family="Cambria Math,Cambria Math_MSFontService,sans-serif" font-size="8" x="-11.3321" y="56.0217">⋞</tspan><tspan font-family="Microsoft YaHei,Microsoft YaHei_MSFontService,sans-serif" font-size="8" x="-5.53177" y="56.0217">㏞</tspan><tspan font-family="Segoe UI Symbol,Segoe UI Symbol_MSFontService,sans-serif" font-size="8" x="2.26802" y="56.0217">⛚</tspan><tspan font-family="Microsoft YaHei,Microsoft YaHei_MSFontService,sans-serif" font-size="8" x="10.0684" y="56.0217">㓋</tspan><tspan font-size="8" x="17.8681" y="56.0217">␣</tspan><tspan font-family="Microsoft YaHei,Microsoft YaHei_MSFontService,sans-serif" font-size="8" x="25.6679" y="56.0217">䧌</tspan><tspan font-family="Microsoft YaHei,Microsoft YaHei_MSFontService,sans-serif" font-size="8" x="33.4683" y="56.0217">幨</tspan><tspan font-family="Microsoft YaHei,Microsoft YaHei_MSFontService,sans-serif" font-size="8" x="41.268" y="56.0217">垧</tspan><tspan font-family="Arial,Arial_MSFontService,sans-serif" font-size="8" x="49.0684" y="56.0217">ۣ</tspan><tspan fill="#393536" font-family="Ebrima,Ebrima_MSFontService,sans-serif" font-size="15" x="-19.1319" y="-133.729">߻</tspan></text><text fill="#393536" font-family="Arial,Arial_MSFontService,sans-serif" font-weight="400" font-size="15" direction="rtl" writing-mode="rl-tb" transform="matrix(1.10549 0 0 1.10671 966.582 183)" x="7.23663">ڵ</text><text fill="#393536" font-family="Nirmala UI,Nirmala UI_MSFontService,sans-serif" font-weight="400" font-size="15" transform="matrix(1.10549 0 0 1.10671 975.426 183)">ୋ<tspan font-family="Arial,Arial_MSFontService,sans-serif" font-size="15" x="20.0001" y="0">У</tspan></text></g></svg>